<?xml version="1.0" encoding="UTF-8" standalone="no"?>
<!DOCTYPE svg PUBLIC "-//W3C//DTD SVG 1.1//EN" "http://www.w3.org/Graphics/SVG/1.1/DTD/svg11.dtd">
<svg version="1.1" xmlns="http://www.w3.org/2000/svg" xmlns:xlink="http://www.w3.org/1999/xlink" preserveAspectRatio="xMidYMid meet" viewBox="0 0 640 640" width="640" height="640"><defs><path d="M90.09 100C89.67 97.43 89.85 95.11 90.61 93.05C91.04 91.9 92.33 89.38 95.29 88.89C96.75 88.65 99.46 88.78 101.79 89.76C104.16 90.75 106.15 92.69 106.91 93.55C108.51 95.35 109.52 97.5 109.95 100L124.76 100C124.69 96.75 122.63 93.71 118.59 90.87C114.55 88.03 108.36 86.48 100.01 86.24C97.23 86.23 94.61 86.47 92.15 86.95C87.95 87.76 84.19 89.27 81.55 90.87C77.36 93.4 75.26 96.44 75.26 100L90.09 100Z" id="dgC4cIttE"></path><clipPath id="clipd1kSbsoiAm"><use xlink:href="#dgC4cIttE" opacity="1"></use></clipPath></defs><g><g><g><use xlink:href="#dgC4cIttE" opacity="1" fill="#000000" fill-opacity="1"></use><g clip-path="url(#clipd1kSbsoiAm)"><use xlink:href="#dgC4cIttE" opacity="1" fill-opacity="0" stroke="#000000" stroke-width="2" stroke-opacity="1"></use></g></g></g></g></svg>