<?xml version="1.0" encoding="UTF-8" standalone="no"?>
<!DOCTYPE svg PUBLIC "-//W3C//DTD SVG 1.1//EN" "http://www.w3.org/Graphics/SVG/1.1/DTD/svg11.dtd">
<svg version="1.1" xmlns="http://www.w3.org/2000/svg" xmlns:xlink="http://www.w3.org/1999/xlink" preserveAspectRatio="xMidYMid meet" viewBox="0 0 640 640" width="640" height="640"><defs><path d="M96.73 88.77C94.38 88.77 92.69 89.58 91.65 91.2C90.48 92.77 89.9 94.89 89.9 97.56C89.9 100.63 90.71 103.26 92.34 105.47C93.96 107.61 95.75 109.11 97.71 109.97C99.46 110.81 101.32 111.23 103.27 111.23C105.55 111.23 107.28 110.42 108.44 108.8C109.55 107.16 110.1 105.04 110.1 102.44C110.1 99.38 109.29 96.74 107.66 94.53C106.04 92.45 104.28 90.95 102.4 90.03C100.5 89.19 98.61 88.77 96.73 88.77M100.05 86.24C107.08 86.24 112.94 87.6 117.63 90.33C122.38 93.07 124.76 96.29 124.76 100C124.76 103.97 122.31 107.22 117.43 109.76C112.54 112.43 106.75 113.76 100.05 113.76C93.15 113.76 87.29 112.4 82.48 109.67C77.66 106.93 75.24 103.71 75.24 100C75.24 96.03 77.72 92.78 82.67 90.24C87.55 87.57 93.35 86.24 100.05 86.24" id="h2lfy1cKBs"></path><clipPath id="clipfj63sGH4U"><use xlink:href="#h2lfy1cKBs" opacity="1"></use></clipPath></defs><g><g><g><use xlink:href="#h2lfy1cKBs" opacity="1" fill="#000000" fill-opacity="1"></use><g clip-path="url(#clipfj63sGH4U)"><use xlink:href="#h2lfy1cKBs" opacity="1" fill-opacity="0" stroke="#000000" stroke-width="2" stroke-opacity="1"></use></g></g></g></g></svg>