<?xml version="1.0" encoding="UTF-8" standalone="no"?>
<!DOCTYPE svg PUBLIC "-//W3C//DTD SVG 1.1//EN" "http://www.w3.org/Graphics/SVG/1.1/DTD/svg11.dtd">
<svg version="1.1" xmlns="http://www.w3.org/2000/svg" xmlns:xlink="http://www.w3.org/1999/xlink" preserveAspectRatio="xMidYMid meet" viewBox="0 0 1490 830" width="1490" height="830"><defs><path d="M1482.26 415C1472.27 161.56 1077.98 -12.21 660.97 8.84C243.95 29.9 25.57 260.37 16.38 342.33C7.18 424.3 10.72 412.53 226.89 415C443.07 417.47 445.13 424.2 456.13 462.05C468.28 503.89 487.15 542.19 512.74 576.97C561.49 641.34 615.24 686.33 673.98 711.95C726.47 737.27 782.12 749.93 840.85 749.93C909.27 749.93 960.99 725.57 996 676.83C1029.11 627.75 1037.09 531.56 1037.09 453.45C1037.09 419.7 1126.82 417.89 1210.63 415C1338.98 410.57 1480.76 417.8 1478.69 415M744.29 0C955.2 0 1130.98 40.95 1271.58 122.81C1414.07 204.97 1485.31 301.68 1485.31 412.94C1485.31 531.97 1412.06 629.64 1265.49 705.86C1118.95 785.87 945.21 825.85 744.29 825.85C537.13 825.85 361.38 784.94 217 703.07C72.32 620.88 0 524.17 0 412.94C0 293.88 74.21 196.24 222.64 119.99C369.17 39.99 543.07 0 744.29 0" id="dSbuuPgsX"></path></defs><g><g><g><use xlink:href="#dSbuuPgsX" opacity="1" fill="#000000" fill-opacity="1"></use><g><use xlink:href="#dSbuuPgsX" opacity="1" fill-opacity="0" stroke="#000000" stroke-width="1" stroke-opacity="0"></use></g></g></g></g></svg>