<?xml version="1.0" encoding="UTF-8" standalone="no"?>
<!DOCTYPE svg PUBLIC "-//W3C//DTD SVG 1.1//EN" "http://www.w3.org/Graphics/SVG/1.1/DTD/svg11.dtd">
<svg version="1.1" xmlns="http://www.w3.org/2000/svg" xmlns:xlink="http://www.w3.org/1999/xlink" preserveAspectRatio="xMidYMid meet" viewBox="0 0 1490 830" width="1490" height="830"><defs><path d="M644.46 75.92C574.15 75.92 523.39 100.31 492.13 149.06C457.13 195.91 439.64 259.51 439.64 339.81C439.64 361.86 418.1 418.24 197.09 415C109.01 413.71 -99.3 407.38 93.75 606.5C181.24 696.74 343.67 767.72 498.73 797.74C644.77 826 785.98 815.87 798.01 815.93C1004.72 817.05 1293.97 709.22 1378.03 622.5C1462.09 535.78 1442.14 554.91 1471.64 486.12C1478.14 470.99 1485.08 429.15 1455.56 422.31C1350.91 398.05 1056.97 434.97 1047.66 404.39C1035.47 364.41 997.18 282.33 972.57 248.89C923.82 186.4 871.15 141.41 814.6 113.9C757.73 88.58 701 75.92 644.46 75.92M744.29 0C955.2 0 1130.98 40.95 1271.58 122.81C1414.07 204.97 1485.31 301.68 1485.31 412.94C1485.31 531.97 1412.06 629.64 1265.49 705.86C1118.95 785.87 945.21 825.85 744.29 825.85C537.13 825.85 361.38 784.94 217 703.07C72.32 620.88 0 524.17 0 412.94C0 293.88 74.21 196.24 222.64 119.99C369.17 39.99 543.07 0 744.29 0" id="aL1YuesY9"></path></defs><g><g><g><use xlink:href="#aL1YuesY9" opacity="1" fill="#000000" fill-opacity="1"></use><g><use xlink:href="#aL1YuesY9" opacity="1" fill-opacity="0" stroke="#000000" stroke-width="1" stroke-opacity="0"></use></g></g></g></g></svg>