<?xml version="1.0" encoding="UTF-8" standalone="no"?>
<svg width="2977.2px" height="4208.4px" viewBox="0 0 2977.2 4208.4"
 xmlns="http://www.w3.org/2000/svg" xmlns:xlink="http://www.w3.org/1999/xlink" version="1.2" baseProfile="tiny">
<title>His Theme experiments (3)</title>
<desc>Generated by MuseScore 3.3.4</desc>
<polyline class="StaffLines" fill="none" stroke="#000000" stroke-width="2.00" stroke-linejoin="bevel" points="334.232,316.732 2835.47,316.732"/>
<polyline class="StaffLines" fill="none" stroke="#000000" stroke-width="2.00" stroke-linejoin="bevel" points="334.232,341.732 2835.47,341.732"/>
<polyline class="StaffLines" fill="none" stroke="#000000" stroke-width="2.00" stroke-linejoin="bevel" points="334.232,366.732 2835.47,366.732"/>
<polyline class="StaffLines" fill="none" stroke="#000000" stroke-width="2.00" stroke-linejoin="bevel" points="334.232,391.732 2835.47,391.732"/>
<polyline class="StaffLines" fill="none" stroke="#000000" stroke-width="2.00" stroke-linejoin="bevel" points="334.232,416.732 2835.47,416.732"/>
<polyline class="StaffLines" fill="none" stroke="#000000" stroke-width="2.00" stroke-linejoin="bevel" points="334.232,579.233 2835.47,579.233"/>
<polyline class="StaffLines" fill="none" stroke="#000000" stroke-width="2.00" stroke-linejoin="bevel" points="334.232,604.233 2835.47,604.233"/>
<polyline class="StaffLines" fill="none" stroke="#000000" stroke-width="2.00" stroke-linejoin="bevel" points="334.232,629.233 2835.47,629.233"/>
<polyline class="StaffLines" fill="none" stroke="#000000" stroke-width="2.00" stroke-linejoin="bevel" points="334.232,654.233 2835.47,654.233"/>
<polyline class="StaffLines" fill="none" stroke="#000000" stroke-width="2.00" stroke-linejoin="bevel" points="334.232,679.233 2835.47,679.233"/>
<polyline class="StaffLines" fill="none" stroke="#000000" stroke-width="2.00" stroke-linejoin="bevel" points="334.232,841.733 2835.47,841.733"/>
<polyline class="StaffLines" fill="none" stroke="#000000" stroke-width="2.00" stroke-linejoin="bevel" points="334.232,866.733 2835.47,866.733"/>
<polyline class="StaffLines" fill="none" stroke="#000000" stroke-width="2.00" stroke-linejoin="bevel" points="334.232,891.733 2835.47,891.733"/>
<polyline class="StaffLines" fill="none" stroke="#000000" stroke-width="2.00" stroke-linejoin="bevel" points="334.232,916.733 2835.47,916.733"/>
<polyline class="StaffLines" fill="none" stroke="#000000" stroke-width="2.00" stroke-linejoin="bevel" points="334.232,941.733 2835.47,941.733"/>
<polyline class="StaffLines" fill="none" stroke="#000000" stroke-width="2.00" stroke-linejoin="bevel" points="334.232,1104.23 2835.47,1104.23"/>
<polyline class="StaffLines" fill="none" stroke="#000000" stroke-width="2.00" stroke-linejoin="bevel" points="334.232,1129.23 2835.47,1129.23"/>
<polyline class="StaffLines" fill="none" stroke="#000000" stroke-width="2.00" stroke-linejoin="bevel" points="334.232,1154.23 2835.47,1154.23"/>
<polyline class="StaffLines" fill="none" stroke="#000000" stroke-width="2.00" stroke-linejoin="bevel" points="334.232,1179.23 2835.47,1179.23"/>
<polyline class="StaffLines" fill="none" stroke="#000000" stroke-width="2.00" stroke-linejoin="bevel" points="334.232,1204.23 2835.47,1204.23"/>
<polyline class="StaffLines" fill="none" stroke="#000000" stroke-width="2.00" stroke-linejoin="bevel" points="334.232,1366.73 2835.47,1366.73"/>
<polyline class="StaffLines" fill="none" stroke="#000000" stroke-width="2.00" stroke-linejoin="bevel" points="334.232,1391.73 2835.47,1391.73"/>
<polyline class="StaffLines" fill="none" stroke="#000000" stroke-width="2.00" stroke-linejoin="bevel" points="334.232,1416.73 2835.47,1416.73"/>
<polyline class="StaffLines" fill="none" stroke="#000000" stroke-width="2.00" stroke-linejoin="bevel" points="334.232,1441.73 2835.47,1441.73"/>
<polyline class="StaffLines" fill="none" stroke="#000000" stroke-width="2.00" stroke-linejoin="bevel" points="334.232,1466.73 2835.47,1466.73"/>
<path class="MeasureNumber" d="M316.967,263.607 C317.581,263.607 318.495,263.969 319.709,264.693 C320.922,265.417 321.982,265.779 322.889,265.779 C324.357,265.779 325.597,265.209 326.607,264.068 C327.618,262.928 328.123,261.524 328.123,259.857 C328.123,258.816 327.943,257.899 327.584,257.107 C327.224,256.316 326.766,255.701 326.209,255.264 C325.652,254.826 324.985,254.469 324.209,254.193 C323.433,253.917 322.706,253.738 322.029,253.654 C321.352,253.571 320.628,253.529 319.857,253.529 L319.857,253.014 C320.764,252.691 321.542,252.376 322.193,252.068 C322.844,251.761 323.529,251.35 324.248,250.834 C324.967,250.318 325.521,249.685 325.912,248.935 C326.303,248.185 326.498,247.331 326.498,246.373 C326.498,245.123 326.089,244.097 325.271,243.295 C324.454,242.493 323.394,242.092 322.092,242.092 C320.842,242.092 319.743,242.433 318.795,243.115 C317.847,243.797 316.961,244.873 316.139,246.342 L315.529,246.17 C316.227,244.284 317.17,242.735 318.357,241.521 C319.545,240.308 321.227,239.701 323.404,239.701 C325.248,239.701 326.751,240.206 327.912,241.217 C329.073,242.227 329.654,243.545 329.654,245.17 C329.654,246.264 329.373,247.225 328.81,248.053 C328.248,248.881 327.274,249.764 325.889,250.701 C327.493,251.389 328.748,252.269 329.654,253.342 C330.56,254.415 331.014,255.951 331.014,257.951 C331.014,260.784 329.967,263.05 327.873,264.748 C325.779,266.446 323.144,267.295 319.967,267.295 C318.581,267.295 317.482,267.087 316.67,266.67 C315.857,266.253 315.451,265.701 315.451,265.014 C315.451,264.587 315.592,264.245 315.873,263.99 C316.154,263.735 316.519,263.607 316.967,263.607 M350.287,263.451 C348.636,266.014 346.451,267.295 343.732,267.295 C341.014,267.295 338.826,265.988 337.17,263.373 C335.514,260.758 334.685,257.399 334.685,253.295 C334.685,249.43 335.514,246.199 337.17,243.6 C338.826,241.001 341.066,239.701 343.889,239.701 C346.503,239.701 348.636,240.98 350.287,243.537 C351.938,246.094 352.764,249.425 352.764,253.529 C352.764,257.581 351.938,260.889 350.287,263.451 M343.764,240.732 C340.274,240.732 338.529,245.04 338.529,253.654 C338.529,262.05 340.264,266.248 343.732,266.248 C347.201,266.248 348.935,262.034 348.935,253.607 C348.935,249.43 348.495,246.24 347.615,244.037 C346.735,241.834 345.451,240.732 343.764,240.732"/>
<path class="InstrumentName" d="M163.435,1398.58 C161.154,1398.58 159.133,1398.99 157.373,1399.8 C155.612,1400.62 154.193,1401.67 153.115,1402.95 C152.037,1404.23 151.157,1405.73 150.474,1407.45 C149.792,1409.17 149.321,1410.82 149.06,1412.4 C148.8,1413.99 148.67,1415.58 148.67,1417.17 C148.67,1422.77 150.081,1427.2 152.904,1430.44 C155.727,1433.68 159.576,1435.3 164.451,1435.3 C166.607,1435.3 168.477,1434.94 170.06,1434.24 C171.644,1433.54 172.435,1432.7 172.435,1431.73 L172.435,1421.95 C172.435,1419.69 172.126,1418.27 171.506,1417.69 C170.886,1417.1 169.435,1416.73 167.154,1416.58 L167.154,1415.5 L182.451,1415.5 L182.451,1416.58 C180.691,1416.73 179.55,1417.1 179.029,1417.69 C178.508,1418.27 178.248,1419.45 178.248,1421.22 L178.248,1433.48 C177.05,1434.49 174.881,1435.43 171.74,1436.29 C168.599,1437.15 165.748,1437.58 163.185,1437.58 C161.394,1437.58 159.597,1437.4 157.795,1437.04 C155.993,1436.68 154.112,1436.02 152.154,1435.05 C150.196,1434.09 148.477,1432.88 146.998,1431.42 C145.519,1429.96 144.287,1428.01 143.303,1425.58 C142.318,1423.14 141.826,1420.36 141.826,1417.23 C141.826,1411.15 143.756,1406.14 147.615,1402.2 C151.474,1398.26 156.404,1396.3 162.404,1396.3 C164.727,1396.3 167.019,1396.61 169.279,1397.23 C171.54,1397.86 172.852,1398.17 173.217,1398.17 C173.852,1398.17 174.409,1397.99 174.889,1397.63 C175.368,1397.27 175.706,1396.83 175.904,1396.3 L177.232,1396.3 L177.717,1408.95 L176.326,1408.95 C175.045,1405.8 173.446,1403.28 171.529,1401.4 C169.612,1399.52 166.915,1398.58 163.435,1398.58 M211.529,1433.61 L211.529,1434.45 C208.415,1435.33 205.675,1436.27 203.31,1437.28 L203.076,1437.15 L203.076,1432.06 C202.951,1432.18 202.599,1432.53 202.021,1433.13 C201.443,1433.73 201.034,1434.14 200.795,1434.37 C200.555,1434.6 200.144,1434.96 199.56,1435.44 C198.977,1435.92 198.467,1436.26 198.029,1436.47 C197.592,1436.68 197.032,1436.87 196.349,1437.05 C195.667,1437.24 194.987,1437.33 194.31,1437.33 C192.112,1437.33 190.352,1436.61 189.029,1435.17 C187.706,1433.73 187.045,1431.82 187.045,1429.44 L187.045,1414.39 C187.045,1413 186.787,1412.04 186.271,1411.5 C185.756,1410.96 184.774,1410.65 183.326,1410.58 L183.326,1409.73 L192.092,1409.73 L192.092,1429.2 C192.092,1430.43 192.511,1431.49 193.349,1432.39 C194.188,1433.29 195.191,1433.73 196.357,1433.73 C196.795,1433.73 197.313,1433.67 197.912,1433.55 C198.511,1433.43 199.201,1433.2 199.982,1432.87 C200.764,1432.53 201.425,1431.99 201.967,1431.26 C202.508,1430.52 202.779,1429.62 202.779,1428.55 L202.779,1414.51 C202.779,1413.05 202.508,1412.07 201.967,1411.59 C201.425,1411.11 200.211,1410.83 198.326,1410.75 L198.326,1409.73 L207.81,1409.73 L207.81,1430.22 C207.81,1431.6 208.032,1432.51 208.474,1432.95 C208.917,1433.39 209.836,1433.61 211.232,1433.61 L211.529,1433.61 M215.451,1413.15 C214.576,1413.15 213.737,1413.21 212.935,1413.33 L212.935,1412.44 C215.737,1411.63 218.836,1410.54 222.232,1409.14 L222.467,1409.31 L222.467,1430.61 C222.467,1432.77 222.717,1434.15 223.217,1434.73 C223.717,1435.3 224.946,1435.67 226.904,1435.83 L226.904,1436.73 L212.685,1436.73 L212.685,1435.83 C214.769,1435.71 216.081,1435.36 216.623,1434.76 C217.165,1434.16 217.435,1432.77 217.435,1430.61 L217.435,1416.69 C217.435,1415.37 217.284,1414.46 216.982,1413.94 C216.68,1413.42 216.17,1413.15 215.451,1413.15 M219.42,1395.75 C220.295,1395.75 221.032,1396.05 221.631,1396.65 C222.23,1397.26 222.529,1397.98 222.529,1398.81 C222.529,1399.7 222.23,1400.43 221.631,1401.01 C221.032,1401.58 220.295,1401.87 219.42,1401.87 C218.576,1401.87 217.865,1401.57 217.287,1400.98 C216.709,1400.38 216.42,1399.66 216.42,1398.82 C216.42,1397.98 216.719,1397.26 217.318,1396.65 C217.917,1396.05 218.618,1395.75 219.42,1395.75 M244.279,1409.73 L244.279,1411.53 L238.217,1411.53 L238.217,1428.69 C238.217,1430.57 238.456,1431.94 238.935,1432.8 C239.415,1433.66 240.211,1434.09 241.326,1434.09 C242.566,1434.09 243.769,1433.39 244.935,1432 L245.717,1432.65 C243.79,1435.77 241.389,1437.33 238.514,1437.33 C234.951,1437.33 233.17,1434.77 233.17,1429.67 L233.17,1411.53 L229.998,1411.53 C229.831,1411.42 229.748,1411.29 229.748,1411.14 C229.748,1410.95 229.808,1410.8 229.928,1410.69 C230.047,1410.57 230.279,1410.41 230.623,1410.21 C230.967,1410.01 231.378,1409.71 231.857,1409.33 C232.336,1408.94 232.995,1408.24 233.834,1407.23 C234.672,1406.21 235.592,1404.99 236.592,1403.58 C237.227,1402.64 237.628,1402.07 237.795,1401.87 C238.076,1401.87 238.217,1402.14 238.217,1402.67 L238.217,1409.73 L244.279,1409.73 M253.232,1430.73 C254.149,1430.73 254.938,1431.07 255.599,1431.76 C256.261,1432.44 256.592,1433.24 256.592,1434.15 C256.592,1435.03 256.251,1435.79 255.568,1436.43 C254.886,1437.07 254.086,1437.39 253.17,1437.39 C252.295,1437.39 251.537,1437.07 250.896,1436.43 C250.256,1435.79 249.935,1435.03 249.935,1434.15 C249.935,1433.24 250.266,1432.44 250.928,1431.76 C251.589,1431.07 252.357,1430.73 253.232,1430.73"/>
<path class="InstrumentName" d="M185.185,1013.65 C185.185,1014.69 185.066,1015.67 184.826,1016.62 C184.586,1017.56 184.118,1018.56 183.42,1019.63 C182.722,1020.7 181.792,1021.62 180.631,1022.39 C179.469,1023.16 177.889,1023.8 175.889,1024.31 C173.889,1024.82 171.571,1025.08 168.935,1025.08 C167.737,1025.08 166.357,1025.02 164.795,1024.9 L164.795,1035.9 C164.795,1038.12 165.144,1039.56 165.842,1040.23 C166.54,1040.89 168.071,1041.26 170.435,1041.34 L170.435,1042.48 L153.639,1042.48 L153.639,1041.34 C155.909,1041.14 157.316,1040.71 157.857,1040.05 C158.399,1039.39 158.67,1037.8 158.67,1035.28 L158.67,1009.31 C158.67,1007.14 158.391,1005.76 157.834,1005.16 C157.277,1004.56 155.878,1004.14 153.639,1003.9 L153.639,1002.76 L169.467,1002.76 C171.269,1002.76 173.011,1002.93 174.693,1003.27 C176.376,1003.61 178.045,1004.16 179.701,1004.93 C181.357,1005.69 182.685,1006.82 183.685,1008.3 C184.685,1009.79 185.185,1011.57 185.185,1013.65 M164.795,1007.08 L164.795,1022.62 C166.191,1022.75 167.331,1022.81 168.217,1022.81 C175.175,1022.81 178.654,1019.88 178.654,1014.01 C178.654,1010.94 177.693,1008.68 175.771,1007.23 C173.849,1005.77 170.868,1005.05 166.826,1005.05 C166.034,1005.05 165.498,1005.19 165.217,1005.47 C164.935,1005.75 164.795,1006.28 164.795,1007.08 M188.326,1018.55 L188.326,1017.53 C191.295,1016.67 194.055,1015.78 196.607,1014.89 L197.029,1015 L197.029,1019.69 C199.071,1017.79 200.683,1016.52 201.865,1015.87 C203.047,1015.21 204.336,1014.89 205.732,1014.89 C207.93,1014.89 209.659,1015.67 210.92,1017.24 C212.18,1018.81 212.81,1021.01 212.81,1023.84 L212.81,1037.61 C212.81,1039.1 213.05,1040.09 213.529,1040.59 C214.008,1041.09 214.987,1041.42 216.467,1041.58 L216.467,1042.48 L203.998,1042.48 L203.998,1041.58 C205.519,1041.46 206.529,1041.06 207.029,1040.38 C207.529,1039.7 207.779,1038.42 207.779,1036.53 L207.779,1023.95 C207.779,1020.07 206.316,1018.12 203.389,1018.12 C202.389,1018.12 201.469,1018.36 200.631,1018.82 C199.792,1019.28 198.654,1020.19 197.217,1021.55 L197.217,1038.45 C197.217,1039.53 197.495,1040.3 198.053,1040.74 C198.61,1041.18 199.649,1041.46 201.17,1041.58 L201.17,1042.48 L188.451,1042.48 L188.451,1041.58 C189.972,1041.46 190.972,1041.11 191.451,1040.53 C191.93,1039.95 192.17,1038.8 192.17,1037.08 L192.17,1022.15 C192.17,1020.67 192.011,1019.65 191.693,1019.12 C191.376,1018.58 190.795,1018.31 189.951,1018.31 C189.191,1018.31 188.649,1018.39 188.326,1018.55 M231.498,1014.89 C235.331,1014.89 238.487,1016.17 240.967,1018.73 C243.446,1021.28 244.685,1024.52 244.685,1028.45 C244.685,1032.61 243.407,1036.08 240.849,1038.88 C238.292,1041.68 235.133,1043.08 231.373,1043.08 C227.612,1043.08 224.482,1041.73 221.982,1039.03 C219.482,1036.33 218.232,1032.96 218.232,1028.92 C218.232,1024.81 219.461,1021.44 221.92,1018.82 C224.378,1016.2 227.571,1014.89 231.498,1014.89 M223.639,1026.01 C223.639,1030.25 224.417,1033.86 225.974,1036.83 C227.532,1039.8 229.571,1041.28 232.092,1041.28 C234.331,1041.28 236.092,1040.33 237.373,1038.43 C238.654,1036.53 239.295,1033.89 239.295,1030.53 C239.295,1026.45 238.495,1023.12 236.896,1020.55 C235.297,1017.97 233.237,1016.69 230.717,1016.69 C228.592,1016.69 226.881,1017.54 225.584,1019.24 C224.287,1020.94 223.639,1023.2 223.639,1026.01 M253.232,1036.48 C254.149,1036.48 254.938,1036.82 255.599,1037.51 C256.261,1038.19 256.592,1038.99 256.592,1039.9 C256.592,1040.78 256.251,1041.54 255.568,1042.18 C254.886,1042.82 254.086,1043.14 253.17,1043.14 C252.295,1043.14 251.537,1042.82 250.896,1042.18 C250.256,1041.54 249.935,1040.78 249.935,1039.9 C249.935,1038.99 250.266,1038.19 250.928,1037.51 C251.589,1036.82 252.357,1036.48 253.232,1036.48"/>
<path class="InstrumentName" d="M185.185,488.654 C185.185,489.686 185.066,490.673 184.826,491.615 C184.586,492.558 184.118,493.563 183.42,494.631 C182.722,495.699 181.792,496.618 180.631,497.389 C179.469,498.16 177.889,498.8 175.889,499.311 C173.889,499.821 171.571,500.076 168.935,500.076 C167.737,500.076 166.357,500.019 164.795,499.904 L164.795,510.904 C164.795,513.123 165.144,514.563 165.842,515.225 C166.54,515.886 168.071,516.259 170.435,516.342 L170.435,517.483 L153.639,517.483 L153.639,516.342 C155.909,516.144 157.316,515.714 157.857,515.053 C158.399,514.391 158.67,512.8 158.67,510.279 L158.67,484.311 C158.67,482.144 158.391,480.761 157.834,480.162 C157.277,479.563 155.878,479.144 153.639,478.904 L153.639,477.764 L169.467,477.764 C171.269,477.764 173.011,477.933 174.693,478.272 C176.376,478.61 178.045,479.162 179.701,479.928 C181.357,480.693 182.685,481.818 183.685,483.303 C184.685,484.787 185.185,486.571 185.185,488.654 M164.795,482.076 L164.795,497.623 C166.191,497.748 167.331,497.811 168.217,497.811 C175.175,497.811 178.654,494.878 178.654,489.014 C178.654,485.941 177.693,483.678 175.771,482.225 C173.849,480.772 170.868,480.045 166.826,480.045 C166.034,480.045 165.498,480.186 165.217,480.467 C164.935,480.748 164.795,481.285 164.795,482.076 M188.326,493.545 L188.326,492.529 C191.295,491.665 194.055,490.785 196.607,489.889 L197.029,489.998 L197.029,494.686 C199.071,492.79 200.683,491.516 201.865,490.865 C203.047,490.214 204.336,489.889 205.732,489.889 C207.93,489.889 209.659,490.673 210.92,492.24 C212.18,493.808 212.81,496.009 212.81,498.842 L212.81,512.608 C212.81,514.097 213.05,515.092 213.529,515.592 C214.008,516.092 214.987,516.42 216.467,516.576 L216.467,517.483 L203.998,517.483 L203.998,516.576 C205.519,516.462 206.529,516.063 207.029,515.381 C207.529,514.699 207.779,513.415 207.779,511.529 L207.779,498.951 C207.779,495.066 206.316,493.123 203.389,493.123 C202.389,493.123 201.469,493.355 200.631,493.818 C199.792,494.282 198.654,495.191 197.217,496.545 L197.217,513.451 C197.217,514.535 197.495,515.298 198.053,515.74 C198.61,516.183 199.649,516.462 201.17,516.576 L201.17,517.483 L188.451,517.483 L188.451,516.576 C189.972,516.462 190.972,516.113 191.451,515.529 C191.93,514.946 192.17,513.795 192.17,512.076 L192.17,497.154 C192.17,495.665 192.011,494.652 191.693,494.115 C191.376,493.579 190.795,493.311 189.951,493.311 C189.191,493.311 188.649,493.389 188.326,493.545 M231.498,489.889 C235.331,489.889 238.487,491.167 240.967,493.725 C243.446,496.282 244.685,499.524 244.685,503.451 C244.685,507.608 243.407,511.084 240.849,513.881 C238.292,516.678 235.133,518.076 231.373,518.076 C227.612,518.076 224.482,516.727 221.982,514.029 C219.482,511.331 218.232,507.962 218.232,503.92 C218.232,499.805 219.461,496.438 221.92,493.818 C224.378,491.199 227.571,489.889 231.498,489.889 M223.639,501.014 C223.639,505.253 224.417,508.858 225.974,511.826 C227.532,514.795 229.571,516.279 232.092,516.279 C234.331,516.279 236.092,515.329 237.373,513.428 C238.654,511.527 239.295,508.894 239.295,505.529 C239.295,501.446 238.495,498.118 236.896,495.545 C235.297,492.972 233.237,491.686 230.717,491.686 C228.592,491.686 226.881,492.537 225.584,494.24 C224.287,495.943 223.639,498.201 223.639,501.014 M253.232,511.483 C254.149,511.483 254.938,511.824 255.599,512.506 C256.261,513.188 256.592,513.988 256.592,514.904 C256.592,515.779 256.251,516.537 255.568,517.178 C254.886,517.818 254.086,518.139 253.17,518.139 C252.295,518.139 251.537,517.818 250.896,517.178 C250.256,516.537 249.935,515.779 249.935,514.904 C249.935,513.988 250.266,513.188 250.928,512.506 C251.589,511.824 252.357,511.483 253.232,511.483"/>
<path class="SlurSegment" stroke="#000000" stroke-width="1.75" stroke-linecap="round" stroke-linejoin="round" fill-rule="evenodd" d="M1952.44,414.232 C2011.04,458.282 2128.23,458.282 2186.83,414.232 C2128.23,462.282 2011.04,462.282 1952.44,414.232"/>
<polyline class="BarLine" stroke="#000000" stroke-width="4.00" stroke-linejoin="bevel" points="336.232,1365.73 336.232,1467.73"/>
<polyline class="BarLine" stroke="#000000" stroke-width="4.00" stroke-linejoin="bevel" points="684.158,1365.73 684.158,1467.73"/>
<polyline class="BarLine" stroke="#000000" stroke-width="4.00" stroke-linejoin="bevel" points="916.154,1365.73 916.154,1467.73"/>
<polyline class="BarLine" stroke="#000000" stroke-width="4.00" stroke-linejoin="bevel" points="1148.15,1365.73 1148.15,1467.73"/>
<polyline class="BarLine" stroke="#000000" stroke-width="4.00" stroke-linejoin="bevel" points="1380.15,1365.73 1380.15,1467.73"/>
<polyline class="BarLine" stroke="#000000" stroke-width="4.00" stroke-linejoin="bevel" points="1668.68,1365.73 1668.68,1467.73"/>
<polyline class="BarLine" stroke="#000000" stroke-width="4.00" stroke-linejoin="bevel" points="1900.68,1365.73 1900.68,1467.73"/>
<polyline class="BarLine" stroke="#000000" stroke-width="4.00" stroke-linejoin="bevel" points="2135.08,1365.73 2135.08,1467.73"/>
<polyline class="BarLine" stroke="#000000" stroke-width="4.00" stroke-linejoin="bevel" points="2369.48,1365.73 2369.48,1467.73"/>
<polyline class="BarLine" stroke="#000000" stroke-width="4.00" stroke-linejoin="bevel" points="2601.47,1365.73 2601.47,1467.73"/>
<polyline class="BarLine" stroke="#000000" stroke-width="4.00" stroke-linejoin="bevel" points="2810.97,1365.73 2810.97,1467.73"/>
<polyline class="BarLine" stroke="#000000" stroke-width="12.50" stroke-linejoin="bevel" points="2829.22,1365.73 2829.22,1467.73"/>
<polyline class="BarLine" stroke="#000000" stroke-width="4.00" stroke-linejoin="bevel" points="336.232,1103.23 336.232,1366.73"/>
<polyline class="BarLine" stroke="#000000" stroke-width="4.00" stroke-linejoin="bevel" points="684.158,1103.23 684.158,1205.23"/>
<polyline class="BarLine" stroke="#000000" stroke-width="4.00" stroke-linejoin="bevel" points="916.154,1103.23 916.154,1205.23"/>
<polyline class="BarLine" stroke="#000000" stroke-width="4.00" stroke-linejoin="bevel" points="1148.15,1103.23 1148.15,1205.23"/>
<polyline class="BarLine" stroke="#000000" stroke-width="4.00" stroke-linejoin="bevel" points="1380.15,1103.23 1380.15,1205.23"/>
<polyline class="BarLine" stroke="#000000" stroke-width="4.00" stroke-linejoin="bevel" points="1668.68,1103.23 1668.68,1205.23"/>
<polyline class="BarLine" stroke="#000000" stroke-width="4.00" stroke-linejoin="bevel" points="1900.68,1103.23 1900.68,1205.23"/>
<polyline class="BarLine" stroke="#000000" stroke-width="4.00" stroke-linejoin="bevel" points="2135.08,1103.23 2135.08,1205.23"/>
<polyline class="BarLine" stroke="#000000" stroke-width="4.00" stroke-linejoin="bevel" points="2369.48,1103.23 2369.48,1205.23"/>
<polyline class="BarLine" stroke="#000000" stroke-width="4.00" stroke-linejoin="bevel" points="2601.47,1103.23 2601.47,1205.23"/>
<polyline class="BarLine" stroke="#000000" stroke-width="4.00" stroke-linejoin="bevel" points="2810.97,1103.23 2810.97,1205.23"/>
<polyline class="BarLine" stroke="#000000" stroke-width="12.50" stroke-linejoin="bevel" points="2829.22,1103.23 2829.22,1205.23"/>
<polyline class="BarLine" stroke="#000000" stroke-width="4.00" stroke-linejoin="bevel" points="336.232,840.733 336.232,1104.23"/>
<polyline class="BarLine" stroke="#000000" stroke-width="4.00" stroke-linejoin="bevel" points="684.158,840.733 684.158,942.733"/>
<polyline class="BarLine" stroke="#000000" stroke-width="4.00" stroke-linejoin="bevel" points="916.154,840.733 916.154,942.733"/>
<polyline class="BarLine" stroke="#000000" stroke-width="4.00" stroke-linejoin="bevel" points="1148.15,840.733 1148.15,942.733"/>
<polyline class="BarLine" stroke="#000000" stroke-width="4.00" stroke-linejoin="bevel" points="1380.15,840.733 1380.15,942.733"/>
<polyline class="BarLine" stroke="#000000" stroke-width="4.00" stroke-linejoin="bevel" points="1668.68,840.733 1668.68,942.733"/>
<polyline class="BarLine" stroke="#000000" stroke-width="4.00" stroke-linejoin="bevel" points="1900.68,840.733 1900.68,942.733"/>
<polyline class="BarLine" stroke="#000000" stroke-width="4.00" stroke-linejoin="bevel" points="2135.08,840.733 2135.08,942.733"/>
<polyline class="BarLine" stroke="#000000" stroke-width="4.00" stroke-linejoin="bevel" points="2369.48,840.733 2369.48,942.733"/>
<polyline class="BarLine" stroke="#000000" stroke-width="4.00" stroke-linejoin="bevel" points="2601.47,840.733 2601.47,942.733"/>
<polyline class="BarLine" stroke="#000000" stroke-width="4.00" stroke-linejoin="bevel" points="2810.97,840.733 2810.97,942.733"/>
<polyline class="BarLine" stroke="#000000" stroke-width="12.50" stroke-linejoin="bevel" points="2829.22,840.733 2829.22,942.733"/>
<polyline class="BarLine" stroke="#000000" stroke-width="4.00" stroke-linejoin="bevel" points="336.232,578.233 336.232,841.733"/>
<polyline class="BarLine" stroke="#000000" stroke-width="4.00" stroke-linejoin="bevel" points="684.158,578.233 684.158,680.233"/>
<polyline class="BarLine" stroke="#000000" stroke-width="4.00" stroke-linejoin="bevel" points="916.154,578.233 916.154,680.233"/>
<polyline class="BarLine" stroke="#000000" stroke-width="4.00" stroke-linejoin="bevel" points="1148.15,578.233 1148.15,680.233"/>
<polyline class="BarLine" stroke="#000000" stroke-width="4.00" stroke-linejoin="bevel" points="1380.15,578.233 1380.15,680.233"/>
<polyline class="BarLine" stroke="#000000" stroke-width="4.00" stroke-linejoin="bevel" points="1668.68,578.233 1668.68,680.233"/>
<polyline class="BarLine" stroke="#000000" stroke-width="4.00" stroke-linejoin="bevel" points="1900.68,578.233 1900.68,680.233"/>
<polyline class="BarLine" stroke="#000000" stroke-width="4.00" stroke-linejoin="bevel" points="2135.08,578.233 2135.08,680.233"/>
<polyline class="BarLine" stroke="#000000" stroke-width="4.00" stroke-linejoin="bevel" points="2369.48,578.233 2369.48,680.233"/>
<polyline class="BarLine" stroke="#000000" stroke-width="4.00" stroke-linejoin="bevel" points="2601.47,578.233 2601.47,680.233"/>
<polyline class="BarLine" stroke="#000000" stroke-width="4.00" stroke-linejoin="bevel" points="2810.97,578.233 2810.97,680.233"/>
<polyline class="BarLine" stroke="#000000" stroke-width="12.50" stroke-linejoin="bevel" points="2829.22,578.233 2829.22,680.233"/>
<polyline class="BarLine" stroke="#000000" stroke-width="4.00" stroke-linejoin="bevel" points="336.232,315.732 336.232,579.233"/>
<polyline class="BarLine" stroke="#000000" stroke-width="4.00" stroke-linejoin="bevel" points="684.158,315.732 684.158,579.233"/>
<polyline class="BarLine" stroke="#000000" stroke-width="4.00" stroke-linejoin="bevel" points="916.154,315.732 916.154,579.233"/>
<polyline class="BarLine" stroke="#000000" stroke-width="4.00" stroke-linejoin="bevel" points="1148.15,315.732 1148.15,579.233"/>
<polyline class="BarLine" stroke="#000000" stroke-width="4.00" stroke-linejoin="bevel" points="1380.15,315.732 1380.15,579.233"/>
<polyline class="BarLine" stroke="#000000" stroke-width="4.00" stroke-linejoin="bevel" points="1668.68,315.732 1668.68,579.233"/>
<polyline class="BarLine" stroke="#000000" stroke-width="4.00" stroke-linejoin="bevel" points="1900.68,315.732 1900.68,579.233"/>
<polyline class="BarLine" stroke="#000000" stroke-width="4.00" stroke-linejoin="bevel" points="2135.08,315.732 2135.08,579.233"/>
<polyline class="BarLine" stroke="#000000" stroke-width="4.00" stroke-linejoin="bevel" points="2369.48,315.732 2369.48,579.233"/>
<polyline class="BarLine" stroke="#000000" stroke-width="4.00" stroke-linejoin="bevel" points="2601.47,315.732 2601.47,579.233"/>
<polyline class="BarLine" stroke="#000000" stroke-width="4.00" stroke-linejoin="bevel" points="2810.97,315.732 2810.97,579.233"/>
<polyline class="BarLine" stroke="#000000" stroke-width="12.50" stroke-linejoin="bevel" points="2829.22,315.732 2829.22,579.233"/>
<path class="Note" d="M1949.16,380.498 C1946.82,380.498 1945.13,381.311 1944.08,382.936 C1942.92,384.498 1942.33,386.618 1942.33,389.295 C1942.33,392.357 1943.15,394.993 1944.77,397.201 C1946.4,399.347 1948.19,400.847 1950.15,401.701 C1951.9,402.545 1953.75,402.967 1955.71,402.967 C1957.99,402.967 1959.71,402.154 1960.88,400.529 C1961.98,398.894 1962.54,396.774 1962.54,394.17 C1962.54,391.107 1961.72,388.472 1960.1,386.264 C1958.47,384.18 1956.72,382.68 1954.83,381.764 C1952.94,380.92 1951.05,380.498 1949.16,380.498 M1952.49,377.967 C1959.52,377.967 1965.38,379.331 1970.07,382.061 C1974.82,384.8 1977.19,388.024 1977.19,391.732 C1977.19,395.701 1974.75,398.956 1969.87,401.498 C1964.98,404.165 1959.19,405.498 1952.49,405.498 C1945.58,405.498 1939.72,404.133 1934.91,401.404 C1930.09,398.665 1927.68,395.441 1927.68,391.732 C1927.68,387.764 1930.15,384.508 1935.1,381.967 C1939.98,379.3 1945.78,377.967 1952.49,377.967"/>
<path class="Note" d="M2183.56,380.498 C2181.22,380.498 2179.52,381.311 2178.48,382.936 C2177.32,384.498 2176.73,386.618 2176.73,389.295 C2176.73,392.357 2177.55,394.993 2179.17,397.201 C2180.8,399.347 2182.59,400.847 2184.55,401.701 C2186.3,402.545 2188.15,402.967 2190.11,402.967 C2192.39,402.967 2194.11,402.154 2195.28,400.529 C2196.38,398.894 2196.94,396.774 2196.94,394.17 C2196.94,391.107 2196.12,388.472 2194.5,386.264 C2192.87,384.18 2191.12,382.68 2189.23,381.764 C2187.34,380.92 2185.45,380.498 2183.56,380.498 M2186.89,377.967 C2193.92,377.967 2199.78,379.331 2204.47,382.061 C2209.22,384.8 2211.59,388.024 2211.59,391.732 C2211.59,395.701 2209.15,398.956 2204.26,401.498 C2199.38,404.165 2193.59,405.498 2186.89,405.498 C2179.98,405.498 2174.12,404.133 2169.31,401.404 C2164.49,398.665 2162.08,395.441 2162.08,391.732 C2162.08,387.764 2164.55,384.508 2169.5,381.967 C2174.38,379.3 2180.18,377.967 2186.89,377.967"/>
<path class="Clef" d="M396.225,1416.14 C396.225,1416.14 396.422,1416.14 396.818,1416.14 C397.079,1416.08 397.303,1416.05 397.49,1416.05 C404.782,1416.05 410.771,1418.62 415.459,1423.76 C420.146,1428.84 422.49,1434.76 422.49,1441.53 C422.49,1449.94 419.011,1456.77 412.053,1462.05 C410.23,1463.48 407.85,1464.65 404.912,1465.56 C405.245,1469.79 405.412,1473.21 405.412,1475.81 C405.412,1476.33 405.344,1478.22 405.209,1481.48 C404.948,1487.54 402.865,1492.77 398.959,1497.2 C395.188,1501.57 390.501,1503.75 384.896,1503.75 C379.626,1503.75 375.136,1501.89 371.428,1498.19 C367.709,1494.4 365.85,1489.85 365.85,1484.51 C365.85,1481.71 366.928,1479.33 369.084,1477.37 C371.292,1475.43 373.86,1474.45 376.787,1474.45 C379.391,1474.45 381.573,1475.46 383.334,1477.48 C385.157,1479.37 386.068,1481.71 386.068,1484.51 C386.068,1487.05 385.157,1489.22 383.334,1491.05 C381.511,1492.87 379.329,1493.78 376.787,1493.78 C375.745,1493.78 374.74,1493.59 373.771,1493.2 C376.636,1497.43 380.443,1499.55 385.193,1499.55 C389.683,1499.55 393.36,1497.72 396.225,1494.08 C399.225,1490.31 400.855,1485.91 401.115,1480.89 C401.24,1477.76 401.303,1475.98 401.303,1475.53 C401.303,1471.88 401.172,1468.89 400.912,1466.55 C397.662,1467.07 394.766,1467.33 392.225,1467.33 C383.172,1467.33 375.459,1463.74 369.084,1456.58 C362.834,1449.35 359.709,1440.75 359.709,1430.8 C359.709,1428.71 359.902,1426.6 360.287,1424.45 C360.683,1422.69 361.172,1420.77 361.756,1418.69 C362.079,1417.51 362.959,1415.62 364.396,1413.01 C364.917,1412.23 365.503,1411.26 366.154,1410.08 C366.805,1408.91 367.261,1408.13 367.521,1407.75 C368.167,1406.45 369.433,1404.69 371.318,1402.47 C371.839,1401.88 372.378,1401.24 372.935,1400.52 C373.493,1399.81 373.967,1399.22 374.357,1398.76 C374.748,1398.31 375.04,1397.95 375.232,1397.69 C375.425,1397.43 376.891,1395.7 379.631,1392.51 C380.277,1391.86 380.909,1391.16 381.529,1390.41 C382.149,1389.67 382.654,1389.08 383.045,1388.65 C383.435,1388.23 383.73,1387.92 383.928,1387.73 C381.584,1379.98 380.115,1373.8 379.521,1369.17 C379.073,1365.46 378.85,1360.38 378.85,1353.94 C378.85,1348.27 380.152,1342.96 382.756,1338.01 C385.287,1332.88 388.834,1328.68 393.396,1325.42 C393.657,1325.22 393.98,1325.12 394.365,1325.12 C394.823,1325.12 395.152,1325.22 395.35,1325.42 C398.86,1329.65 401.886,1335.15 404.428,1341.92 C407.032,1348.69 408.334,1354.85 408.334,1360.39 C408.334,1366.64 406.839,1372.5 403.85,1377.97 C400.464,1383.76 396.1,1389.75 390.756,1395.94 C392.12,1400.23 393.943,1406.96 396.225,1416.14 M404.521,1461.56 C407.907,1460.32 410.547,1458.21 412.443,1455.22 C414.527,1452.35 415.568,1449.13 415.568,1445.55 C415.568,1440.92 414.006,1436.82 410.881,1433.23 C407.683,1429.52 403.61,1427.44 398.662,1426.98 C401.464,1440.72 403.417,1452.25 404.521,1461.56 M366.74,1439 C366.74,1445.45 369.344,1451.11 374.553,1456 C379.886,1460.75 385.876,1463.12 392.521,1463.12 C395.251,1463.12 397.917,1462.93 400.521,1462.53 C399.48,1452.63 397.428,1440.79 394.365,1426.98 C390.657,1427.38 387.698,1428.68 385.49,1430.89 C383.334,1433.17 382.256,1435.74 382.256,1438.61 C382.256,1443.56 384.896,1447.56 390.178,1450.62 C390.626,1451.08 390.85,1451.57 390.85,1452.09 C390.85,1452.61 390.626,1453.1 390.178,1453.55 C389.782,1454 389.292,1454.23 388.709,1454.23 C388.646,1454.23 388.355,1454.17 387.834,1454.05 C384.115,1452.02 381.251,1449.42 379.24,1446.23 C377.344,1442.84 376.396,1439.42 376.396,1435.97 C376.396,1431.48 377.797,1427.41 380.6,1423.76 C383.527,1420.12 387.334,1417.77 392.021,1416.73 C390.198,1409.44 388.704,1403.74 387.537,1399.64 C386.495,1400.82 385.243,1402.23 383.779,1403.89 C382.316,1405.55 381.454,1406.54 381.193,1406.87 C378.85,1409.93 377.058,1412.3 375.818,1414 C373.6,1417.06 371.969,1419.7 370.928,1421.9 C369.823,1424.38 368.85,1427.09 368.006,1430.01 C367.162,1432.82 366.74,1435.81 366.74,1439 M399.35,1339.69 C394.464,1342.09 390.626,1345.54 387.834,1350.03 C384.969,1354.65 383.537,1359.63 383.537,1364.97 C383.537,1369.65 384.709,1375.97 387.053,1383.92 C391.74,1378.25 395.256,1373.01 397.6,1368.2 C400.068,1363.12 401.303,1357.81 401.303,1352.28 C401.303,1348.11 400.652,1343.92 399.35,1339.69 M388.615,1517.9 C390.303,1516.22 391.146,1514.52 391.146,1512.83 C391.021,1511.46 390.438,1510.42 389.396,1509.7 C388.219,1508.92 386.85,1508.53 385.287,1508.53 C384.183,1508.53 383.271,1508.89 382.553,1509.61 C381.907,1510.25 381.584,1511.07 381.584,1512.05 C381.584,1513.22 382.068,1514.1 383.037,1514.69 L388.615,1517.9 M390.178,1518.78 C392.907,1520.28 394.271,1522.3 394.271,1524.84 L394.271,1525.14 C394.271,1527.15 393.459,1528.84 391.834,1530.22 C390.209,1531.64 387.896,1532.36 384.896,1532.36 C382.428,1532.36 380.282,1531.71 378.459,1530.4 C376.636,1529.17 375.725,1527.47 375.725,1525.33 C375.725,1524.48 375.948,1523.7 376.396,1522.98 C376.917,1522.14 377.344,1521.56 377.678,1521.23 C377.74,1521.16 377.886,1521.01 378.115,1520.79 C378.344,1520.56 378.571,1520.34 378.795,1520.11 C379.019,1519.88 379.261,1519.63 379.521,1519.37 C377.511,1518.01 376.506,1516.22 376.506,1514 C376.506,1512.24 377.287,1510.68 378.85,1509.31 C380.475,1508.01 382.62,1507.36 385.287,1507.36 C387.506,1507.36 389.396,1507.85 390.959,1508.83 C392.521,1509.81 393.303,1511.14 393.303,1512.83 C393.303,1514.59 392.261,1516.57 390.178,1518.78 M380.99,1520.25 C379.042,1521.95 378.001,1523.64 377.865,1525.33 C378.001,1527.09 378.719,1528.49 380.021,1529.53 C381.448,1530.63 383.073,1531.19 384.896,1531.19 C386.198,1531.19 387.24,1530.76 388.021,1529.92 C388.803,1529.14 389.193,1528.2 389.193,1527.09 C389.131,1525.65 388.547,1524.61 387.443,1523.97 L380.99,1520.25 "/>
<path class="Clef" d="M416.639,1120.34 C415.665,1119.36 415.178,1118.16 415.178,1116.73 C415.178,1115.29 415.665,1114.09 416.639,1113.12 C417.613,1112.14 418.816,1111.65 420.248,1111.65 C421.68,1111.65 422.886,1112.14 423.865,1113.12 C424.844,1114.09 425.334,1115.29 425.334,1116.73 C425.334,1118.16 424.844,1119.36 423.865,1120.34 C422.886,1121.32 421.68,1121.81 420.248,1121.81 C418.816,1121.81 417.613,1121.32 416.639,1120.34 M416.639,1145.35 C415.665,1144.38 415.178,1143.17 415.178,1141.74 C415.178,1140.31 415.665,1139.1 416.639,1138.12 C417.613,1137.14 418.816,1136.65 420.248,1136.65 C421.68,1136.65 422.886,1137.14 423.865,1138.12 C424.844,1139.1 425.334,1140.31 425.334,1141.74 C425.334,1143.17 424.844,1144.38 423.865,1145.35 C422.886,1146.32 421.68,1146.81 420.248,1146.81 C418.816,1146.81 417.613,1146.32 416.639,1145.35 M382.756,1102.97 C391.412,1102.97 398.506,1105.14 404.037,1109.5 C409.381,1114.06 412.053,1120.25 412.053,1128.06 C412.053,1133.33 411.011,1138.15 408.928,1142.51 C406.969,1147.08 404.396,1151.11 401.209,1154.62 C397.948,1158.21 394.011,1161.59 389.396,1164.78 C384.896,1167.9 380.271,1170.71 375.521,1173.19 C365.823,1178.06 360.485,1180.5 359.506,1180.5 C358.662,1180.5 358.24,1180.08 358.24,1179.23 C358.24,1178.91 358.37,1178.62 358.631,1178.36 C361.954,1176.4 366.021,1173.89 370.834,1170.84 C373.959,1168.82 377.605,1166.02 381.771,1162.44 C385.813,1159.05 388.938,1155.86 391.146,1152.87 C393.428,1149.94 395.511,1146.29 397.396,1141.94 C399.021,1137.57 399.834,1133.27 399.834,1129.03 C399.834,1122.72 398.271,1117.22 395.146,1112.53 C392.021,1107.84 387.891,1105.5 382.756,1105.5 C379.11,1105.5 375.985,1106.67 373.381,1109.01 C370.579,1111.42 368.558,1114.45 367.318,1118.09 C368.558,1117.57 369.698,1117.31 370.74,1117.31 C373.469,1117.31 375.813,1118.29 377.771,1120.25 C379.719,1122.33 380.693,1124.71 380.693,1127.37 C380.693,1130.18 379.751,1132.69 377.865,1134.9 C375.844,1136.92 373.469,1137.92 370.74,1137.92 C367.813,1137.92 365.178,1136.92 362.834,1134.9 C360.615,1132.69 359.506,1130.18 359.506,1127.37 C359.506,1120.67 361.787,1114.94 366.35,1110.19 C370.839,1105.37 376.308,1102.97 382.756,1102.97"/>
<path class="Clef" d="M396.225,891.139 C396.225,891.139 396.422,891.139 396.818,891.139 C397.079,891.077 397.303,891.045 397.49,891.045 C404.782,891.045 410.771,893.618 415.459,898.764 C420.146,903.837 422.49,909.759 422.49,916.53 C422.49,924.936 419.011,931.774 412.053,937.045 C410.23,938.483 407.85,939.655 404.912,940.561 C405.245,944.79 405.412,948.207 405.412,950.811 C405.412,951.332 405.344,953.222 405.209,956.483 C404.948,962.535 402.865,967.774 398.959,972.202 C395.188,976.566 390.501,978.748 384.896,978.748 C379.626,978.748 375.136,976.894 371.428,973.186 C367.709,969.405 365.85,964.847 365.85,959.514 C365.85,956.712 366.928,954.332 369.084,952.373 C371.292,950.425 373.86,949.452 376.787,949.452 C379.391,949.452 381.573,950.462 383.334,952.483 C385.157,954.368 386.068,956.712 386.068,959.514 C386.068,962.045 385.157,964.222 383.334,966.045 C381.511,967.868 379.329,968.78 376.787,968.78 C375.745,968.78 374.74,968.587 373.771,968.202 C376.636,972.431 380.443,974.545 385.193,974.545 C389.683,974.545 393.36,972.722 396.225,969.077 C399.225,965.306 400.855,960.91 401.115,955.889 C401.24,952.764 401.303,950.978 401.303,950.53 C401.303,946.884 401.172,943.889 400.912,941.545 C397.662,942.066 394.766,942.327 392.225,942.327 C383.172,942.327 375.459,938.743 369.084,931.577 C362.834,924.347 359.709,915.754 359.709,905.795 C359.709,903.712 359.902,901.597 360.287,899.452 C360.683,897.691 361.172,895.769 361.756,893.686 C362.079,892.509 362.959,890.618 364.396,888.014 C364.917,887.233 365.503,886.256 366.154,885.084 C366.805,883.912 367.261,883.134 367.521,882.748 C368.167,881.446 369.433,879.686 371.318,877.467 C371.839,876.884 372.378,876.235 372.935,875.522 C373.493,874.808 373.967,874.222 374.357,873.764 C374.748,873.306 375.04,872.946 375.232,872.686 C375.425,872.425 376.891,870.702 379.631,867.514 C380.277,866.858 380.909,866.157 381.529,865.412 C382.149,864.668 382.654,864.082 383.045,863.655 C383.435,863.228 383.73,862.92 383.928,862.733 C381.584,854.983 380.115,848.795 379.521,844.17 C379.073,840.462 378.85,835.384 378.85,828.936 C378.85,823.269 380.152,817.962 382.756,813.014 C385.287,807.879 388.834,803.681 393.396,800.42 C393.657,800.222 393.98,800.123 394.365,800.123 C394.823,800.123 395.152,800.222 395.35,800.42 C398.86,804.649 401.886,810.149 404.428,816.92 C407.032,823.691 408.334,829.847 408.334,835.389 C408.334,841.639 406.839,847.498 403.85,852.967 C400.464,858.759 396.1,864.748 390.756,870.936 C392.12,875.228 393.943,881.962 396.225,891.139 M404.521,936.561 C407.907,935.321 410.547,933.207 412.443,930.217 C414.527,927.353 415.568,924.129 415.568,920.545 C415.568,915.92 414.006,911.816 410.881,908.233 C407.683,904.524 403.61,902.441 398.662,901.983 C401.464,915.722 403.417,927.248 404.521,936.561 M366.74,913.998 C366.74,920.446 369.344,926.113 374.553,930.998 C379.886,935.748 385.876,938.123 392.521,938.123 C395.251,938.123 397.917,937.925 400.521,937.53 C399.48,927.634 397.428,915.785 394.365,901.983 C390.657,902.379 387.698,903.681 385.49,905.889 C383.334,908.17 382.256,910.743 382.256,913.608 C382.256,918.556 384.896,922.561 390.178,925.623 C390.626,926.082 390.85,926.571 390.85,927.092 C390.85,927.613 390.626,928.097 390.178,928.545 C389.782,929.004 389.292,929.233 388.709,929.233 C388.646,929.233 388.355,929.17 387.834,929.045 C384.115,927.024 381.251,924.42 379.24,921.233 C377.344,917.837 376.396,914.415 376.396,910.967 C376.396,906.478 377.797,902.41 380.6,898.764 C383.527,895.118 387.334,892.774 392.021,891.733 C390.198,884.441 388.704,878.743 387.537,874.639 C386.495,875.816 385.243,877.233 383.779,878.889 C382.316,880.545 381.454,881.54 381.193,881.873 C378.85,884.925 377.058,887.3 375.818,888.998 C373.6,892.061 371.969,894.696 370.928,896.905 C369.823,899.384 368.85,902.087 368.006,905.014 C367.162,907.816 366.74,910.811 366.74,913.998 M399.35,814.686 C394.464,817.092 390.626,820.54 387.834,825.03 C384.969,829.655 383.537,834.634 383.537,839.967 C383.537,844.655 384.709,850.972 387.053,858.92 C391.74,853.254 395.256,848.014 397.6,843.202 C400.068,838.118 401.303,832.811 401.303,827.28 C401.303,823.113 400.652,818.915 399.35,814.686"/>
<path class="Clef" d="M416.639,595.342 C415.665,594.363 415.178,593.157 415.178,591.725 C415.178,590.292 415.665,589.089 416.639,588.115 C417.613,587.141 418.816,586.654 420.248,586.654 C421.68,586.654 422.886,587.141 423.865,588.115 C424.844,589.089 425.334,590.292 425.334,591.725 C425.334,593.157 424.844,594.363 423.865,595.342 C422.886,596.321 421.68,596.811 420.248,596.811 C418.816,596.811 417.613,596.321 416.639,595.342 M416.639,620.35 C415.665,619.376 415.178,618.173 415.178,616.74 C415.178,615.308 415.665,614.102 416.639,613.123 C417.613,612.144 418.816,611.654 420.248,611.654 C421.68,611.654 422.886,612.144 423.865,613.123 C424.844,614.102 425.334,615.308 425.334,616.74 C425.334,618.173 424.844,619.376 423.865,620.35 C422.886,621.324 421.68,621.811 420.248,621.811 C418.816,621.811 417.613,621.324 416.639,620.35 M382.756,577.967 C391.412,577.967 398.506,580.144 404.037,584.498 C409.381,589.061 412.053,595.248 412.053,603.061 C412.053,608.332 411.011,613.149 408.928,617.514 C406.969,622.076 404.396,626.113 401.209,629.623 C397.948,633.207 394.011,636.592 389.396,639.779 C384.896,642.904 380.271,645.707 375.521,648.186 C365.823,653.061 360.485,655.498 359.506,655.498 C358.662,655.498 358.24,655.076 358.24,654.233 C358.24,653.91 358.37,653.618 358.631,653.358 C361.954,651.399 366.021,648.894 370.834,645.842 C373.959,643.821 377.605,641.019 381.771,637.436 C385.813,634.05 388.938,630.863 391.146,627.873 C393.428,624.936 395.511,621.29 397.396,616.936 C399.021,612.571 399.834,608.269 399.834,604.029 C399.834,597.717 398.271,592.217 395.146,587.529 C392.021,582.842 387.891,580.498 382.756,580.498 C379.11,580.498 375.985,581.67 373.381,584.014 C370.579,586.42 368.558,589.446 367.318,593.092 C368.558,592.571 369.698,592.311 370.74,592.311 C373.469,592.311 375.813,593.29 377.771,595.248 C379.719,597.332 380.693,599.707 380.693,602.373 C380.693,605.175 379.751,607.686 377.865,609.904 C375.844,611.915 373.469,612.92 370.74,612.92 C367.813,612.92 365.178,611.915 362.834,609.904 C360.615,607.686 359.506,605.175 359.506,602.373 C359.506,595.665 361.787,589.936 366.35,585.186 C370.839,580.373 376.308,577.967 382.756,577.967 M386.068,558.326 C387.766,556.503 388.615,554.811 388.615,553.248 C388.48,551.821 387.891,550.748 386.85,550.029 C385.683,549.248 384.318,548.858 382.756,548.858 C381.641,548.858 380.73,549.217 380.021,549.936 C379.365,550.582 379.037,551.394 379.037,552.373 C379.037,553.55 379.527,554.43 380.506,555.014 L386.068,558.326 M387.631,559.108 C390.37,560.608 391.74,562.66 391.74,565.264 L391.74,565.561 C391.74,567.509 390.922,569.17 389.287,570.545 C387.662,571.972 385.355,572.686 382.365,572.686 C379.886,572.686 377.735,572.035 375.912,570.733 C374.089,569.493 373.178,567.832 373.178,565.748 C373.178,564.842 373.407,564.029 373.865,563.311 C374.386,562.467 374.808,561.884 375.131,561.561 C375.193,561.488 375.339,561.339 375.568,561.115 C375.797,560.891 376.027,560.665 376.256,560.436 C376.485,560.207 376.73,559.962 376.99,559.701 C374.969,558.337 373.959,556.576 373.959,554.42 C373.959,552.597 374.74,551.003 376.303,549.639 C377.928,548.337 380.079,547.686 382.756,547.686 C384.964,547.686 386.85,548.175 388.412,549.154 C389.975,550.134 390.756,551.498 390.756,553.248 C390.756,554.946 389.714,556.899 387.631,559.108 M378.459,560.576 C376.501,562.274 375.459,563.998 375.334,565.748 C375.459,567.446 376.172,568.816 377.475,569.858 C378.912,570.962 380.542,571.514 382.365,571.514 C383.667,571.514 384.709,571.092 385.49,570.248 C386.271,569.467 386.662,568.488 386.662,567.311 C386.527,565.946 385.938,564.941 384.896,564.295 L378.459,560.576 "/>
<path class="Clef" d="M398.381,255.014 C400.068,253.191 400.912,251.498 400.912,249.936 C400.787,248.571 400.204,247.529 399.162,246.811 C397.985,246.029 396.615,245.639 395.053,245.639 C393.948,245.639 393.037,245.998 392.318,246.717 C391.672,247.363 391.35,248.175 391.35,249.154 C391.35,250.321 391.834,251.201 392.803,251.795 L398.381,255.014 M399.943,255.889 C402.672,257.389 404.037,259.41 404.037,261.951 C404.037,261.951 404.037,262.045 404.037,262.232 C404.037,264.253 403.225,265.946 401.6,267.311 C399.975,268.748 397.662,269.467 394.662,269.467 C392.193,269.467 390.047,268.816 388.225,267.514 C386.402,266.274 385.49,264.581 385.49,262.436 C385.49,261.592 385.714,260.811 386.162,260.092 C386.683,259.248 387.11,258.66 387.443,258.326 C387.506,258.264 387.652,258.118 387.881,257.889 C388.11,257.66 388.336,257.433 388.56,257.209 C388.784,256.985 389.027,256.743 389.287,256.482 C387.277,255.107 386.271,253.316 386.271,251.107 C386.271,249.347 387.053,247.785 388.615,246.42 C390.24,245.118 392.386,244.467 395.053,244.467 C397.271,244.467 399.162,244.954 400.725,245.928 C402.287,246.902 403.068,248.238 403.068,249.936 C403.068,251.696 402.027,253.68 399.943,255.889 M390.756,257.357 C388.808,259.118 387.766,260.811 387.631,262.436 C387.631,264.123 388.347,265.522 389.779,266.631 C391.211,267.74 392.839,268.295 394.662,268.295 C395.964,268.295 397.006,267.873 397.787,267.029 C398.568,266.248 398.959,265.3 398.959,264.186 C398.896,262.758 398.313,261.717 397.209,261.061 L390.756,257.357 M396.225,366.139 C396.225,366.139 396.422,366.139 396.818,366.139 C397.079,366.076 397.303,366.045 397.49,366.045 C404.782,366.045 410.771,368.618 415.459,373.764 C420.146,378.837 422.49,384.758 422.49,391.529 C422.49,399.936 419.011,406.774 412.053,412.045 C410.23,413.482 407.85,414.654 404.912,415.561 C405.245,419.79 405.412,423.206 405.412,425.811 C405.412,426.331 405.344,428.222 405.209,431.482 C404.948,437.535 402.865,442.774 398.959,447.201 C395.188,451.566 390.501,453.748 384.896,453.748 C379.626,453.748 375.136,451.894 371.428,448.186 C367.709,444.404 365.85,439.847 365.85,434.514 C365.85,431.712 366.928,429.331 369.084,427.373 C371.292,425.425 373.86,424.451 376.787,424.451 C379.391,424.451 381.573,425.462 383.334,427.482 C385.157,429.368 386.068,431.712 386.068,434.514 C386.068,437.045 385.157,439.222 383.334,441.045 C381.511,442.868 379.329,443.779 376.787,443.779 C375.745,443.779 374.74,443.587 373.771,443.201 C376.636,447.43 380.443,449.545 385.193,449.545 C389.683,449.545 393.36,447.722 396.225,444.076 C399.225,440.305 400.855,435.91 401.115,430.889 C401.24,427.764 401.303,425.977 401.303,425.529 C401.303,421.883 401.172,418.889 400.912,416.545 C397.662,417.066 394.766,417.326 392.225,417.326 C383.172,417.326 375.459,413.743 369.084,406.576 C362.834,399.347 359.709,390.753 359.709,380.795 C359.709,378.712 359.902,376.597 360.287,374.451 C360.683,372.691 361.172,370.769 361.756,368.686 C362.079,367.508 362.959,365.618 364.396,363.014 C364.917,362.232 365.503,361.256 366.154,360.084 C366.805,358.912 367.261,358.133 367.521,357.748 C368.167,356.446 369.433,354.686 371.318,352.467 C371.839,351.883 372.378,351.235 372.935,350.522 C373.493,349.808 373.967,349.222 374.357,348.764 C374.748,348.305 375.04,347.946 375.232,347.686 C375.425,347.425 376.891,345.701 379.631,342.514 C380.277,341.857 380.909,341.157 381.529,340.412 C382.149,339.667 382.654,339.081 383.045,338.654 C383.435,338.227 383.73,337.92 383.928,337.732 C381.584,329.982 380.115,323.795 379.521,319.17 C379.073,315.462 378.85,310.383 378.85,303.936 C378.85,298.269 380.152,292.962 382.756,288.014 C385.287,282.878 388.834,278.68 393.396,275.42 C393.657,275.222 393.98,275.123 394.365,275.123 C394.823,275.123 395.152,275.222 395.35,275.42 C398.86,279.649 401.886,285.149 404.428,291.92 C407.032,298.691 408.334,304.847 408.334,310.389 C408.334,316.639 406.839,322.498 403.85,327.967 C400.464,333.758 396.1,339.748 390.756,345.936 C392.12,350.227 393.943,356.962 396.225,366.139 M404.521,411.561 C407.907,410.321 410.547,408.206 412.443,405.217 C414.527,402.352 415.568,399.128 415.568,395.545 C415.568,390.92 414.006,386.816 410.881,383.232 C407.683,379.524 403.61,377.441 398.662,376.982 C401.464,390.722 403.417,402.248 404.521,411.561 M366.74,388.998 C366.74,395.446 369.344,401.113 374.553,405.998 C379.886,410.748 385.876,413.123 392.521,413.123 C395.251,413.123 397.917,412.925 400.521,412.529 C399.48,402.633 397.428,390.785 394.365,376.982 C390.657,377.378 387.698,378.68 385.49,380.889 C383.334,383.17 382.256,385.743 382.256,388.607 C382.256,393.555 384.896,397.561 390.178,400.623 C390.626,401.081 390.85,401.571 390.85,402.092 C390.85,402.613 390.626,403.097 390.178,403.545 C389.782,404.003 389.292,404.232 388.709,404.232 C388.646,404.232 388.355,404.17 387.834,404.045 C384.115,402.024 381.251,399.42 379.24,396.232 C377.344,392.837 376.396,389.415 376.396,385.967 C376.396,381.477 377.797,377.41 380.6,373.764 C383.527,370.118 387.334,367.774 392.021,366.732 C390.198,359.441 388.704,353.743 387.537,349.639 C386.495,350.816 385.243,352.232 383.779,353.889 C382.316,355.545 381.454,356.54 381.193,356.873 C378.85,359.925 377.058,362.3 375.818,363.998 C373.6,367.061 371.969,369.696 370.928,371.904 C369.823,374.383 368.85,377.087 368.006,380.014 C367.162,382.816 366.74,385.811 366.74,388.998 M399.35,289.686 C394.464,292.092 390.626,295.54 387.834,300.029 C384.969,304.654 383.537,309.633 383.537,314.967 C383.537,319.654 384.709,325.972 387.053,333.92 C391.74,328.253 395.256,323.014 397.6,318.201 C400.068,313.118 401.303,307.811 401.303,302.279 C401.303,298.113 400.652,293.915 399.35,289.686"/>
<path class="KeySig" d="M1466.22,1385.39 C1466.22,1386.63 1465.61,1387.25 1464.37,1387.25 C1463.14,1387.25 1462.52,1386.63 1462.52,1385.39 L1462.52,1370.94 L1454.22,1374.06 L1454.22,1389.87 C1454.22,1391.11 1453.6,1391.73 1452.37,1391.73 C1451.13,1391.73 1450.51,1391.11 1450.51,1389.87 L1450.51,1375.33 L1447.38,1376.5 C1447.32,1376.56 1447.06,1376.59 1446.6,1376.59 C1446.08,1376.59 1445.62,1376.4 1445.23,1376.01 C1444.84,1375.62 1444.65,1375.16 1444.65,1374.64 L1444.65,1368.59 C1444.65,1367.61 1445.07,1366.99 1445.91,1366.73 L1450.51,1365.17 L1450.51,1349.15 L1447.38,1350.23 C1447.32,1350.3 1447.06,1350.33 1446.6,1350.33 C1446.08,1350.33 1445.62,1350.13 1445.23,1349.74 C1444.84,1349.35 1444.65,1348.89 1444.65,1348.37 L1444.65,1342.31 C1444.65,1341.4 1445.07,1340.82 1445.91,1340.56 L1450.51,1338.8 L1450.51,1323.08 C1450.51,1321.84 1451.13,1321.22 1452.37,1321.22 C1453.6,1321.22 1454.22,1321.84 1454.22,1323.08 L1454.22,1337.53 L1462.52,1334.4 L1462.52,1318.59 C1462.52,1317.35 1463.14,1316.73 1464.37,1316.73 C1465.61,1316.73 1466.22,1317.35 1466.22,1318.59 L1466.22,1333.14 L1469.46,1331.97 C1469.52,1331.9 1469.75,1331.87 1470.13,1331.87 C1470.59,1331.87 1471.08,1332.07 1471.6,1332.45 C1472,1332.85 1472.19,1333.31 1472.19,1333.83 L1472.19,1339.87 C1472.19,1340.79 1471.73,1341.41 1470.82,1341.73 L1466.22,1343.3 L1466.22,1359.31 L1469.46,1358.23 C1469.52,1358.17 1469.75,1358.14 1470.13,1358.14 C1470.59,1358.14 1471.08,1358.34 1471.6,1358.73 C1472,1359.12 1472.19,1359.57 1472.19,1360.09 L1472.19,1366.15 C1472.19,1367 1471.73,1367.58 1470.82,1367.9 L1466.22,1369.67 L1466.22,1385.39 M1462.52,1344.76 L1454.22,1347.69 L1454.22,1363.7 L1462.52,1360.78 L1462.52,1344.76 "/>
<path class="KeySig" d="M1441.22,1435.39 C1441.22,1436.63 1440.61,1437.25 1439.37,1437.25 C1438.14,1437.25 1437.52,1436.63 1437.52,1435.39 L1437.52,1420.94 L1429.22,1424.06 L1429.22,1439.87 C1429.22,1441.11 1428.6,1441.73 1427.37,1441.73 C1426.13,1441.73 1425.51,1441.11 1425.51,1439.87 L1425.51,1425.33 L1422.38,1426.5 C1422.32,1426.56 1422.06,1426.59 1421.6,1426.59 C1421.08,1426.59 1420.62,1426.4 1420.23,1426.01 C1419.84,1425.62 1419.65,1425.16 1419.65,1424.64 L1419.65,1418.59 C1419.65,1417.61 1420.07,1416.99 1420.91,1416.73 L1425.51,1415.17 L1425.51,1399.15 L1422.38,1400.23 C1422.32,1400.3 1422.06,1400.33 1421.6,1400.33 C1421.08,1400.33 1420.62,1400.13 1420.23,1399.74 C1419.84,1399.35 1419.65,1398.89 1419.65,1398.37 L1419.65,1392.31 C1419.65,1391.4 1420.07,1390.82 1420.91,1390.56 L1425.51,1388.8 L1425.51,1373.08 C1425.51,1371.84 1426.13,1371.22 1427.37,1371.22 C1428.6,1371.22 1429.22,1371.84 1429.22,1373.08 L1429.22,1387.53 L1437.52,1384.4 L1437.52,1368.59 C1437.52,1367.35 1438.14,1366.73 1439.37,1366.73 C1440.61,1366.73 1441.22,1367.35 1441.22,1368.59 L1441.22,1383.14 L1444.46,1381.97 C1444.52,1381.9 1444.75,1381.87 1445.13,1381.87 C1445.59,1381.87 1446.08,1382.07 1446.6,1382.45 C1447,1382.85 1447.19,1383.31 1447.19,1383.83 L1447.19,1389.87 C1447.19,1390.79 1446.73,1391.41 1445.82,1391.73 L1441.22,1393.3 L1441.22,1409.31 L1444.46,1408.23 C1444.52,1408.17 1444.75,1408.14 1445.13,1408.14 C1445.59,1408.14 1446.08,1408.34 1446.6,1408.73 C1447,1409.12 1447.19,1409.57 1447.19,1410.09 L1447.19,1416.15 C1447.19,1417 1446.73,1417.58 1445.82,1417.9 L1441.22,1419.67 L1441.22,1435.39 M1437.52,1394.76 L1429.22,1397.69 L1429.22,1413.7 L1437.52,1410.78 L1437.52,1394.76 "/>
<path class="KeySig" d="M1416.22,1397.89 C1416.22,1399.13 1415.61,1399.75 1414.37,1399.75 C1413.14,1399.75 1412.52,1399.13 1412.52,1397.89 L1412.52,1383.44 L1404.22,1386.56 L1404.22,1402.37 C1404.22,1403.61 1403.6,1404.23 1402.37,1404.23 C1401.13,1404.23 1400.51,1403.61 1400.51,1402.37 L1400.51,1387.83 L1397.38,1389 C1397.32,1389.06 1397.06,1389.09 1396.6,1389.09 C1396.08,1389.09 1395.62,1388.9 1395.23,1388.51 C1394.84,1388.12 1394.65,1387.66 1394.65,1387.14 L1394.65,1381.09 C1394.65,1380.11 1395.07,1379.49 1395.91,1379.23 L1400.51,1377.67 L1400.51,1361.65 L1397.38,1362.73 C1397.32,1362.8 1397.06,1362.83 1396.6,1362.83 C1396.08,1362.83 1395.62,1362.63 1395.23,1362.24 C1394.84,1361.85 1394.65,1361.39 1394.65,1360.87 L1394.65,1354.81 C1394.65,1353.9 1395.07,1353.32 1395.91,1353.06 L1400.51,1351.3 L1400.51,1335.58 C1400.51,1334.34 1401.13,1333.72 1402.37,1333.72 C1403.6,1333.72 1404.22,1334.34 1404.22,1335.58 L1404.22,1350.03 L1412.52,1346.9 L1412.52,1331.09 C1412.52,1329.85 1413.14,1329.23 1414.37,1329.23 C1415.61,1329.23 1416.22,1329.85 1416.22,1331.09 L1416.22,1345.64 L1419.46,1344.47 C1419.52,1344.4 1419.75,1344.37 1420.13,1344.37 C1420.59,1344.37 1421.08,1344.57 1421.6,1344.95 C1422,1345.35 1422.19,1345.81 1422.19,1346.33 L1422.19,1352.37 C1422.19,1353.29 1421.73,1353.91 1420.82,1354.23 L1416.22,1355.8 L1416.22,1371.81 L1419.46,1370.73 C1419.52,1370.67 1419.75,1370.64 1420.13,1370.64 C1420.59,1370.64 1421.08,1370.84 1421.6,1371.23 C1422,1371.62 1422.19,1372.07 1422.19,1372.59 L1422.19,1378.65 C1422.19,1379.5 1421.73,1380.08 1420.82,1380.4 L1416.22,1382.17 L1416.22,1397.89 M1412.52,1357.26 L1404.22,1360.19 L1404.22,1376.2 L1412.52,1373.28 L1412.52,1357.26 "/>
<path class="KeySig" d="M1466.22,1147.89 C1466.22,1149.13 1465.61,1149.75 1464.37,1149.75 C1463.14,1149.75 1462.52,1149.13 1462.52,1147.89 L1462.52,1133.44 L1454.22,1136.56 L1454.22,1152.37 C1454.22,1153.61 1453.6,1154.23 1452.37,1154.23 C1451.13,1154.23 1450.51,1153.61 1450.51,1152.37 L1450.51,1137.83 L1447.38,1139 C1447.32,1139.06 1447.06,1139.09 1446.6,1139.09 C1446.08,1139.09 1445.62,1138.9 1445.23,1138.51 C1444.84,1138.12 1444.65,1137.66 1444.65,1137.14 L1444.65,1131.09 C1444.65,1130.11 1445.07,1129.49 1445.91,1129.23 L1450.51,1127.67 L1450.51,1111.65 L1447.38,1112.73 C1447.32,1112.8 1447.06,1112.83 1446.6,1112.83 C1446.08,1112.83 1445.62,1112.63 1445.23,1112.24 C1444.84,1111.85 1444.65,1111.39 1444.65,1110.87 L1444.65,1104.81 C1444.65,1103.9 1445.07,1103.32 1445.91,1103.06 L1450.51,1101.3 L1450.51,1085.58 C1450.51,1084.34 1451.13,1083.72 1452.37,1083.72 C1453.6,1083.72 1454.22,1084.34 1454.22,1085.58 L1454.22,1100.03 L1462.52,1096.9 L1462.52,1081.09 C1462.52,1079.85 1463.14,1079.23 1464.37,1079.23 C1465.61,1079.23 1466.22,1079.85 1466.22,1081.09 L1466.22,1095.64 L1469.46,1094.47 C1469.52,1094.4 1469.75,1094.37 1470.13,1094.37 C1470.59,1094.37 1471.08,1094.57 1471.6,1094.95 C1472,1095.35 1472.19,1095.81 1472.19,1096.33 L1472.19,1102.37 C1472.19,1103.29 1471.73,1103.91 1470.82,1104.23 L1466.22,1105.8 L1466.22,1121.81 L1469.46,1120.73 C1469.52,1120.67 1469.75,1120.64 1470.13,1120.64 C1470.59,1120.64 1471.08,1120.84 1471.6,1121.23 C1472,1121.62 1472.19,1122.07 1472.19,1122.59 L1472.19,1128.65 C1472.19,1129.5 1471.73,1130.08 1470.82,1130.4 L1466.22,1132.17 L1466.22,1147.89 M1462.52,1107.26 L1454.22,1110.19 L1454.22,1126.2 L1462.52,1123.28 L1462.52,1107.26 "/>
<path class="KeySig" d="M1441.22,1197.89 C1441.22,1199.13 1440.61,1199.75 1439.37,1199.75 C1438.14,1199.75 1437.52,1199.13 1437.52,1197.89 L1437.52,1183.44 L1429.22,1186.56 L1429.22,1202.37 C1429.22,1203.61 1428.6,1204.23 1427.37,1204.23 C1426.13,1204.23 1425.51,1203.61 1425.51,1202.37 L1425.51,1187.83 L1422.38,1189 C1422.32,1189.06 1422.06,1189.09 1421.6,1189.09 C1421.08,1189.09 1420.62,1188.9 1420.23,1188.51 C1419.84,1188.12 1419.65,1187.66 1419.65,1187.14 L1419.65,1181.09 C1419.65,1180.11 1420.07,1179.49 1420.91,1179.23 L1425.51,1177.67 L1425.51,1161.65 L1422.38,1162.73 C1422.32,1162.8 1422.06,1162.83 1421.6,1162.83 C1421.08,1162.83 1420.62,1162.63 1420.23,1162.24 C1419.84,1161.85 1419.65,1161.39 1419.65,1160.87 L1419.65,1154.81 C1419.65,1153.9 1420.07,1153.32 1420.91,1153.06 L1425.51,1151.3 L1425.51,1135.58 C1425.51,1134.34 1426.13,1133.72 1427.37,1133.72 C1428.6,1133.72 1429.22,1134.34 1429.22,1135.58 L1429.22,1150.03 L1437.52,1146.9 L1437.52,1131.09 C1437.52,1129.85 1438.14,1129.23 1439.37,1129.23 C1440.61,1129.23 1441.22,1129.85 1441.22,1131.09 L1441.22,1145.64 L1444.46,1144.47 C1444.52,1144.4 1444.75,1144.37 1445.13,1144.37 C1445.59,1144.37 1446.08,1144.57 1446.6,1144.95 C1447,1145.35 1447.19,1145.81 1447.19,1146.33 L1447.19,1152.37 C1447.19,1153.29 1446.73,1153.91 1445.82,1154.23 L1441.22,1155.8 L1441.22,1171.81 L1444.46,1170.73 C1444.52,1170.67 1444.75,1170.64 1445.13,1170.64 C1445.59,1170.64 1446.08,1170.84 1446.6,1171.23 C1447,1171.62 1447.19,1172.07 1447.19,1172.59 L1447.19,1178.65 C1447.19,1179.5 1446.73,1180.08 1445.82,1180.4 L1441.22,1182.17 L1441.22,1197.89 M1437.52,1157.26 L1429.22,1160.19 L1429.22,1176.2 L1437.52,1173.28 L1437.52,1157.26 "/>
<path class="KeySig" d="M1416.22,1160.39 C1416.22,1161.63 1415.61,1162.25 1414.37,1162.25 C1413.14,1162.25 1412.52,1161.63 1412.52,1160.39 L1412.52,1145.94 L1404.22,1149.06 L1404.22,1164.87 C1404.22,1166.11 1403.6,1166.73 1402.37,1166.73 C1401.13,1166.73 1400.51,1166.11 1400.51,1164.87 L1400.51,1150.33 L1397.38,1151.5 C1397.32,1151.56 1397.06,1151.59 1396.6,1151.59 C1396.08,1151.59 1395.62,1151.4 1395.23,1151.01 C1394.84,1150.62 1394.65,1150.16 1394.65,1149.64 L1394.65,1143.59 C1394.65,1142.61 1395.07,1141.99 1395.91,1141.73 L1400.51,1140.17 L1400.51,1124.15 L1397.38,1125.23 C1397.32,1125.3 1397.06,1125.33 1396.6,1125.33 C1396.08,1125.33 1395.62,1125.13 1395.23,1124.74 C1394.84,1124.35 1394.65,1123.89 1394.65,1123.37 L1394.65,1117.31 C1394.65,1116.4 1395.07,1115.82 1395.91,1115.56 L1400.51,1113.8 L1400.51,1098.08 C1400.51,1096.84 1401.13,1096.22 1402.37,1096.22 C1403.6,1096.22 1404.22,1096.84 1404.22,1098.08 L1404.22,1112.53 L1412.52,1109.4 L1412.52,1093.59 C1412.52,1092.35 1413.14,1091.73 1414.37,1091.73 C1415.61,1091.73 1416.22,1092.35 1416.22,1093.59 L1416.22,1108.14 L1419.46,1106.97 C1419.52,1106.9 1419.75,1106.87 1420.13,1106.87 C1420.59,1106.87 1421.08,1107.07 1421.6,1107.45 C1422,1107.85 1422.19,1108.31 1422.19,1108.83 L1422.19,1114.87 C1422.19,1115.79 1421.73,1116.41 1420.82,1116.73 L1416.22,1118.3 L1416.22,1134.31 L1419.46,1133.23 C1419.52,1133.17 1419.75,1133.14 1420.13,1133.14 C1420.59,1133.14 1421.08,1133.34 1421.6,1133.73 C1422,1134.12 1422.19,1134.57 1422.19,1135.09 L1422.19,1141.15 C1422.19,1142 1421.73,1142.58 1420.82,1142.9 L1416.22,1144.67 L1416.22,1160.39 M1412.52,1119.76 L1404.22,1122.69 L1404.22,1138.7 L1412.52,1135.78 L1412.52,1119.76 "/>
<path class="KeySig" d="M1466.22,860.389 C1466.22,861.629 1465.61,862.248 1464.37,862.248 C1463.14,862.248 1462.52,861.629 1462.52,860.389 L1462.52,845.936 L1454.22,849.061 L1454.22,864.873 C1454.22,866.113 1453.6,866.733 1452.37,866.733 C1451.13,866.733 1450.51,866.113 1450.51,864.873 L1450.51,850.326 L1447.38,851.498 C1447.32,851.561 1447.06,851.592 1446.6,851.592 C1446.08,851.592 1445.62,851.397 1445.23,851.006 C1444.84,850.616 1444.65,850.16 1444.65,849.639 L1444.65,843.592 C1444.65,842.613 1445.07,841.993 1445.91,841.733 L1450.51,840.17 L1450.51,824.155 L1447.38,825.233 C1447.32,825.295 1447.06,825.326 1446.6,825.326 C1446.08,825.326 1445.62,825.131 1445.23,824.741 C1444.84,824.35 1444.65,823.894 1444.65,823.373 L1444.65,817.311 C1444.65,816.405 1445.07,815.821 1445.91,815.561 L1450.51,813.795 L1450.51,798.076 C1450.51,796.837 1451.13,796.217 1452.37,796.217 C1453.6,796.217 1454.22,796.837 1454.22,798.076 L1454.22,812.53 L1462.52,809.405 L1462.52,793.592 C1462.52,792.353 1463.14,791.733 1464.37,791.733 C1465.61,791.733 1466.22,792.353 1466.22,793.592 L1466.22,808.139 L1469.46,806.967 C1469.52,806.905 1469.75,806.873 1470.13,806.873 C1470.59,806.873 1471.08,807.066 1471.6,807.451 C1472,807.847 1472.19,808.306 1472.19,808.826 L1472.19,814.873 C1472.19,815.79 1471.73,816.41 1470.82,816.733 L1466.22,818.295 L1466.22,834.311 L1469.46,833.233 C1469.52,833.17 1469.75,833.139 1470.13,833.139 C1470.59,833.139 1471.08,833.337 1471.6,833.733 C1472,834.118 1472.19,834.571 1472.19,835.092 L1472.19,841.155 C1472.19,841.998 1471.73,842.582 1470.82,842.905 L1466.22,844.67 L1466.22,860.389 M1462.52,819.764 L1454.22,822.686 L1454.22,838.701 L1462.52,835.78 L1462.52,819.764 "/>
<path class="KeySig" d="M1441.22,910.389 C1441.22,911.629 1440.61,912.248 1439.37,912.248 C1438.14,912.248 1437.52,911.629 1437.52,910.389 L1437.52,895.936 L1429.22,899.061 L1429.22,914.873 C1429.22,916.113 1428.6,916.733 1427.37,916.733 C1426.13,916.733 1425.51,916.113 1425.51,914.873 L1425.51,900.326 L1422.38,901.498 C1422.32,901.561 1422.06,901.592 1421.6,901.592 C1421.08,901.592 1420.62,901.397 1420.23,901.006 C1419.84,900.616 1419.65,900.16 1419.65,899.639 L1419.65,893.592 C1419.65,892.613 1420.07,891.993 1420.91,891.733 L1425.51,890.17 L1425.51,874.155 L1422.38,875.233 C1422.32,875.295 1422.06,875.326 1421.6,875.326 C1421.08,875.326 1420.62,875.131 1420.23,874.741 C1419.84,874.35 1419.65,873.894 1419.65,873.373 L1419.65,867.311 C1419.65,866.405 1420.07,865.821 1420.91,865.561 L1425.51,863.795 L1425.51,848.076 C1425.51,846.837 1426.13,846.217 1427.37,846.217 C1428.6,846.217 1429.22,846.837 1429.22,848.076 L1429.22,862.53 L1437.52,859.405 L1437.52,843.592 C1437.52,842.353 1438.14,841.733 1439.37,841.733 C1440.61,841.733 1441.22,842.353 1441.22,843.592 L1441.22,858.139 L1444.46,856.967 C1444.52,856.905 1444.75,856.873 1445.13,856.873 C1445.59,856.873 1446.08,857.066 1446.6,857.451 C1447,857.847 1447.19,858.306 1447.19,858.826 L1447.19,864.873 C1447.19,865.79 1446.73,866.41 1445.82,866.733 L1441.22,868.295 L1441.22,884.311 L1444.46,883.233 C1444.52,883.17 1444.75,883.139 1445.13,883.139 C1445.59,883.139 1446.08,883.337 1446.6,883.733 C1447,884.118 1447.19,884.571 1447.19,885.092 L1447.19,891.155 C1447.19,891.998 1446.73,892.582 1445.82,892.905 L1441.22,894.67 L1441.22,910.389 M1437.52,869.764 L1429.22,872.686 L1429.22,888.701 L1437.52,885.78 L1437.52,869.764 "/>
<path class="KeySig" d="M1416.22,872.889 C1416.22,874.129 1415.61,874.748 1414.37,874.748 C1413.14,874.748 1412.52,874.129 1412.52,872.889 L1412.52,858.436 L1404.22,861.561 L1404.22,877.373 C1404.22,878.613 1403.6,879.233 1402.37,879.233 C1401.13,879.233 1400.51,878.613 1400.51,877.373 L1400.51,862.826 L1397.38,863.998 C1397.32,864.061 1397.06,864.092 1396.6,864.092 C1396.08,864.092 1395.62,863.897 1395.23,863.506 C1394.84,863.116 1394.65,862.66 1394.65,862.139 L1394.65,856.092 C1394.65,855.113 1395.07,854.493 1395.91,854.233 L1400.51,852.67 L1400.51,836.655 L1397.38,837.733 C1397.32,837.795 1397.06,837.826 1396.6,837.826 C1396.08,837.826 1395.62,837.631 1395.23,837.241 C1394.84,836.85 1394.65,836.394 1394.65,835.873 L1394.65,829.811 C1394.65,828.905 1395.07,828.321 1395.91,828.061 L1400.51,826.295 L1400.51,810.576 C1400.51,809.337 1401.13,808.717 1402.37,808.717 C1403.6,808.717 1404.22,809.337 1404.22,810.576 L1404.22,825.03 L1412.52,821.905 L1412.52,806.092 C1412.52,804.853 1413.14,804.233 1414.37,804.233 C1415.61,804.233 1416.22,804.853 1416.22,806.092 L1416.22,820.639 L1419.46,819.467 C1419.52,819.405 1419.75,819.373 1420.13,819.373 C1420.59,819.373 1421.08,819.566 1421.6,819.951 C1422,820.347 1422.19,820.806 1422.19,821.326 L1422.19,827.373 C1422.19,828.29 1421.73,828.91 1420.82,829.233 L1416.22,830.795 L1416.22,846.811 L1419.46,845.733 C1419.52,845.67 1419.75,845.639 1420.13,845.639 C1420.59,845.639 1421.08,845.837 1421.6,846.233 C1422,846.618 1422.19,847.071 1422.19,847.592 L1422.19,853.655 C1422.19,854.498 1421.73,855.082 1420.82,855.405 L1416.22,857.17 L1416.22,872.889 M1412.52,832.264 L1404.22,835.186 L1404.22,851.201 L1412.52,848.28 L1412.52,832.264 "/>
<path class="KeySig" d="M1466.22,622.889 C1466.22,624.128 1465.61,624.748 1464.37,624.748 C1463.14,624.748 1462.52,624.128 1462.52,622.889 L1462.52,608.436 L1454.22,611.561 L1454.22,627.373 C1454.22,628.613 1453.6,629.233 1452.37,629.233 C1451.13,629.233 1450.51,628.613 1450.51,627.373 L1450.51,612.826 L1447.38,613.998 C1447.32,614.061 1447.06,614.092 1446.6,614.092 C1446.08,614.092 1445.62,613.897 1445.23,613.506 C1444.84,613.115 1444.65,612.66 1444.65,612.139 L1444.65,606.092 C1444.65,605.113 1445.07,604.493 1445.91,604.233 L1450.51,602.67 L1450.51,586.654 L1447.38,587.733 C1447.32,587.795 1447.06,587.826 1446.6,587.826 C1446.08,587.826 1445.62,587.631 1445.23,587.24 C1444.84,586.85 1444.65,586.394 1444.65,585.873 L1444.65,579.811 C1444.65,578.904 1445.07,578.321 1445.91,578.061 L1450.51,576.295 L1450.51,560.576 C1450.51,559.337 1451.13,558.717 1452.37,558.717 C1453.6,558.717 1454.22,559.337 1454.22,560.576 L1454.22,575.029 L1462.52,571.904 L1462.52,556.092 C1462.52,554.852 1463.14,554.233 1464.37,554.233 C1465.61,554.233 1466.22,554.852 1466.22,556.092 L1466.22,570.639 L1469.46,569.467 C1469.52,569.404 1469.75,569.373 1470.13,569.373 C1470.59,569.373 1471.08,569.566 1471.6,569.951 C1472,570.347 1472.19,570.805 1472.19,571.326 L1472.19,577.373 C1472.19,578.29 1471.73,578.91 1470.82,579.233 L1466.22,580.795 L1466.22,596.811 L1469.46,595.733 C1469.52,595.67 1469.75,595.639 1470.13,595.639 C1470.59,595.639 1471.08,595.837 1471.6,596.233 C1472,596.618 1472.19,597.071 1472.19,597.592 L1472.19,603.654 C1472.19,604.498 1471.73,605.082 1470.82,605.404 L1466.22,607.17 L1466.22,622.889 M1462.52,582.264 L1454.22,585.186 L1454.22,601.201 L1462.52,598.279 L1462.52,582.264 "/>
<path class="KeySig" d="M1441.22,672.889 C1441.22,674.128 1440.61,674.748 1439.37,674.748 C1438.14,674.748 1437.52,674.128 1437.52,672.889 L1437.52,658.436 L1429.22,661.561 L1429.22,677.373 C1429.22,678.613 1428.6,679.233 1427.37,679.233 C1426.13,679.233 1425.51,678.613 1425.51,677.373 L1425.51,662.826 L1422.38,663.998 C1422.32,664.061 1422.06,664.092 1421.6,664.092 C1421.08,664.092 1420.62,663.897 1420.23,663.506 C1419.84,663.115 1419.65,662.66 1419.65,662.139 L1419.65,656.092 C1419.65,655.113 1420.07,654.493 1420.91,654.233 L1425.51,652.67 L1425.51,636.654 L1422.38,637.733 C1422.32,637.795 1422.06,637.826 1421.6,637.826 C1421.08,637.826 1420.62,637.631 1420.23,637.24 C1419.84,636.85 1419.65,636.394 1419.65,635.873 L1419.65,629.811 C1419.65,628.904 1420.07,628.321 1420.91,628.061 L1425.51,626.295 L1425.51,610.576 C1425.51,609.337 1426.13,608.717 1427.37,608.717 C1428.6,608.717 1429.22,609.337 1429.22,610.576 L1429.22,625.029 L1437.52,621.904 L1437.52,606.092 C1437.52,604.852 1438.14,604.233 1439.37,604.233 C1440.61,604.233 1441.22,604.852 1441.22,606.092 L1441.22,620.639 L1444.46,619.467 C1444.52,619.404 1444.75,619.373 1445.13,619.373 C1445.59,619.373 1446.08,619.566 1446.6,619.951 C1447,620.347 1447.19,620.806 1447.19,621.326 L1447.19,627.373 C1447.19,628.29 1446.73,628.91 1445.82,629.233 L1441.22,630.795 L1441.22,646.811 L1444.46,645.733 C1444.52,645.67 1444.75,645.639 1445.13,645.639 C1445.59,645.639 1446.08,645.837 1446.6,646.233 C1447,646.618 1447.19,647.071 1447.19,647.592 L1447.19,653.654 C1447.19,654.498 1446.73,655.082 1445.82,655.404 L1441.22,657.17 L1441.22,672.889 M1437.52,632.264 L1429.22,635.186 L1429.22,651.201 L1437.52,648.279 L1437.52,632.264 "/>
<path class="KeySig" d="M1416.22,635.389 C1416.22,636.628 1415.61,637.248 1414.37,637.248 C1413.14,637.248 1412.52,636.628 1412.52,635.389 L1412.52,620.936 L1404.22,624.061 L1404.22,639.873 C1404.22,641.113 1403.6,641.733 1402.37,641.733 C1401.13,641.733 1400.51,641.113 1400.51,639.873 L1400.51,625.326 L1397.38,626.498 C1397.32,626.561 1397.06,626.592 1396.6,626.592 C1396.08,626.592 1395.62,626.397 1395.23,626.006 C1394.84,625.615 1394.65,625.16 1394.65,624.639 L1394.65,618.592 C1394.65,617.613 1395.07,616.993 1395.91,616.733 L1400.51,615.17 L1400.51,599.154 L1397.38,600.233 C1397.32,600.295 1397.06,600.326 1396.6,600.326 C1396.08,600.326 1395.62,600.131 1395.23,599.74 C1394.84,599.35 1394.65,598.894 1394.65,598.373 L1394.65,592.311 C1394.65,591.404 1395.07,590.821 1395.91,590.561 L1400.51,588.795 L1400.51,573.076 C1400.51,571.837 1401.13,571.217 1402.37,571.217 C1403.6,571.217 1404.22,571.837 1404.22,573.076 L1404.22,587.529 L1412.52,584.404 L1412.52,568.592 C1412.52,567.352 1413.14,566.733 1414.37,566.733 C1415.61,566.733 1416.22,567.352 1416.22,568.592 L1416.22,583.139 L1419.46,581.967 C1419.52,581.904 1419.75,581.873 1420.13,581.873 C1420.59,581.873 1421.08,582.066 1421.6,582.451 C1422,582.847 1422.19,583.305 1422.19,583.826 L1422.19,589.873 C1422.19,590.79 1421.73,591.41 1420.82,591.733 L1416.22,593.295 L1416.22,609.311 L1419.46,608.233 C1419.52,608.17 1419.75,608.139 1420.13,608.139 C1420.59,608.139 1421.08,608.337 1421.6,608.733 C1422,609.118 1422.19,609.571 1422.19,610.092 L1422.19,616.154 C1422.19,616.998 1421.73,617.582 1420.82,617.904 L1416.22,619.67 L1416.22,635.389 M1412.52,594.764 L1404.22,597.686 L1404.22,613.701 L1412.52,610.779 L1412.52,594.764 "/>
<path class="KeySig" d="M1466.22,335.389 C1466.22,336.628 1465.61,337.248 1464.37,337.248 C1463.14,337.248 1462.52,336.628 1462.52,335.389 L1462.52,320.936 L1454.22,324.061 L1454.22,339.873 C1454.22,341.113 1453.6,341.732 1452.37,341.732 C1451.13,341.732 1450.51,341.113 1450.51,339.873 L1450.51,325.326 L1447.38,326.498 C1447.32,326.561 1447.06,326.592 1446.6,326.592 C1446.08,326.592 1445.62,326.396 1445.23,326.006 C1444.84,325.615 1444.65,325.159 1444.65,324.639 L1444.65,318.592 C1444.65,317.613 1445.07,316.993 1445.91,316.732 L1450.51,315.17 L1450.51,299.154 L1447.38,300.232 C1447.32,300.295 1447.06,300.326 1446.6,300.326 C1446.08,300.326 1445.62,300.131 1445.23,299.74 C1444.84,299.35 1444.65,298.894 1444.65,298.373 L1444.65,292.311 C1444.65,291.404 1445.07,290.821 1445.91,290.561 L1450.51,288.795 L1450.51,273.076 C1450.51,271.837 1451.13,271.217 1452.37,271.217 C1453.6,271.217 1454.22,271.837 1454.22,273.076 L1454.22,287.529 L1462.52,284.404 L1462.52,268.592 C1462.52,267.352 1463.14,266.732 1464.37,266.732 C1465.61,266.732 1466.22,267.352 1466.22,268.592 L1466.22,283.139 L1469.46,281.967 C1469.52,281.904 1469.75,281.873 1470.13,281.873 C1470.59,281.873 1471.08,282.066 1471.6,282.451 C1472,282.847 1472.19,283.305 1472.19,283.826 L1472.19,289.873 C1472.19,290.79 1471.73,291.409 1470.82,291.732 L1466.22,293.295 L1466.22,309.311 L1469.46,308.232 C1469.52,308.17 1469.75,308.139 1470.13,308.139 C1470.59,308.139 1471.08,308.337 1471.6,308.732 C1472,309.118 1472.19,309.571 1472.19,310.092 L1472.19,316.154 C1472.19,316.998 1471.73,317.581 1470.82,317.904 L1466.22,319.67 L1466.22,335.389 M1462.52,294.764 L1454.22,297.686 L1454.22,313.701 L1462.52,310.779 L1462.52,294.764 "/>
<path class="KeySig" d="M1441.22,385.389 C1441.22,386.628 1440.61,387.248 1439.37,387.248 C1438.14,387.248 1437.52,386.628 1437.52,385.389 L1437.52,370.936 L1429.22,374.061 L1429.22,389.873 C1429.22,391.113 1428.6,391.732 1427.37,391.732 C1426.13,391.732 1425.51,391.113 1425.51,389.873 L1425.51,375.326 L1422.38,376.498 C1422.32,376.561 1422.06,376.592 1421.6,376.592 C1421.08,376.592 1420.62,376.396 1420.23,376.006 C1419.84,375.615 1419.65,375.16 1419.65,374.639 L1419.65,368.592 C1419.65,367.613 1420.07,366.993 1420.91,366.732 L1425.51,365.17 L1425.51,349.154 L1422.38,350.232 C1422.32,350.295 1422.06,350.326 1421.6,350.326 C1421.08,350.326 1420.62,350.131 1420.23,349.74 C1419.84,349.35 1419.65,348.894 1419.65,348.373 L1419.65,342.311 C1419.65,341.404 1420.07,340.821 1420.91,340.561 L1425.51,338.795 L1425.51,323.076 C1425.51,321.837 1426.13,321.217 1427.37,321.217 C1428.6,321.217 1429.22,321.837 1429.22,323.076 L1429.22,337.529 L1437.52,334.404 L1437.52,318.592 C1437.52,317.352 1438.14,316.732 1439.37,316.732 C1440.61,316.732 1441.22,317.352 1441.22,318.592 L1441.22,333.139 L1444.46,331.967 C1444.52,331.904 1444.75,331.873 1445.13,331.873 C1445.59,331.873 1446.08,332.066 1446.6,332.451 C1447,332.847 1447.19,333.305 1447.19,333.826 L1447.19,339.873 C1447.19,340.79 1446.73,341.41 1445.82,341.732 L1441.22,343.295 L1441.22,359.311 L1444.46,358.232 C1444.52,358.17 1444.75,358.139 1445.13,358.139 C1445.59,358.139 1446.08,358.337 1446.6,358.732 C1447,359.118 1447.19,359.571 1447.19,360.092 L1447.19,366.154 C1447.19,366.998 1446.73,367.581 1445.82,367.904 L1441.22,369.67 L1441.22,385.389 M1437.52,344.764 L1429.22,347.686 L1429.22,363.701 L1437.52,360.779 L1437.52,344.764 "/>
<path class="KeySig" d="M1416.22,347.889 C1416.22,349.128 1415.61,349.748 1414.37,349.748 C1413.14,349.748 1412.52,349.128 1412.52,347.889 L1412.52,333.436 L1404.22,336.561 L1404.22,352.373 C1404.22,353.613 1403.6,354.232 1402.37,354.232 C1401.13,354.232 1400.51,353.613 1400.51,352.373 L1400.51,337.826 L1397.38,338.998 C1397.32,339.061 1397.06,339.092 1396.6,339.092 C1396.08,339.092 1395.62,338.896 1395.23,338.506 C1394.84,338.115 1394.65,337.659 1394.65,337.139 L1394.65,331.092 C1394.65,330.113 1395.07,329.493 1395.91,329.232 L1400.51,327.67 L1400.51,311.654 L1397.38,312.732 C1397.32,312.795 1397.06,312.826 1396.6,312.826 C1396.08,312.826 1395.62,312.631 1395.23,312.24 C1394.84,311.85 1394.65,311.394 1394.65,310.873 L1394.65,304.811 C1394.65,303.904 1395.07,303.321 1395.91,303.061 L1400.51,301.295 L1400.51,285.576 C1400.51,284.337 1401.13,283.717 1402.37,283.717 C1403.6,283.717 1404.22,284.337 1404.22,285.576 L1404.22,300.029 L1412.52,296.904 L1412.52,281.092 C1412.52,279.852 1413.14,279.232 1414.37,279.232 C1415.61,279.232 1416.22,279.852 1416.22,281.092 L1416.22,295.639 L1419.46,294.467 C1419.52,294.404 1419.75,294.373 1420.13,294.373 C1420.59,294.373 1421.08,294.566 1421.6,294.951 C1422,295.347 1422.19,295.805 1422.19,296.326 L1422.19,302.373 C1422.19,303.29 1421.73,303.909 1420.82,304.232 L1416.22,305.795 L1416.22,321.811 L1419.46,320.732 C1419.52,320.67 1419.75,320.639 1420.13,320.639 C1420.59,320.639 1421.08,320.837 1421.6,321.232 C1422,321.618 1422.19,322.071 1422.19,322.592 L1422.19,328.654 C1422.19,329.498 1421.73,330.081 1420.82,330.404 L1416.22,332.17 L1416.22,347.889 M1412.52,307.264 L1404.22,310.186 L1404.22,326.201 L1412.52,323.279 L1412.52,307.264 "/>
<path class="Rest" d="M583.941,1407.36 L548.394,1407.36 C547.738,1407.36 547.41,1407.04 547.41,1406.39 L547.41,1392.72 C547.41,1392.06 547.738,1391.73 548.394,1391.73 L583.941,1391.73 C584.587,1391.73 584.91,1392.06 584.91,1392.72 L584.91,1406.39 C584.91,1407.04 584.587,1407.36 583.941,1407.36"/>
<path class="Rest" d="M817.937,1407.36 L782.391,1407.36 C781.734,1407.36 781.406,1407.04 781.406,1406.39 L781.406,1392.72 C781.406,1392.06 781.734,1391.73 782.391,1391.73 L817.937,1391.73 C818.583,1391.73 818.906,1392.06 818.906,1392.72 L818.906,1406.39 C818.906,1407.04 818.583,1407.36 817.937,1407.36"/>
<path class="Rest" d="M1049.93,1407.36 L1014.39,1407.36 C1013.73,1407.36 1013.4,1407.04 1013.4,1406.39 L1013.4,1392.72 C1013.4,1392.06 1013.73,1391.73 1014.39,1391.73 L1049.93,1391.73 C1050.58,1391.73 1050.9,1392.06 1050.9,1392.72 L1050.9,1406.39 C1050.9,1407.04 1050.58,1407.36 1049.93,1407.36"/>
<path class="Rest" d="M1281.93,1407.36 L1246.38,1407.36 C1245.73,1407.36 1245.4,1407.04 1245.4,1406.39 L1245.4,1392.72 C1245.4,1392.06 1245.73,1391.73 1246.38,1391.73 L1281.93,1391.73 C1282.58,1391.73 1282.9,1392.06 1282.9,1392.72 L1282.9,1406.39 C1282.9,1407.04 1282.58,1407.36 1281.93,1407.36"/>
<path class="Rest" d="M1587.21,1407.36 L1551.67,1407.36 C1551.01,1407.36 1550.68,1407.04 1550.68,1406.39 L1550.68,1392.72 C1550.68,1392.06 1551.01,1391.73 1551.67,1391.73 L1587.21,1391.73 C1587.86,1391.73 1588.18,1392.06 1588.18,1392.72 L1588.18,1406.39 C1588.18,1407.04 1587.86,1407.36 1587.21,1407.36"/>
<path class="Rest" d="M1802.46,1407.36 L1766.91,1407.36 C1766.26,1407.36 1765.93,1407.04 1765.93,1406.39 L1765.93,1392.72 C1765.93,1392.06 1766.26,1391.73 1766.91,1391.73 L1802.46,1391.73 C1803.11,1391.73 1803.43,1392.06 1803.43,1392.72 L1803.43,1406.39 C1803.43,1407.04 1803.11,1407.36 1802.46,1407.36"/>
<path class="Rest" d="M2035.66,1407.36 L2000.11,1407.36 C1999.46,1407.36 1999.13,1407.04 1999.13,1406.39 L1999.13,1392.72 C1999.13,1392.06 1999.46,1391.73 2000.11,1391.73 L2035.66,1391.73 C2036.3,1391.73 2036.63,1392.06 2036.63,1392.72 L2036.63,1406.39 C2036.63,1407.04 2036.3,1407.36 2035.66,1407.36"/>
<path class="Rest" d="M2270.06,1407.36 L2234.51,1407.36 C2233.85,1407.36 2233.53,1407.04 2233.53,1406.39 L2233.53,1392.72 C2233.53,1392.06 2233.85,1391.73 2234.51,1391.73 L2270.06,1391.73 C2270.7,1391.73 2271.03,1392.06 2271.03,1392.72 L2271.03,1406.39 C2271.03,1407.04 2270.7,1407.36 2270.06,1407.36"/>
<path class="Rest" d="M2503.26,1407.36 L2467.71,1407.36 C2467.05,1407.36 2466.72,1407.04 2466.72,1406.39 L2466.72,1392.72 C2466.72,1392.06 2467.05,1391.73 2467.71,1391.73 L2503.26,1391.73 C2503.9,1391.73 2504.22,1392.06 2504.22,1392.72 L2504.22,1406.39 C2504.22,1407.04 2503.9,1407.36 2503.26,1407.36"/>
<path class="Rest" d="M2724,1407.36 L2688.45,1407.36 C2687.8,1407.36 2687.47,1407.04 2687.47,1406.39 L2687.47,1392.72 C2687.47,1392.06 2687.8,1391.73 2688.45,1391.73 L2724,1391.73 C2724.65,1391.73 2724.97,1392.06 2724.97,1392.72 L2724.97,1406.39 C2724.97,1407.04 2724.65,1407.36 2724,1407.36"/>
<path class="Rest" d="M583.941,1144.86 L548.394,1144.86 C547.738,1144.86 547.41,1144.53 547.41,1143.89 L547.41,1130.22 C547.41,1129.56 547.738,1129.23 548.394,1129.23 L583.941,1129.23 C584.587,1129.23 584.91,1129.56 584.91,1130.22 L584.91,1143.89 C584.91,1144.53 584.587,1144.86 583.941,1144.86"/>
<path class="Rest" d="M817.937,1144.86 L782.391,1144.86 C781.734,1144.86 781.406,1144.53 781.406,1143.89 L781.406,1130.22 C781.406,1129.56 781.734,1129.23 782.391,1129.23 L817.937,1129.23 C818.583,1129.23 818.906,1129.56 818.906,1130.22 L818.906,1143.89 C818.906,1144.53 818.583,1144.86 817.937,1144.86"/>
<path class="Rest" d="M1049.93,1144.86 L1014.39,1144.86 C1013.73,1144.86 1013.4,1144.53 1013.4,1143.89 L1013.4,1130.22 C1013.4,1129.56 1013.73,1129.23 1014.39,1129.23 L1049.93,1129.23 C1050.58,1129.23 1050.9,1129.56 1050.9,1130.22 L1050.9,1143.89 C1050.9,1144.53 1050.58,1144.86 1049.93,1144.86"/>
<path class="Rest" d="M1281.93,1144.86 L1246.38,1144.86 C1245.73,1144.86 1245.4,1144.53 1245.4,1143.89 L1245.4,1130.22 C1245.4,1129.56 1245.73,1129.23 1246.38,1129.23 L1281.93,1129.23 C1282.58,1129.23 1282.9,1129.56 1282.9,1130.22 L1282.9,1143.89 C1282.9,1144.53 1282.58,1144.86 1281.93,1144.86"/>
<path class="Rest" d="M1587.21,1144.86 L1551.67,1144.86 C1551.01,1144.86 1550.68,1144.53 1550.68,1143.89 L1550.68,1130.22 C1550.68,1129.56 1551.01,1129.23 1551.67,1129.23 L1587.21,1129.23 C1587.86,1129.23 1588.18,1129.56 1588.18,1130.22 L1588.18,1143.89 C1588.18,1144.53 1587.86,1144.86 1587.21,1144.86"/>
<path class="Rest" d="M1802.46,1144.86 L1766.91,1144.86 C1766.26,1144.86 1765.93,1144.53 1765.93,1143.89 L1765.93,1130.22 C1765.93,1129.56 1766.26,1129.23 1766.91,1129.23 L1802.46,1129.23 C1803.11,1129.23 1803.43,1129.56 1803.43,1130.22 L1803.43,1143.89 C1803.43,1144.53 1803.11,1144.86 1802.46,1144.86"/>
<path class="Rest" d="M2035.66,1144.86 L2000.11,1144.86 C1999.46,1144.86 1999.13,1144.53 1999.13,1143.89 L1999.13,1130.22 C1999.13,1129.56 1999.46,1129.23 2000.11,1129.23 L2035.66,1129.23 C2036.3,1129.23 2036.63,1129.56 2036.63,1130.22 L2036.63,1143.89 C2036.63,1144.53 2036.3,1144.86 2035.66,1144.86"/>
<path class="Rest" d="M2270.06,1144.86 L2234.51,1144.86 C2233.85,1144.86 2233.53,1144.53 2233.53,1143.89 L2233.53,1130.22 C2233.53,1129.56 2233.85,1129.23 2234.51,1129.23 L2270.06,1129.23 C2270.7,1129.23 2271.03,1129.56 2271.03,1130.22 L2271.03,1143.89 C2271.03,1144.53 2270.7,1144.86 2270.06,1144.86"/>
<path class="Rest" d="M2503.26,1144.86 L2467.71,1144.86 C2467.05,1144.86 2466.72,1144.53 2466.72,1143.89 L2466.72,1130.22 C2466.72,1129.56 2467.05,1129.23 2467.71,1129.23 L2503.26,1129.23 C2503.9,1129.23 2504.22,1129.56 2504.22,1130.22 L2504.22,1143.89 C2504.22,1144.53 2503.9,1144.86 2503.26,1144.86"/>
<path class="Rest" d="M2724,1144.86 L2688.45,1144.86 C2687.8,1144.86 2687.47,1144.53 2687.47,1143.89 L2687.47,1130.22 C2687.47,1129.56 2687.8,1129.23 2688.45,1129.23 L2724,1129.23 C2724.65,1129.23 2724.97,1129.56 2724.97,1130.22 L2724.97,1143.89 C2724.97,1144.53 2724.65,1144.86 2724,1144.86"/>
<path class="Rest" d="M583.941,882.358 L548.394,882.358 C547.738,882.358 547.41,882.035 547.41,881.389 L547.41,867.717 C547.41,867.061 547.738,866.733 548.394,866.733 L583.941,866.733 C584.587,866.733 584.91,867.061 584.91,867.717 L584.91,881.389 C584.91,882.035 584.587,882.358 583.941,882.358"/>
<path class="Rest" d="M817.937,882.358 L782.391,882.358 C781.734,882.358 781.406,882.035 781.406,881.389 L781.406,867.717 C781.406,867.061 781.734,866.733 782.391,866.733 L817.937,866.733 C818.583,866.733 818.906,867.061 818.906,867.717 L818.906,881.389 C818.906,882.035 818.583,882.358 817.937,882.358"/>
<path class="Rest" d="M1049.93,882.358 L1014.39,882.358 C1013.73,882.358 1013.4,882.035 1013.4,881.389 L1013.4,867.717 C1013.4,867.061 1013.73,866.733 1014.39,866.733 L1049.93,866.733 C1050.58,866.733 1050.9,867.061 1050.9,867.717 L1050.9,881.389 C1050.9,882.035 1050.58,882.358 1049.93,882.358"/>
<path class="Rest" d="M1281.93,882.358 L1246.38,882.358 C1245.73,882.358 1245.4,882.035 1245.4,881.389 L1245.4,867.717 C1245.4,867.061 1245.73,866.733 1246.38,866.733 L1281.93,866.733 C1282.58,866.733 1282.9,867.061 1282.9,867.717 L1282.9,881.389 C1282.9,882.035 1282.58,882.358 1281.93,882.358"/>
<path class="Rest" d="M1587.21,882.358 L1551.67,882.358 C1551.01,882.358 1550.68,882.035 1550.68,881.389 L1550.68,867.717 C1550.68,867.061 1551.01,866.733 1551.67,866.733 L1587.21,866.733 C1587.86,866.733 1588.18,867.061 1588.18,867.717 L1588.18,881.389 C1588.18,882.035 1587.86,882.358 1587.21,882.358"/>
<path class="Rest" d="M1802.46,882.358 L1766.91,882.358 C1766.26,882.358 1765.93,882.035 1765.93,881.389 L1765.93,867.717 C1765.93,867.061 1766.26,866.733 1766.91,866.733 L1802.46,866.733 C1803.11,866.733 1803.43,867.061 1803.43,867.717 L1803.43,881.389 C1803.43,882.035 1803.11,882.358 1802.46,882.358"/>
<path class="Rest" d="M2035.66,882.358 L2000.11,882.358 C1999.46,882.358 1999.13,882.035 1999.13,881.389 L1999.13,867.717 C1999.13,867.061 1999.46,866.733 2000.11,866.733 L2035.66,866.733 C2036.3,866.733 2036.63,867.061 2036.63,867.717 L2036.63,881.389 C2036.63,882.035 2036.3,882.358 2035.66,882.358"/>
<path class="Rest" d="M2270.06,882.358 L2234.51,882.358 C2233.85,882.358 2233.53,882.035 2233.53,881.389 L2233.53,867.717 C2233.53,867.061 2233.85,866.733 2234.51,866.733 L2270.06,866.733 C2270.7,866.733 2271.03,867.061 2271.03,867.717 L2271.03,881.389 C2271.03,882.035 2270.7,882.358 2270.06,882.358"/>
<path class="Rest" d="M2503.26,882.358 L2467.71,882.358 C2467.05,882.358 2466.72,882.035 2466.72,881.389 L2466.72,867.717 C2466.72,867.061 2467.05,866.733 2467.71,866.733 L2503.26,866.733 C2503.9,866.733 2504.22,867.061 2504.22,867.717 L2504.22,881.389 C2504.22,882.035 2503.9,882.358 2503.26,882.358"/>
<path class="Rest" d="M2724,882.358 L2688.45,882.358 C2687.8,882.358 2687.47,882.035 2687.47,881.389 L2687.47,867.717 C2687.47,867.061 2687.8,866.733 2688.45,866.733 L2724,866.733 C2724.65,866.733 2724.97,867.061 2724.97,867.717 L2724.97,881.389 C2724.97,882.035 2724.65,882.358 2724,882.358"/>
<path class="Rest" d="M583.941,619.858 L548.394,619.858 C547.738,619.858 547.41,619.535 547.41,618.889 L547.41,605.217 C547.41,604.561 547.738,604.233 548.394,604.233 L583.941,604.233 C584.587,604.233 584.91,604.561 584.91,605.217 L584.91,618.889 C584.91,619.535 584.587,619.858 583.941,619.858"/>
<path class="Rest" d="M817.937,619.858 L782.391,619.858 C781.734,619.858 781.406,619.535 781.406,618.889 L781.406,605.217 C781.406,604.561 781.734,604.233 782.391,604.233 L817.937,604.233 C818.583,604.233 818.906,604.561 818.906,605.217 L818.906,618.889 C818.906,619.535 818.583,619.858 817.937,619.858"/>
<path class="Rest" d="M1049.93,619.858 L1014.39,619.858 C1013.73,619.858 1013.4,619.535 1013.4,618.889 L1013.4,605.217 C1013.4,604.561 1013.73,604.233 1014.39,604.233 L1049.93,604.233 C1050.58,604.233 1050.9,604.561 1050.9,605.217 L1050.9,618.889 C1050.9,619.535 1050.58,619.858 1049.93,619.858"/>
<path class="Rest" d="M1281.93,619.858 L1246.38,619.858 C1245.73,619.858 1245.4,619.535 1245.4,618.889 L1245.4,605.217 C1245.4,604.561 1245.73,604.233 1246.38,604.233 L1281.93,604.233 C1282.58,604.233 1282.9,604.561 1282.9,605.217 L1282.9,618.889 C1282.9,619.535 1282.58,619.858 1281.93,619.858"/>
<path class="Rest" d="M1587.21,619.858 L1551.67,619.858 C1551.01,619.858 1550.68,619.535 1550.68,618.889 L1550.68,605.217 C1550.68,604.561 1551.01,604.233 1551.67,604.233 L1587.21,604.233 C1587.86,604.233 1588.18,604.561 1588.18,605.217 L1588.18,618.889 C1588.18,619.535 1587.86,619.858 1587.21,619.858"/>
<path class="Rest" d="M1802.46,619.858 L1766.91,619.858 C1766.26,619.858 1765.93,619.535 1765.93,618.889 L1765.93,605.217 C1765.93,604.561 1766.26,604.233 1766.91,604.233 L1802.46,604.233 C1803.11,604.233 1803.43,604.561 1803.43,605.217 L1803.43,618.889 C1803.43,619.535 1803.11,619.858 1802.46,619.858"/>
<path class="Rest" d="M2035.66,619.858 L2000.11,619.858 C1999.46,619.858 1999.13,619.535 1999.13,618.889 L1999.13,605.217 C1999.13,604.561 1999.46,604.233 2000.11,604.233 L2035.66,604.233 C2036.3,604.233 2036.63,604.561 2036.63,605.217 L2036.63,618.889 C2036.63,619.535 2036.3,619.858 2035.66,619.858"/>
<path class="Rest" d="M2270.06,619.858 L2234.51,619.858 C2233.85,619.858 2233.53,619.535 2233.53,618.889 L2233.53,605.217 C2233.53,604.561 2233.85,604.233 2234.51,604.233 L2270.06,604.233 C2270.7,604.233 2271.03,604.561 2271.03,605.217 L2271.03,618.889 C2271.03,619.535 2270.7,619.858 2270.06,619.858"/>
<path class="Rest" d="M2503.26,619.858 L2467.71,619.858 C2467.05,619.858 2466.72,619.535 2466.72,618.889 L2466.72,605.217 C2466.72,604.561 2467.05,604.233 2467.71,604.233 L2503.26,604.233 C2503.9,604.233 2504.22,604.561 2504.22,605.217 L2504.22,618.889 C2504.22,619.535 2503.9,619.858 2503.26,619.858"/>
<path class="Rest" d="M2724,619.858 L2688.45,619.858 C2687.8,619.858 2687.47,619.535 2687.47,618.889 L2687.47,605.217 C2687.47,604.561 2687.8,604.233 2688.45,604.233 L2724,604.233 C2724.65,604.233 2724.97,604.561 2724.97,605.217 L2724.97,618.889 C2724.97,619.535 2724.65,619.858 2724,619.858"/>
<path class="Rest" d="M583.941,357.357 L548.394,357.357 C547.738,357.357 547.41,357.034 547.41,356.389 L547.41,342.717 C547.41,342.061 547.738,341.732 548.394,341.732 L583.941,341.732 C584.587,341.732 584.91,342.061 584.91,342.717 L584.91,356.389 C584.91,357.034 584.587,357.357 583.941,357.357"/>
<path class="Rest" d="M817.937,357.357 L782.391,357.357 C781.734,357.357 781.406,357.034 781.406,356.389 L781.406,342.717 C781.406,342.061 781.734,341.732 782.391,341.732 L817.937,341.732 C818.583,341.732 818.906,342.061 818.906,342.717 L818.906,356.389 C818.906,357.034 818.583,357.357 817.937,357.357"/>
<path class="Rest" d="M1049.93,357.357 L1014.39,357.357 C1013.73,357.357 1013.4,357.034 1013.4,356.389 L1013.4,342.717 C1013.4,342.061 1013.73,341.732 1014.39,341.732 L1049.93,341.732 C1050.58,341.732 1050.9,342.061 1050.9,342.717 L1050.9,356.389 C1050.9,357.034 1050.58,357.357 1049.93,357.357"/>
<path class="Rest" d="M1281.93,357.357 L1246.38,357.357 C1245.73,357.357 1245.4,357.034 1245.4,356.389 L1245.4,342.717 C1245.4,342.061 1245.73,341.732 1246.38,341.732 L1281.93,341.732 C1282.58,341.732 1282.9,342.061 1282.9,342.717 L1282.9,356.389 C1282.9,357.034 1282.58,357.357 1281.93,357.357"/>
<path class="Rest" d="M1587.21,357.357 L1551.67,357.357 C1551.01,357.357 1550.68,357.034 1550.68,356.389 L1550.68,342.717 C1550.68,342.061 1551.01,341.732 1551.67,341.732 L1587.21,341.732 C1587.86,341.732 1588.18,342.061 1588.18,342.717 L1588.18,356.389 C1588.18,357.034 1587.86,357.357 1587.21,357.357"/>
<path class="Rest" d="M1802.46,357.357 L1766.91,357.357 C1766.26,357.357 1765.93,357.034 1765.93,356.389 L1765.93,342.717 C1765.93,342.061 1766.26,341.732 1766.91,341.732 L1802.46,341.732 C1803.11,341.732 1803.43,342.061 1803.43,342.717 L1803.43,356.389 C1803.43,357.034 1803.11,357.357 1802.46,357.357"/>
<path class="Rest" d="M2503.26,357.357 L2467.71,357.357 C2467.05,357.357 2466.72,357.034 2466.72,356.389 L2466.72,342.717 C2466.72,342.061 2467.05,341.732 2467.71,341.732 L2503.26,341.732 C2503.9,341.732 2504.22,342.061 2504.22,342.717 L2504.22,356.389 C2504.22,357.034 2503.9,357.357 2503.26,357.357"/>
<path class="Rest" d="M2724,357.357 L2688.45,357.357 C2687.8,357.357 2687.47,357.034 2687.47,356.389 L2687.47,342.717 C2687.47,342.061 2687.8,341.732 2688.45,341.732 L2724,341.732 C2724.65,341.732 2724.97,342.061 2724.97,342.717 L2724.97,356.389 C2724.97,357.034 2724.65,357.357 2724,357.357"/>
<path class="Page" d="M2820.69,3992.68 C2821.3,3992.68 2822.22,3993.04 2823.43,3993.76 C2824.64,3994.49 2825.7,3994.85 2826.61,3994.85 C2828.08,3994.85 2829.32,3994.28 2830.33,3993.14 C2831.34,3992 2831.84,3990.59 2831.84,3988.93 C2831.84,3987.88 2831.66,3986.97 2831.3,3986.18 C2830.95,3985.38 2830.49,3984.77 2829.93,3984.33 C2829.37,3983.9 2828.71,3983.54 2827.93,3983.26 C2827.15,3982.99 2826.43,3982.81 2825.75,3982.72 C2825.07,3982.64 2824.35,3982.6 2823.58,3982.6 L2823.58,3982.08 C2824.48,3981.76 2825.26,3981.44 2825.91,3981.14 C2826.57,3980.83 2827.25,3980.42 2827.97,3979.9 C2828.69,3979.39 2829.24,3978.75 2829.63,3978 C2830.02,3977.25 2830.22,3976.4 2830.22,3975.44 C2830.22,3974.19 2829.81,3973.17 2828.99,3972.36 C2828.17,3971.56 2827.11,3971.16 2825.81,3971.16 C2824.56,3971.16 2823.46,3971.5 2822.52,3972.18 C2821.57,3972.87 2820.68,3973.94 2819.86,3975.41 L2819.25,3975.24 C2819.95,3973.35 2820.89,3971.8 2822.08,3970.59 C2823.27,3969.38 2824.95,3968.77 2827.13,3968.77 C2828.97,3968.77 2830.47,3969.28 2831.63,3970.29 C2832.79,3971.3 2833.38,3972.61 2833.38,3974.24 C2833.38,3975.33 2833.09,3976.29 2832.53,3977.12 C2831.97,3977.95 2830.99,3978.83 2829.61,3979.77 C2831.21,3980.46 2832.47,3981.34 2833.38,3982.41 C2834.28,3983.48 2834.73,3985.02 2834.73,3987.02 C2834.73,3989.85 2833.69,3992.12 2831.59,3993.82 C2829.5,3995.52 2826.86,3996.36 2823.69,3996.36 C2822.3,3996.36 2821.2,3996.16 2820.39,3995.74 C2819.58,3995.32 2819.17,3994.77 2819.17,3994.08 C2819.17,3993.66 2819.31,3993.31 2819.59,3993.06 C2819.88,3992.8 2820.24,3992.68 2820.69,3992.68"/>
<path class="Bracket" fill-rule="evenodd" d="M323.775,970.701 C323.775,941.497 303.661,913.11 303.661,885.131 C303.661,871.039 309.147,857.356 326.061,845.102 C326.289,844.949 326.404,844.694 326.404,844.541 C326.404,844.081 325.147,843.673 324.232,843.673 C323.775,843.673 322.975,843.724 322.404,844.081 C300.461,859.807 293.147,877.983 293.147,896.363 C293.147,925.976 314.632,954.567 314.632,982.955 C314.632,997.046 309.147,1010.32 292.232,1022.57 L292.232,1022.98 L292.232,1023.39 C309.147,1035.64 314.632,1048.92 314.632,1063.01 C314.632,1091.4 293.147,1119.99 293.147,1149.6 C293.147,1167.98 300.461,1186.16 322.404,1201.88 C322.975,1202.24 323.775,1202.29 324.232,1202.29 C325.147,1202.29 326.404,1201.88 326.404,1201.42 C326.404,1201.27 326.289,1201.02 326.061,1200.86 C309.147,1188.61 303.661,1174.93 303.661,1160.84 C303.661,1132.86 323.775,1104.47 323.775,1075.26 C323.775,1056.68 316.461,1038.91 294.975,1022.98 C316.461,1007.05 323.775,989.286 323.775,970.701"/>
<path class="Bracket" fill-rule="evenodd" d="M323.775,445.701 C323.775,416.497 303.661,388.109 303.661,360.13 C303.661,346.039 309.147,332.356 326.061,320.102 C326.289,319.949 326.404,319.694 326.404,319.54 C326.404,319.081 325.147,318.673 324.232,318.673 C323.775,318.673 322.975,318.724 322.404,319.081 C300.461,334.806 293.147,352.982 293.147,371.363 C293.147,400.975 314.632,429.567 314.632,457.954 C314.632,472.046 309.147,485.321 292.232,497.574 L292.232,497.983 L292.232,498.391 C309.147,510.644 314.632,523.919 314.632,538.011 C314.632,566.398 293.147,594.99 293.147,624.602 C293.147,642.983 300.461,661.159 322.404,676.884 C322.975,677.241 323.775,677.292 324.232,677.292 C325.147,677.292 326.404,676.884 326.404,676.425 C326.404,676.271 326.289,676.016 326.061,675.863 C309.147,663.609 303.661,649.926 303.661,635.835 C303.661,607.856 323.775,579.468 323.775,550.264 C323.775,531.68 316.461,513.912 294.975,497.983 C316.461,482.053 323.775,464.285 323.775,445.701"/>
</svg>
