<?xml version="1.0" encoding="UTF-8" standalone="no"?>
<!DOCTYPE svg PUBLIC "-//W3C//DTD SVG 1.1//EN" "http://www.w3.org/Graphics/SVG/1.1/DTD/svg11.dtd">
<svg version="1.1" xmlns="http://www.w3.org/2000/svg" xmlns:xlink="http://www.w3.org/1999/xlink" preserveAspectRatio="xMidYMid meet" viewBox="0 0 640 640" width="640" height="640"><defs><path d="M109.92 100L90.07 100L75.26 100C75.33 103.25 77.39 106.29 81.43 109.13C85.47 111.97 91.66 113.52 100.01 113.76C102.78 113.77 105.4 113.53 107.87 113.05C112.07 112.24 115.83 110.73 118.47 109.13C122.66 106.6 124.75 103.56 124.76 100L109.92 100Z" id="bTP8IaPi7"></path><clipPath id="clipe67xPhE81k"><use xlink:href="#bTP8IaPi7" opacity="1"></use></clipPath><path d="M109.92 100C110.34 102.57 110.17 104.89 109.4 106.95C108.98 108.1 107.68 110.62 104.73 111.11C103.26 111.35 100.55 111.22 98.23 110.24C95.85 109.25 93.87 107.31 93.1 106.45C91.5 104.65 90.49 102.5 90.07 100L75.26 100C75.33 103.25 77.39 106.29 81.43 109.13C85.47 111.97 91.66 113.52 100.01 113.76C102.78 113.77 105.4 113.53 107.87 113.05C112.07 112.24 115.83 110.73 118.47 109.13C122.66 106.6 124.75 103.56 124.76 100L109.92 100Z" id="c1qWRCYdF"></path><clipPath id="cliph2Dw7v21sX"><use xlink:href="#c1qWRCYdF" opacity="1"></use></clipPath><path d="M90.09 100C89.67 97.43 89.85 95.11 90.61 93.05C91.04 91.9 92.33 89.38 95.29 88.89C96.75 88.65 99.46 88.78 101.79 89.76C104.16 90.75 106.15 92.69 106.91 93.55C108.51 95.35 109.52 97.5 109.95 100L124.76 100C124.69 96.75 122.63 93.71 118.59 90.87C114.55 88.03 108.36 86.48 100.01 86.24C97.23 86.23 94.61 86.47 92.15 86.95C87.95 87.76 84.19 89.27 81.55 90.87C77.36 93.4 75.26 96.44 75.26 100L90.09 100Z" id="bAYPJilgK"></path><clipPath id="clipc1nxOKj2yO"><use xlink:href="#bAYPJilgK" opacity="1"></use></clipPath><path d="M90.09 100L109.95 100L124.76 100C124.69 96.75 122.63 93.71 118.59 90.87C114.55 88.03 108.36 86.48 100.01 86.24C97.23 86.23 94.61 86.47 92.15 86.95C87.95 87.76 84.19 89.27 81.55 90.87C77.36 93.4 75.26 96.44 75.26 100L90.09 100Z" id="c1UCyi1NyC"></path><clipPath id="clipc254dHJPkz"><use xlink:href="#c1UCyi1NyC" opacity="1"></use></clipPath><path d="M100.06 86.24C107.09 86.24 112.95 87.6 117.63 90.33C122.38 93.07 124.76 96.29 124.76 100C124.76 103.97 122.31 107.22 117.43 109.76C112.55 112.43 106.76 113.76 100.06 113.76C93.16 113.76 87.3 112.4 82.49 109.67C77.67 106.93 75.26 103.71 75.26 100C75.26 96.03 77.73 92.78 82.68 90.24C87.56 87.57 93.36 86.24 100.06 86.24" id="a1xKi21ybd"></path><path d="M96.73 88.77C94.38 88.77 92.69 89.58 91.65 91.2C90.48 92.77 89.9 94.89 89.9 97.56C89.9 100.63 90.71 103.26 92.34 105.47C93.96 107.61 95.75 109.11 97.71 109.97C99.46 110.81 101.32 111.23 103.27 111.23C105.55 111.23 107.28 110.42 108.44 108.8C109.55 107.16 110.1 105.04 110.1 102.44C110.1 99.38 109.29 96.74 107.66 94.53C106.04 92.45 104.28 90.95 102.4 90.03C100.5 89.19 98.61 88.77 96.73 88.77M100.05 86.24C107.08 86.24 112.94 87.6 117.63 90.33C122.38 93.07 124.76 96.29 124.76 100C124.76 103.97 122.31 107.22 117.43 109.76C112.54 112.43 106.75 113.76 100.05 113.76C93.15 113.76 87.29 112.4 82.48 109.67C77.66 106.93 75.24 103.71 75.24 100C75.24 96.03 77.72 92.78 82.67 90.24C87.55 87.57 93.35 86.24 100.05 86.24" id="ccZSBmpJr"></path><clipPath id="clipb3SybwHf"><use xlink:href="#ccZSBmpJr" opacity="1"></use></clipPath></defs><g><g><g><use xlink:href="#bTP8IaPi7" opacity="1" fill="#000000" fill-opacity="1"></use><g clip-path="url(#clipe67xPhE81k)"><use xlink:href="#bTP8IaPi7" opacity="1" fill-opacity="0" stroke="#000000" stroke-width="4" stroke-opacity="1"></use></g></g><g><use xlink:href="#c1qWRCYdF" opacity="1" fill="#000000" fill-opacity="1"></use><g clip-path="url(#cliph2Dw7v21sX)"><use xlink:href="#c1qWRCYdF" opacity="1" fill-opacity="0" stroke="#000000" stroke-width="2" stroke-opacity="1"></use></g></g><g><use xlink:href="#bAYPJilgK" opacity="1" fill="#000000" fill-opacity="1"></use><g clip-path="url(#clipc1nxOKj2yO)"><use xlink:href="#bAYPJilgK" opacity="1" fill-opacity="0" stroke="#000000" stroke-width="2" stroke-opacity="1"></use></g></g><g><use xlink:href="#c1UCyi1NyC" opacity="1" fill="#000000" fill-opacity="1"></use><g clip-path="url(#clipc254dHJPkz)"><use xlink:href="#c1UCyi1NyC" opacity="1" fill-opacity="0" stroke="#000000" stroke-width="2" stroke-opacity="1"></use></g></g><g><use xlink:href="#a1xKi21ybd" opacity="1" fill="#000000" fill-opacity="1"></use><g><use xlink:href="#a1xKi21ybd" opacity="1" fill-opacity="0" stroke="#000000" stroke-width="1" stroke-opacity="0"></use></g></g><g><use xlink:href="#ccZSBmpJr" opacity="1" fill="#000000" fill-opacity="1"></use><g clip-path="url(#clipb3SybwHf)"><use xlink:href="#ccZSBmpJr" opacity="1" fill-opacity="0" stroke="#000000" stroke-width="2" stroke-opacity="1"></use></g></g></g></g></svg>