<?xml version="1.0" encoding="UTF-8" standalone="no"?>
<svg width="2977.2px" height="4208.4px" viewBox="0 0 2977.2 4208.4"
 xmlns="http://www.w3.org/2000/svg" xmlns:xlink="http://www.w3.org/1999/xlink" version="1.2" baseProfile="tiny">
<title>Untitled</title>
<desc>Generated by MuseScore 3.3.4</desc>
<polyline class="StaffLines" fill="none" stroke="#000000" stroke-width="2.00" stroke-linejoin="bevel" points="141.732,566.732 2835.47,566.732"/>
<polyline class="StaffLines" fill="none" stroke="#000000" stroke-width="2.00" stroke-linejoin="bevel" points="141.732,591.732 2835.47,591.732"/>
<polyline class="StaffLines" fill="none" stroke="#000000" stroke-width="2.00" stroke-linejoin="bevel" points="141.732,616.732 2835.47,616.732"/>
<polyline class="StaffLines" fill="none" stroke="#000000" stroke-width="2.00" stroke-linejoin="bevel" points="141.732,641.732 2835.47,641.732"/>
<polyline class="StaffLines" fill="none" stroke="#000000" stroke-width="2.00" stroke-linejoin="bevel" points="141.732,666.732 2835.47,666.732"/>
<polyline class="StaffLines" fill="none" stroke="#000000" stroke-width="2.00" stroke-linejoin="bevel" points="141.732,1007.19 2835.47,1007.19"/>
<polyline class="StaffLines" fill="none" stroke="#000000" stroke-width="2.00" stroke-linejoin="bevel" points="141.732,1032.19 2835.47,1032.19"/>
<polyline class="StaffLines" fill="none" stroke="#000000" stroke-width="2.00" stroke-linejoin="bevel" points="141.732,1057.19 2835.47,1057.19"/>
<polyline class="StaffLines" fill="none" stroke="#000000" stroke-width="2.00" stroke-linejoin="bevel" points="141.732,1082.19 2835.47,1082.19"/>
<polyline class="StaffLines" fill="none" stroke="#000000" stroke-width="2.00" stroke-linejoin="bevel" points="141.732,1107.19 2835.47,1107.19"/>
<polyline class="StaffLines" fill="none" stroke="#000000" stroke-width="2.00" stroke-linejoin="bevel" points="141.732,1447.65 2835.47,1447.65"/>
<polyline class="StaffLines" fill="none" stroke="#000000" stroke-width="2.00" stroke-linejoin="bevel" points="141.732,1472.65 2835.47,1472.65"/>
<polyline class="StaffLines" fill="none" stroke="#000000" stroke-width="2.00" stroke-linejoin="bevel" points="141.732,1497.65 2835.47,1497.65"/>
<polyline class="StaffLines" fill="none" stroke="#000000" stroke-width="2.00" stroke-linejoin="bevel" points="141.732,1522.65 2835.47,1522.65"/>
<polyline class="StaffLines" fill="none" stroke="#000000" stroke-width="2.00" stroke-linejoin="bevel" points="141.732,1547.65 2835.47,1547.65"/>
<polyline class="StaffLines" fill="none" stroke="#000000" stroke-width="2.00" stroke-linejoin="bevel" points="141.732,1888.11 2835.47,1888.11"/>
<polyline class="StaffLines" fill="none" stroke="#000000" stroke-width="2.00" stroke-linejoin="bevel" points="141.732,1913.11 2835.47,1913.11"/>
<polyline class="StaffLines" fill="none" stroke="#000000" stroke-width="2.00" stroke-linejoin="bevel" points="141.732,1938.11 2835.47,1938.11"/>
<polyline class="StaffLines" fill="none" stroke="#000000" stroke-width="2.00" stroke-linejoin="bevel" points="141.732,1963.11 2835.47,1963.11"/>
<polyline class="StaffLines" fill="none" stroke="#000000" stroke-width="2.00" stroke-linejoin="bevel" points="141.732,1988.11 2835.47,1988.11"/>
<polyline class="StaffLines" fill="none" stroke="#000000" stroke-width="2.00" stroke-linejoin="bevel" points="141.732,2328.56 2835.47,2328.56"/>
<polyline class="StaffLines" fill="none" stroke="#000000" stroke-width="2.00" stroke-linejoin="bevel" points="141.732,2353.56 2835.47,2353.56"/>
<polyline class="StaffLines" fill="none" stroke="#000000" stroke-width="2.00" stroke-linejoin="bevel" points="141.732,2378.56 2835.47,2378.56"/>
<polyline class="StaffLines" fill="none" stroke="#000000" stroke-width="2.00" stroke-linejoin="bevel" points="141.732,2403.56 2835.47,2403.56"/>
<polyline class="StaffLines" fill="none" stroke="#000000" stroke-width="2.00" stroke-linejoin="bevel" points="141.732,2428.56 2835.47,2428.56"/>
<polyline class="StaffLines" fill="none" stroke="#000000" stroke-width="2.00" stroke-linejoin="bevel" points="141.732,2769.02 2835.47,2769.02"/>
<polyline class="StaffLines" fill="none" stroke="#000000" stroke-width="2.00" stroke-linejoin="bevel" points="141.732,2794.02 2835.47,2794.02"/>
<polyline class="StaffLines" fill="none" stroke="#000000" stroke-width="2.00" stroke-linejoin="bevel" points="141.732,2819.02 2835.47,2819.02"/>
<polyline class="StaffLines" fill="none" stroke="#000000" stroke-width="2.00" stroke-linejoin="bevel" points="141.732,2844.02 2835.47,2844.02"/>
<polyline class="StaffLines" fill="none" stroke="#000000" stroke-width="2.00" stroke-linejoin="bevel" points="141.732,2869.02 2835.47,2869.02"/>
<polyline class="StaffLines" fill="none" stroke="#000000" stroke-width="2.00" stroke-linejoin="bevel" points="141.732,3209.48 2835.47,3209.48"/>
<polyline class="StaffLines" fill="none" stroke="#000000" stroke-width="2.00" stroke-linejoin="bevel" points="141.732,3234.48 2835.47,3234.48"/>
<polyline class="StaffLines" fill="none" stroke="#000000" stroke-width="2.00" stroke-linejoin="bevel" points="141.732,3259.48 2835.47,3259.48"/>
<polyline class="StaffLines" fill="none" stroke="#000000" stroke-width="2.00" stroke-linejoin="bevel" points="141.732,3284.48 2835.47,3284.48"/>
<polyline class="StaffLines" fill="none" stroke="#000000" stroke-width="2.00" stroke-linejoin="bevel" points="141.732,3309.48 2835.47,3309.48"/>
<polyline class="StaffLines" fill="none" stroke="#000000" stroke-width="2.00" stroke-linejoin="bevel" points="141.732,3649.94 1415.61,3649.94"/>
<polyline class="StaffLines" fill="none" stroke="#000000" stroke-width="2.00" stroke-linejoin="bevel" points="141.732,3674.94 1415.61,3674.94"/>
<polyline class="StaffLines" fill="none" stroke="#000000" stroke-width="2.00" stroke-linejoin="bevel" points="141.732,3699.94 1415.61,3699.94"/>
<polyline class="StaffLines" fill="none" stroke="#000000" stroke-width="2.00" stroke-linejoin="bevel" points="141.732,3724.94 1415.61,3724.94"/>
<polyline class="StaffLines" fill="none" stroke="#000000" stroke-width="2.00" stroke-linejoin="bevel" points="141.732,3749.94 1415.61,3749.94"/>
<path class="Text" d="M1407.33,149.576 L1400.86,149.576 C1394.13,149.576 1389.63,150.482 1387.35,152.295 C1385.07,154.107 1383.22,158.243 1381.78,164.701 L1378.89,164.701 L1379.61,144.295 L1447.29,144.295 L1448.01,164.701 L1445.12,164.701 C1443.77,158.159 1441.95,154.003 1439.67,152.232 C1437.39,150.461 1432.85,149.576 1426.04,149.576 L1419.58,149.576 L1419.58,210.685 C1419.58,215.071 1420.26,217.902 1421.62,219.178 C1422.97,220.454 1426.13,221.211 1431.09,221.451 L1431.09,223.732 L1396.04,223.732 L1396.04,221.451 C1401.01,221.128 1404.14,220.31 1405.41,218.998 C1406.69,217.685 1407.33,214.477 1407.33,209.373 L1407.33,149.576 M1457.53,176.576 C1455.77,176.576 1454.09,176.696 1452.5,176.935 L1452.5,175.139 C1458.09,173.534 1464.29,171.331 1471.09,168.529 L1471.58,168.889 L1471.58,211.498 C1471.58,215.81 1472.08,218.547 1473.08,219.709 C1474.08,220.87 1476.53,221.612 1480.45,221.935 L1480.45,223.732 L1452.01,223.732 L1452.01,221.935 C1456.17,221.696 1458.79,220.974 1459.87,219.771 C1460.96,218.568 1461.5,215.81 1461.5,211.498 L1461.5,183.654 C1461.5,181.019 1461.2,179.18 1460.59,178.139 C1459.99,177.097 1458.97,176.576 1457.53,176.576 M1465.45,141.779 C1467.21,141.779 1468.69,142.378 1469.89,143.576 C1471.09,144.774 1471.69,146.211 1471.69,147.889 C1471.69,149.649 1471.09,151.11 1469.89,152.271 C1468.69,153.433 1467.21,154.014 1465.45,154.014 C1463.77,154.014 1462.35,153.415 1461.19,152.217 C1460.03,151.019 1459.45,149.579 1459.45,147.896 C1459.45,146.214 1460.05,144.774 1461.25,143.576 C1462.45,142.378 1463.85,141.779 1465.45,141.779 M1514.17,169.732 L1514.17,173.342 L1502.04,173.342 L1502.04,207.654 C1502.04,211.415 1502.53,214.154 1503.49,215.873 C1504.45,217.592 1506.06,218.451 1508.29,218.451 C1510.77,218.451 1513.17,217.05 1515.5,214.248 L1517.04,215.576 C1513.21,221.816 1508.41,224.935 1502.65,224.935 C1495.53,224.935 1491.97,219.831 1491.97,209.623 L1491.97,173.342 L1485.61,173.342 C1485.29,173.112 1485.14,172.847 1485.14,172.545 C1485.14,172.17 1485.26,171.87 1485.5,171.646 C1485.74,171.422 1486.2,171.105 1486.87,170.693 C1487.55,170.282 1488.37,169.691 1489.33,168.92 C1490.3,168.149 1491.62,166.751 1493.29,164.724 C1494.97,162.698 1496.81,160.264 1498.81,157.42 C1500.09,155.555 1500.89,154.42 1501.22,154.014 C1501.77,154.014 1502.04,154.54 1502.04,155.592 L1502.04,169.732 L1514.17,169.732 M1518.29,148.982 L1518.29,147.06 C1526.21,145.133 1532.57,143.373 1537.37,141.779 L1537.86,142.014 L1537.86,213.654 C1537.86,216.935 1538.4,219.076 1539.47,220.076 C1540.55,221.076 1543.01,221.696 1546.86,221.935 L1546.86,223.732 L1518.53,223.732 L1518.53,221.935 C1522.29,221.612 1524.77,220.891 1525.97,219.771 C1527.16,218.652 1527.76,216.493 1527.76,213.295 L1527.76,156.06 C1527.76,153.258 1527.4,151.336 1526.69,150.295 C1525.97,149.253 1524.65,148.732 1522.73,148.732 C1521.13,148.732 1519.65,148.816 1518.29,148.982 M1559.73,190.498 C1559.89,195.54 1560.57,199.878 1561.77,203.514 C1562.97,207.149 1564.53,209.868 1566.45,211.67 C1568.37,213.472 1570.31,214.753 1572.27,215.514 C1574.23,216.274 1576.29,216.654 1578.45,216.654 C1582.29,216.654 1585.64,215.693 1588.47,213.771 C1591.31,211.849 1594.17,208.612 1597.04,204.06 L1598.97,204.889 C1596.49,211.368 1593.05,216.329 1588.65,219.771 C1584.25,223.214 1579.21,224.935 1573.53,224.935 C1566.65,224.935 1561.2,222.516 1557.15,217.678 C1553.11,212.839 1551.09,206.3 1551.09,198.06 C1551.09,189.175 1553.43,182.032 1558.12,176.631 C1562.8,171.23 1568.82,168.529 1576.17,168.529 C1582.25,168.529 1586.97,170.349 1590.33,173.99 C1593.69,177.631 1595.81,183.133 1596.69,190.498 L1559.73,190.498 M1559.97,186.889 L1584.45,186.889 C1583.65,181.691 1582.41,178.092 1580.73,176.092 C1579.06,174.092 1576.37,173.092 1572.69,173.092 C1565.49,173.092 1561.25,177.691 1559.97,186.889"/>
<path class="Text" d="M2592.56,359.232 C2592.56,353.024 2594.48,347.982 2598.33,344.107 C2602.17,340.232 2606.95,338.295 2612.67,338.295 C2615.22,338.295 2617.62,338.607 2619.87,339.232 C2622.11,339.857 2623.41,340.17 2623.76,340.17 C2625.09,340.17 2625.92,339.545 2626.28,338.295 L2627.54,338.295 L2628.09,351.732 L2626.7,351.732 C2624.5,344.295 2620.21,340.576 2613.81,340.576 C2609.45,340.576 2605.97,342.196 2603.4,345.435 C2600.82,348.675 2599.53,353.014 2599.53,358.451 C2599.53,361.93 2599.98,364.941 2600.88,367.482 C2601.78,370.024 2602.99,371.943 2604.51,373.24 C2606.02,374.537 2607.59,375.477 2609.21,376.06 C2610.83,376.644 2612.56,376.935 2614.4,376.935 C2619.12,376.935 2623.58,374.915 2627.78,370.873 L2628.87,371.951 C2627.03,374.389 2624.69,376.269 2621.85,377.592 C2619.01,378.915 2615.89,379.576 2612.48,379.576 C2606.57,379.576 2601.77,377.717 2598.08,373.998 C2594.4,370.279 2592.56,365.357 2592.56,359.232 M2645.23,351.139 C2649.07,351.139 2652.22,352.417 2654.7,354.974 C2657.18,357.532 2658.42,360.774 2658.42,364.701 C2658.42,368.857 2657.14,372.334 2654.58,375.131 C2652.03,377.928 2648.87,379.326 2645.11,379.326 C2641.35,379.326 2638.22,377.977 2635.72,375.279 C2633.22,372.581 2631.97,369.211 2631.97,365.17 C2631.97,361.055 2633.2,357.688 2635.65,355.068 C2638.11,352.448 2641.31,351.139 2645.23,351.139 M2637.37,362.264 C2637.37,366.503 2638.15,370.107 2639.71,373.076 C2641.27,376.045 2643.31,377.529 2645.83,377.529 C2648.07,377.529 2649.83,376.579 2651.11,374.678 C2652.39,372.777 2653.03,370.144 2653.03,366.779 C2653.03,362.696 2652.23,359.368 2650.63,356.795 C2649.03,354.222 2646.97,352.935 2644.45,352.935 C2642.33,352.935 2640.62,353.787 2639.32,355.49 C2638.02,357.193 2637.37,359.451 2637.37,362.264 M2660.25,354.967 L2660.25,353.951 C2663.12,353.118 2665.92,352.18 2668.64,351.139 L2669.06,351.264 L2669.06,355.873 C2671.54,353.946 2673.38,352.675 2674.58,352.06 C2675.79,351.446 2677.05,351.139 2678.37,351.139 C2681.53,351.139 2683.65,352.852 2684.73,356.279 C2687.85,352.852 2691.1,351.139 2694.5,351.139 C2699.14,351.139 2701.47,354.727 2701.47,361.904 L2701.47,374.185 C2701.47,376.415 2702.33,377.592 2704.04,377.717 L2705.61,377.826 L2705.61,378.732 L2692.47,378.732 L2692.47,377.826 C2694.23,377.628 2695.33,377.292 2695.76,376.818 C2696.2,376.344 2696.42,375.248 2696.42,373.529 L2696.42,360.935 C2696.42,358.467 2696.1,356.756 2695.46,355.803 C2694.82,354.849 2693.64,354.373 2691.92,354.373 C2689.28,354.373 2687.11,355.586 2685.39,358.014 L2685.39,373.06 C2685.39,374.925 2685.68,376.178 2686.26,376.818 C2686.83,377.459 2687.98,377.795 2689.7,377.826 L2689.7,378.732 L2676.26,378.732 L2676.26,377.826 C2677.98,377.711 2679.09,377.396 2679.59,376.881 C2680.09,376.365 2680.34,375.269 2680.34,373.592 L2680.34,360.639 C2680.34,356.461 2679.02,354.373 2676.39,354.373 C2675.26,354.373 2674.01,354.652 2672.63,355.209 C2671.25,355.766 2670.14,356.665 2669.31,357.904 L2669.31,374.732 C2669.31,375.889 2669.59,376.675 2670.15,377.092 C2670.7,377.508 2671.78,377.753 2673.39,377.826 L2673.39,378.732 L2660.06,378.732 L2660.06,377.826 C2661.75,377.795 2662.87,377.501 2663.43,376.943 C2663.98,376.386 2664.26,375.29 2664.26,373.654 L2664.26,358.56 C2664.26,357.123 2664.12,356.126 2663.82,355.568 C2663.52,355.011 2662.97,354.732 2662.17,354.732 C2661.57,354.732 2660.92,354.81 2660.25,354.967 M2707.31,355.154 L2707.31,354.201 C2709.83,353.441 2712.71,352.42 2715.95,351.139 L2716.31,351.248 L2716.31,355.873 C2718.86,352.717 2721.74,351.139 2724.95,351.139 C2727.87,351.139 2730.27,352.342 2732.15,354.748 C2734.03,357.154 2734.97,360.227 2734.97,363.967 C2734.97,368.31 2733.76,371.956 2731.33,374.904 C2728.91,377.852 2725.92,379.326 2722.37,379.326 C2721.09,379.326 2720.02,379.154 2719.16,378.81 C2718.3,378.467 2717.35,377.821 2716.31,376.873 L2716.31,386.217 C2716.31,388.081 2716.63,389.279 2717.27,389.81 C2717.91,390.342 2719.35,390.628 2721.59,390.67 L2721.59,391.748 L2707.06,391.748 L2707.06,390.732 C2708.82,390.576 2709.96,390.237 2710.48,389.717 C2711,389.196 2711.26,388.154 2711.26,386.592 L2711.26,358.514 C2711.26,357.118 2711.1,356.198 2710.79,355.756 C2710.47,355.313 2709.81,355.092 2708.81,355.092 C2708.16,355.092 2707.66,355.112 2707.31,355.154 M2716.31,358.717 L2716.31,373.545 C2716.31,374.43 2717,375.316 2718.38,376.201 C2719.76,377.086 2721.15,377.529 2722.54,377.529 C2724.7,377.529 2726.45,376.495 2727.79,374.428 C2729.14,372.36 2729.81,369.654 2729.81,366.31 C2729.81,362.81 2729.14,360.006 2727.79,357.896 C2726.45,355.787 2724.66,354.732 2722.42,354.732 C2721.02,354.732 2719.66,355.175 2718.32,356.06 C2716.98,356.946 2716.31,357.831 2716.31,358.717 M2751.23,351.139 C2755.07,351.139 2758.22,352.417 2760.7,354.974 C2763.18,357.532 2764.42,360.774 2764.42,364.701 C2764.42,368.857 2763.14,372.334 2760.58,375.131 C2758.03,377.928 2754.87,379.326 2751.11,379.326 C2747.35,379.326 2744.22,377.977 2741.72,375.279 C2739.22,372.581 2737.97,369.211 2737.97,365.17 C2737.97,361.055 2739.2,357.688 2741.65,355.068 C2744.11,352.448 2747.31,351.139 2751.23,351.139 M2743.37,362.264 C2743.37,366.503 2744.15,370.107 2745.71,373.076 C2747.27,376.045 2749.31,377.529 2751.83,377.529 C2754.07,377.529 2755.83,376.579 2757.11,374.678 C2758.39,372.777 2759.03,370.144 2759.03,366.779 C2759.03,362.696 2758.23,359.368 2756.63,356.795 C2755.03,354.222 2752.97,352.935 2750.45,352.935 C2748.33,352.935 2746.62,353.787 2745.32,355.49 C2744.02,357.193 2743.37,359.451 2743.37,362.264 M2781.54,352.326 C2781.59,352.326 2781.91,352.128 2782.51,351.732 L2783.17,351.732 L2783.4,359.889 L2782.51,359.889 C2781.83,357.211 2780.98,355.313 2779.98,354.193 C2778.98,353.073 2777.62,352.514 2775.9,352.514 C2774.55,352.514 2773.44,352.894 2772.58,353.654 C2771.71,354.415 2771.28,355.394 2771.28,356.592 C2771.28,358.31 2772.14,359.67 2773.87,360.67 L2780.34,364.514 C2782.14,365.597 2783.44,366.688 2784.22,367.787 C2785,368.886 2785.39,370.175 2785.39,371.654 C2785.39,373.737 2784.56,375.537 2782.9,377.053 C2781.23,378.568 2779.24,379.326 2776.92,379.326 C2775.92,379.326 2774.58,379.146 2772.9,378.787 C2771.23,378.428 2770.19,378.248 2769.78,378.248 C2769.19,378.248 2768.73,378.487 2768.4,378.967 L2767.62,378.967 L2767.62,369.607 L2768.59,369.607 C2769.23,372.409 2769.99,374.389 2770.87,375.545 C2772.14,377.191 2773.92,378.014 2776.2,378.014 C2777.72,378.014 2778.93,377.623 2779.83,376.842 C2780.73,376.06 2781.19,375.008 2781.19,373.685 C2781.19,371.894 2780.14,370.394 2778.06,369.185 L2774.59,367.217 C2772.03,365.779 2770.22,364.399 2769.15,363.076 C2768.09,361.753 2767.56,360.253 2767.56,358.576 C2767.56,356.409 2768.33,354.639 2769.87,353.264 C2771.41,351.889 2773.37,351.201 2775.73,351.201 C2777.04,351.201 2778.28,351.389 2779.44,351.764 C2780.6,352.139 2781.31,352.326 2781.54,352.326 M2793.28,362.107 C2793.36,364.628 2793.7,366.8 2794.3,368.623 C2794.9,370.446 2795.68,371.805 2796.65,372.701 C2797.61,373.597 2798.58,374.235 2799.56,374.615 C2800.54,374.995 2801.57,375.185 2802.64,375.185 C2804.57,375.185 2806.24,374.706 2807.65,373.748 C2809.07,372.79 2810.5,371.17 2811.95,368.889 L2812.9,369.31 C2811.66,372.55 2809.95,375.029 2807.75,376.748 C2805.55,378.467 2803.03,379.326 2800.19,379.326 C2796.75,379.326 2794.02,378.118 2792,375.701 C2789.98,373.284 2788.97,370.014 2788.97,365.889 C2788.97,361.451 2790.14,357.883 2792.47,355.185 C2794.81,352.487 2797.83,351.139 2801.51,351.139 C2804.54,351.139 2806.9,352.047 2808.58,353.865 C2810.27,355.683 2811.33,358.43 2811.76,362.107 L2793.28,362.107 M2793.4,360.31 L2805.64,360.31 C2805.24,357.717 2804.63,355.92 2803.79,354.92 C2802.95,353.92 2801.61,353.42 2799.76,353.42 C2796.17,353.42 2794.05,355.717 2793.4,360.31 M2832.53,357.014 C2831.92,357.014 2831.18,356.665 2830.3,355.967 C2829.42,355.269 2828.84,354.92 2828.56,354.92 C2827.77,354.92 2826.87,355.498 2825.87,356.654 C2824.87,357.81 2824.37,358.868 2824.37,359.826 L2824.37,373.326 C2824.37,375.055 2824.71,376.219 2825.39,376.818 C2826.07,377.417 2827.42,377.753 2829.47,377.826 L2829.47,378.732 L2815.06,378.732 L2815.06,377.826 C2816.99,377.472 2818.18,377.073 2818.64,376.631 C2819.1,376.188 2819.33,375.206 2819.33,373.685 L2819.33,358.685 C2819.33,357.373 2819.17,356.446 2818.87,355.904 C2818.57,355.362 2818.04,355.092 2817.28,355.092 C2816.64,355.092 2815.95,355.17 2815.19,355.326 L2815.19,354.373 C2818.38,353.331 2821.34,352.253 2824.06,351.139 L2824.37,351.248 L2824.37,356.779 C2825.85,354.654 2827.11,353.183 2828.15,352.365 C2829.18,351.547 2830.32,351.139 2831.56,351.139 C2832.6,351.139 2833.41,351.417 2834,351.974 C2834.58,352.532 2834.87,353.31 2834.87,354.31 C2834.87,355.154 2834.66,355.816 2834.24,356.295 C2833.82,356.774 2833.25,357.014 2832.53,357.014"/>
<path class="MeasureNumber" d="M146.514,949.409 C146.514,947.992 146.198,946.739 145.568,945.651 C144.938,944.562 144.178,943.719 143.287,943.12 C142.396,942.521 141.399,942.028 140.295,941.643 C139.191,941.258 138.23,941.005 137.412,940.885 C136.594,940.765 135.883,940.706 135.279,940.706 C134.956,940.706 134.795,940.596 134.795,940.377 C134.795,940.304 134.805,940.237 134.826,940.174 L139.185,930.721 L147.545,930.721 C147.972,930.721 148.313,930.653 148.568,930.518 C148.823,930.383 149.097,930.101 149.389,929.674 L149.748,929.956 L148.232,933.518 C148.128,933.758 147.821,933.877 147.31,933.877 L139.467,933.877 L137.795,937.268 C141.68,937.956 144.571,939.078 146.467,940.635 C148.362,942.192 149.31,944.476 149.31,947.487 C149.31,949.06 149.063,950.461 148.568,951.69 C148.073,952.919 147.446,953.909 146.685,954.659 C145.925,955.409 145.045,956.023 144.045,956.502 C143.045,956.982 142.086,957.31 141.17,957.487 C140.253,957.664 139.326,957.752 138.389,957.752 C136.899,957.752 135.714,957.531 134.834,957.088 C133.954,956.646 133.514,956.039 133.514,955.268 C133.514,954.278 134.086,953.784 135.232,953.784 C135.982,953.784 136.948,954.192 138.131,955.01 C139.313,955.828 140.253,956.237 140.951,956.237 C142.524,956.237 143.844,955.578 144.912,954.26 C145.98,952.942 146.514,951.325 146.514,949.409"/>
<path class="MeasureNumber" d="M134.092,1398.52 L133.967,1397.73 C137.008,1397.19 139.589,1395.9 141.709,1393.83 C143.829,1391.77 145.3,1389.11 146.123,1385.85 C144.154,1387.39 142.159,1388.16 140.139,1388.16 C137.972,1388.16 136.23,1387.42 134.912,1385.92 C133.594,1384.43 132.935,1382.46 132.935,1380.02 C132.935,1377.31 133.727,1375.06 135.31,1373.25 C136.894,1371.44 138.873,1370.54 141.248,1370.54 C143.831,1370.54 145.951,1371.6 147.607,1373.71 C149.264,1375.82 150.092,1378.54 150.092,1381.87 C150.092,1382.93 149.998,1384.02 149.81,1385.15 C149.623,1386.27 149.188,1387.6 148.506,1389.14 C147.823,1390.68 146.938,1392.05 145.849,1393.26 C144.761,1394.48 143.204,1395.58 141.178,1396.57 C139.152,1397.56 136.79,1398.21 134.092,1398.52 M141.576,1386.41 C142.076,1386.41 142.646,1386.34 143.287,1386.19 C143.928,1386.05 144.576,1385.73 145.232,1385.23 C145.889,1384.74 146.217,1384.13 146.217,1383.41 L146.217,1381.87 C146.217,1375.11 144.456,1371.73 140.935,1371.73 C140.102,1371.73 139.394,1371.95 138.81,1372.39 C138.227,1372.83 137.782,1373.41 137.474,1374.12 C137.167,1374.84 136.946,1375.57 136.81,1376.31 C136.675,1377.06 136.607,1377.85 136.607,1378.68 C136.607,1381.04 137.055,1382.92 137.951,1384.32 C138.847,1385.72 140.055,1386.41 141.576,1386.41"/>
<path class="MeasureNumber" d="M128.045,1814.39 C127.566,1814.39 126.607,1814.68 125.17,1815.26 L125.17,1814.71 L132.373,1811.07 L132.685,1811.15 L132.685,1835.15 C132.685,1836.11 132.925,1836.74 133.404,1837.03 C133.883,1837.32 134.909,1837.48 136.482,1837.51 L136.482,1838.11 L125.451,1838.11 L125.451,1837.51 C126.941,1837.45 127.946,1837.22 128.467,1836.84 C128.987,1836.45 129.248,1835.64 129.248,1834.39 L129.248,1816.26 C129.248,1815.01 128.847,1814.39 128.045,1814.39 M143.967,1834.98 C144.581,1834.98 145.495,1835.34 146.709,1836.07 C147.922,1836.79 148.982,1837.15 149.889,1837.15 C151.357,1837.15 152.597,1836.58 153.607,1835.44 C154.618,1834.3 155.123,1832.9 155.123,1831.23 C155.123,1830.19 154.943,1829.27 154.584,1828.48 C154.224,1827.69 153.766,1827.07 153.209,1826.64 C152.652,1826.2 151.985,1825.84 151.209,1825.57 C150.433,1825.29 149.706,1825.11 149.029,1825.03 C148.352,1824.94 147.628,1824.9 146.857,1824.9 L146.857,1824.39 C147.764,1824.06 148.542,1823.75 149.193,1823.44 C149.844,1823.13 150.529,1822.72 151.248,1822.21 C151.967,1821.69 152.521,1821.06 152.912,1820.31 C153.303,1819.56 153.498,1818.7 153.498,1817.75 C153.498,1816.5 153.089,1815.47 152.271,1814.67 C151.454,1813.87 150.394,1813.46 149.092,1813.46 C147.842,1813.46 146.743,1813.81 145.795,1814.49 C144.847,1815.17 143.961,1816.25 143.139,1817.71 L142.529,1817.54 C143.227,1815.66 144.17,1814.11 145.357,1812.89 C146.545,1811.68 148.227,1811.07 150.404,1811.07 C152.248,1811.07 153.751,1811.58 154.912,1812.59 C156.073,1813.6 156.654,1814.92 156.654,1816.54 C156.654,1817.64 156.373,1818.6 155.81,1819.43 C155.248,1820.25 154.274,1821.14 152.889,1822.07 C154.493,1822.76 155.748,1823.64 156.654,1824.71 C157.56,1825.79 158.014,1827.32 158.014,1829.32 C158.014,1832.16 156.967,1834.42 154.873,1836.12 C152.779,1837.82 150.144,1838.67 146.967,1838.67 C145.581,1838.67 144.482,1838.46 143.67,1838.04 C142.857,1837.63 142.451,1837.07 142.451,1836.39 C142.451,1835.96 142.592,1835.62 142.873,1835.36 C143.154,1835.11 143.519,1834.98 143.967,1834.98"/>
<path class="MeasureNumber" d="M128.045,2254.84 C127.566,2254.84 126.607,2255.14 125.17,2255.72 L125.17,2255.17 L132.373,2251.53 L132.685,2251.61 L132.685,2275.61 C132.685,2276.57 132.925,2277.19 133.404,2277.48 C133.883,2277.78 134.909,2277.94 136.482,2277.97 L136.482,2278.56 L125.451,2278.56 L125.451,2277.97 C126.941,2277.91 127.946,2277.68 128.467,2277.3 C128.987,2276.91 129.248,2276.09 129.248,2274.84 L129.248,2256.72 C129.248,2255.47 128.847,2254.84 128.045,2254.84 M158.685,2252.09 L158.685,2252.72 L150.217,2278.88 L147.607,2278.88 L155.529,2255 L146.857,2255 C145.764,2255 144.93,2255.2 144.357,2255.6 C143.784,2256 143.071,2256.89 142.217,2258.25 L141.529,2257.94 L143.889,2252.09 L158.685,2252.09 "/>
<path class="MeasureNumber" d="M124.467,2699.94 C124.602,2699.33 124.737,2698.8 124.873,2698.35 C125.008,2697.9 125.295,2697.24 125.732,2696.38 C126.17,2695.52 126.662,2694.8 127.209,2694.23 C127.756,2693.66 128.516,2693.15 129.49,2692.7 C130.464,2692.25 131.566,2692.02 132.795,2692.02 C134.868,2692.02 136.618,2692.7 138.045,2694.05 C139.472,2695.41 140.185,2697.08 140.185,2699.07 C140.185,2702.08 138.482,2705.37 135.076,2708.94 L128.357,2715.97 L137.904,2715.97 C138.81,2715.97 139.485,2715.82 139.928,2715.52 C140.37,2715.22 140.967,2714.49 141.717,2713.35 L142.232,2713.54 L140.029,2719.02 L124.435,2719.02 L124.435,2718.54 L131.545,2710.99 C135.014,2707.3 136.748,2703.83 136.748,2700.58 C136.748,2698.91 136.227,2697.55 135.185,2696.5 C134.144,2695.46 132.784,2694.94 131.107,2694.94 C129.722,2694.94 128.61,2695.32 127.771,2696.08 C126.933,2696.84 126.112,2698.2 125.31,2700.15 L124.467,2699.94 M150.545,2695.3 C150.066,2695.3 149.107,2695.59 147.67,2696.18 L147.67,2695.63 L154.873,2691.99 L155.185,2692.07 L155.185,2716.07 C155.185,2717.03 155.425,2717.65 155.904,2717.94 C156.383,2718.23 157.409,2718.4 158.982,2718.43 L158.982,2719.02 L147.951,2719.02 L147.951,2718.43 C149.441,2718.36 150.446,2718.14 150.967,2717.75 C151.487,2717.37 151.748,2716.55 151.748,2715.3 L151.748,2697.18 C151.748,2695.93 151.347,2695.3 150.545,2695.3"/>
<path class="MeasureNumber" d="M123.467,3140.4 C123.602,3139.79 123.737,3139.25 123.873,3138.81 C124.008,3138.36 124.295,3137.7 124.732,3136.84 C125.17,3135.97 125.662,3135.26 126.209,3134.69 C126.756,3134.12 127.516,3133.61 128.49,3133.16 C129.464,3132.7 130.566,3132.48 131.795,3132.48 C133.868,3132.48 135.618,3133.15 137.045,3134.51 C138.472,3135.86 139.185,3137.54 139.185,3139.52 C139.185,3142.54 137.482,3145.83 134.076,3149.4 L127.357,3156.43 L136.904,3156.43 C137.81,3156.43 138.485,3156.28 138.928,3155.98 C139.37,3155.68 139.967,3154.95 140.717,3153.81 L141.232,3153.99 L139.029,3159.48 L123.435,3159.48 L123.435,3158.99 L130.545,3151.45 C134.014,3147.76 135.748,3144.29 135.748,3141.04 C135.748,3139.36 135.227,3138 134.185,3136.96 C133.144,3135.92 131.784,3135.4 130.107,3135.4 C128.722,3135.4 127.61,3135.78 126.771,3136.54 C125.933,3137.3 125.112,3138.65 124.31,3140.6 L123.467,3140.4 M156.514,3151.7 C156.514,3150.28 156.198,3149.03 155.568,3147.94 C154.938,3146.85 154.178,3146.01 153.287,3145.41 C152.396,3144.81 151.399,3144.32 150.295,3143.93 C149.191,3143.55 148.23,3143.29 147.412,3143.17 C146.594,3143.05 145.883,3142.99 145.279,3142.99 C144.956,3142.99 144.795,3142.88 144.795,3142.67 C144.795,3142.59 144.805,3142.52 144.826,3142.46 L149.185,3133.01 L157.545,3133.01 C157.972,3133.01 158.313,3132.94 158.568,3132.81 C158.823,3132.67 159.097,3132.39 159.389,3131.96 L159.748,3132.24 L158.232,3135.81 C158.128,3136.05 157.821,3136.17 157.31,3136.17 L149.467,3136.17 L147.795,3139.56 C151.68,3140.24 154.571,3141.37 156.467,3142.92 C158.362,3144.48 159.31,3146.76 159.31,3149.77 C159.31,3151.35 159.063,3152.75 158.568,3153.98 C158.073,3155.21 157.446,3156.2 156.685,3156.95 C155.925,3157.7 155.045,3158.31 154.045,3158.79 C153.045,3159.27 152.086,3159.6 151.17,3159.77 C150.253,3159.95 149.326,3160.04 148.389,3160.04 C146.899,3160.04 145.714,3159.82 144.834,3159.38 C143.954,3158.93 143.514,3158.33 143.514,3157.56 C143.514,3156.57 144.086,3156.07 145.232,3156.07 C145.982,3156.07 146.948,3156.48 148.131,3157.3 C149.313,3158.12 150.253,3158.52 150.951,3158.52 C152.524,3158.52 153.844,3157.87 154.912,3156.55 C155.98,3155.23 156.514,3153.61 156.514,3151.7"/>
<path class="MeasureNumber" d="M122.967,3580.86 C123.102,3580.24 123.237,3579.71 123.373,3579.26 C123.508,3578.82 123.795,3578.16 124.232,3577.29 C124.67,3576.43 125.162,3575.71 125.709,3575.15 C126.256,3574.58 127.016,3574.07 127.99,3573.62 C128.964,3573.16 130.066,3572.94 131.295,3572.94 C133.368,3572.94 135.118,3573.61 136.545,3574.97 C137.972,3576.32 138.685,3577.99 138.685,3579.98 C138.685,3582.99 136.982,3586.28 133.576,3589.86 L126.857,3596.89 L136.404,3596.89 C137.31,3596.89 137.985,3596.74 138.428,3596.44 C138.87,3596.13 139.467,3595.41 140.217,3594.26 L140.732,3594.45 L138.529,3599.94 L122.935,3599.94 L122.935,3599.45 L130.045,3591.9 C133.514,3588.22 135.248,3584.75 135.248,3581.5 C135.248,3579.82 134.727,3578.46 133.685,3577.42 C132.644,3576.38 131.284,3575.86 129.607,3575.86 C128.222,3575.86 127.11,3576.24 126.271,3577 C125.433,3577.76 124.612,3579.11 123.81,3581.06 L122.967,3580.86 M144.092,3600.81 L143.967,3600.01 C147.008,3599.48 149.589,3598.19 151.709,3596.12 C153.829,3594.06 155.3,3591.4 156.123,3588.14 C154.154,3589.68 152.159,3590.45 150.139,3590.45 C147.972,3590.45 146.23,3589.7 144.912,3588.21 C143.594,3586.71 142.935,3584.75 142.935,3582.31 C142.935,3579.6 143.727,3577.34 145.31,3575.54 C146.894,3573.73 148.873,3572.83 151.248,3572.83 C153.831,3572.83 155.951,3573.88 157.607,3576 C159.264,3578.11 160.092,3580.83 160.092,3584.15 C160.092,3585.22 159.998,3586.31 159.81,3587.44 C159.623,3588.56 159.188,3589.89 158.506,3591.43 C157.823,3592.96 156.938,3594.34 155.849,3595.55 C154.761,3596.77 153.204,3597.87 151.178,3598.86 C149.152,3599.85 146.79,3600.5 144.092,3600.81 M151.576,3588.7 C152.076,3588.7 152.646,3588.63 153.287,3588.48 C153.928,3588.34 154.576,3588.02 155.232,3587.52 C155.889,3587.03 156.217,3586.42 156.217,3585.7 L156.217,3584.15 C156.217,3577.39 154.456,3574.01 150.935,3574.01 C150.102,3574.01 149.394,3574.23 148.81,3574.68 C148.227,3575.12 147.782,3575.7 147.474,3576.41 C147.167,3577.13 146.946,3577.85 146.81,3578.6 C146.675,3579.34 146.607,3580.13 146.607,3580.97 C146.607,3583.33 147.055,3585.21 147.951,3586.61 C148.847,3588 150.055,3588.7 151.576,3588.7"/>
<polyline class="BarLine" fill="none" stroke="#000000" stroke-width="4.00" stroke-linejoin="bevel" points="863.341,565.732 863.341,667.732"/>
<polyline class="BarLine" fill="none" stroke="#000000" stroke-width="4.00" stroke-linejoin="bevel" points="1691.11,565.732 1691.11,667.732"/>
<polyline class="BarLine" fill="none" stroke="#000000" stroke-width="4.00" stroke-linejoin="bevel" points="2262.29,565.732 2262.29,667.732"/>
<polyline class="BarLine" fill="none" stroke="#000000" stroke-width="4.00" stroke-linejoin="bevel" points="2833.47,565.732 2833.47,667.732"/>
<polyline class="BarLine" fill="none" stroke="#000000" stroke-width="4.00" stroke-linejoin="bevel" points="825.012,1006.19 825.012,1108.19"/>
<polyline class="BarLine" fill="none" stroke="#000000" stroke-width="4.00" stroke-linejoin="bevel" points="1636.78,1006.19 1636.78,1108.19"/>
<polyline class="BarLine" fill="none" stroke="#000000" stroke-width="4.00" stroke-linejoin="bevel" points="2235.13,1006.19 2235.13,1108.19"/>
<polyline class="BarLine" fill="none" stroke="#000000" stroke-width="4.00" stroke-linejoin="bevel" points="2833.47,1006.19 2833.47,1108.19"/>
<polyline class="BarLine" fill="none" stroke="#000000" stroke-width="4.00" stroke-linejoin="bevel" points="878.369,1446.65 878.369,1548.65"/>
<polyline class="BarLine" fill="none" stroke="#000000" stroke-width="4.00" stroke-linejoin="bevel" points="1530.07,1446.65 1530.07,1548.65"/>
<polyline class="BarLine" fill="none" stroke="#000000" stroke-width="4.00" stroke-linejoin="bevel" points="2181.77,1446.65 2181.77,1548.65"/>
<polyline class="BarLine" fill="none" stroke="#000000" stroke-width="4.00" stroke-linejoin="bevel" points="2833.47,1446.65 2833.47,1548.65"/>
<polyline class="BarLine" fill="none" stroke="#000000" stroke-width="4.00" stroke-linejoin="bevel" points="878.369,1887.11 878.369,1989.11"/>
<polyline class="BarLine" fill="none" stroke="#000000" stroke-width="4.00" stroke-linejoin="bevel" points="1530.07,1887.11 1530.07,1989.11"/>
<polyline class="BarLine" fill="none" stroke="#000000" stroke-width="4.00" stroke-linejoin="bevel" points="2181.77,1887.11 2181.77,1989.11"/>
<polyline class="BarLine" fill="none" stroke="#000000" stroke-width="4.00" stroke-linejoin="bevel" points="2833.47,1887.11 2833.47,1989.11"/>
<polyline class="BarLine" fill="none" stroke="#000000" stroke-width="4.00" stroke-linejoin="bevel" points="878.369,2327.56 878.369,2429.56"/>
<polyline class="BarLine" fill="none" stroke="#000000" stroke-width="4.00" stroke-linejoin="bevel" points="1530.07,2327.56 1530.07,2429.56"/>
<polyline class="BarLine" fill="none" stroke="#000000" stroke-width="4.00" stroke-linejoin="bevel" points="2181.77,2327.56 2181.77,2429.56"/>
<polyline class="BarLine" fill="none" stroke="#000000" stroke-width="4.00" stroke-linejoin="bevel" points="2833.47,2327.56 2833.47,2429.56"/>
<polyline class="BarLine" fill="none" stroke="#000000" stroke-width="4.00" stroke-linejoin="bevel" points="878.369,2768.02 878.369,2870.02"/>
<polyline class="BarLine" fill="none" stroke="#000000" stroke-width="4.00" stroke-linejoin="bevel" points="1530.07,2768.02 1530.07,2870.02"/>
<polyline class="BarLine" fill="none" stroke="#000000" stroke-width="4.00" stroke-linejoin="bevel" points="2181.77,2768.02 2181.77,2870.02"/>
<polyline class="BarLine" fill="none" stroke="#000000" stroke-width="4.00" stroke-linejoin="bevel" points="2833.47,2768.02 2833.47,2870.02"/>
<polyline class="BarLine" fill="none" stroke="#000000" stroke-width="4.00" stroke-linejoin="bevel" points="878.369,3208.48 878.369,3310.48"/>
<polyline class="BarLine" fill="none" stroke="#000000" stroke-width="4.00" stroke-linejoin="bevel" points="1530.07,3208.48 1530.07,3310.48"/>
<polyline class="BarLine" fill="none" stroke="#000000" stroke-width="4.00" stroke-linejoin="bevel" points="2181.77,3208.48 2181.77,3310.48"/>
<polyline class="BarLine" fill="none" stroke="#000000" stroke-width="4.00" stroke-linejoin="bevel" points="2833.47,3208.48 2833.47,3310.48"/>
<polyline class="BarLine" fill="none" stroke="#000000" stroke-width="4.00" stroke-linejoin="bevel" points="523.404,3648.94 523.404,3750.94"/>
<polyline class="BarLine" fill="none" stroke="#000000" stroke-width="4.00" stroke-linejoin="bevel" points="820.139,3648.94 820.139,3750.94"/>
<polyline class="BarLine" fill="none" stroke="#000000" stroke-width="4.00" stroke-linejoin="bevel" points="1116.87,3648.94 1116.87,3750.94"/>
<polyline class="BarLine" fill="none" stroke="#000000" stroke-width="4.00" stroke-linejoin="bevel" points="1391.11,3648.94 1391.11,3750.94"/>
<polyline class="BarLine" fill="none" stroke="#000000" stroke-width="12.50" stroke-linejoin="bevel" points="1409.36,3648.94 1409.36,3750.94"/>
<polyline class="Stem" fill="none" stroke="#000000" stroke-width="3.25" stroke-linecap="round" stroke-linejoin="bevel" points="923.435,625.392 923.435,547.982"/>
<polyline class="Stem" fill="none" stroke="#000000" stroke-width="3.25" stroke-linecap="round" stroke-linejoin="bevel" points="1119.31,624.537 1119.31,547.982"/>
<polyline class="Stem" fill="none" stroke="#000000" stroke-width="3.25" stroke-linecap="round" stroke-linejoin="bevel" points="1286.57,612.037 1286.57,497.982"/>
<polyline class="Stem" fill="none" stroke="#000000" stroke-width="3.25" stroke-linecap="round" stroke-linejoin="bevel" points="1424.31,624.537 1424.31,508.588"/>
<polyline class="Stem" fill="none" stroke="#000000" stroke-width="3.25" stroke-linecap="round" stroke-linejoin="bevel" points="1532.54,637.037 1532.54,516.922"/>
<polyline class="Stem" fill="none" stroke="#000000" stroke-width="3.25" stroke-linecap="round" stroke-linejoin="bevel" points="1611.25,649.537 1611.25,522.982"/>
<path class="Note" d="M361.389,567.998 C359.045,567.998 357.352,568.81 356.31,570.435 C355.144,571.998 354.56,574.118 354.56,576.795 C354.56,579.857 355.373,582.493 356.998,584.701 C358.623,586.847 360.415,588.347 362.373,589.201 C364.123,590.045 365.977,590.467 367.935,590.467 C370.217,590.467 371.941,589.654 373.107,588.029 C374.211,586.394 374.764,584.274 374.764,581.67 C374.764,578.607 373.951,575.972 372.326,573.764 C370.701,571.68 368.946,570.18 367.06,569.264 C365.165,568.42 363.274,567.998 361.389,567.998 M364.717,565.467 C371.748,565.467 377.607,566.831 382.295,569.56 C387.045,572.3 389.42,575.524 389.42,579.232 C389.42,583.201 386.977,586.456 382.092,588.998 C377.206,591.665 371.415,592.998 364.717,592.998 C357.81,592.998 351.951,591.633 347.139,588.904 C342.316,586.165 339.904,582.941 339.904,579.232 C339.904,575.264 342.378,572.008 347.326,569.467 C352.211,566.8 358.008,565.467 364.717,565.467"/>
<path class="Note" d="M921.888,622.685 C921.888,621.581 921.466,620.639 920.622,619.857 C919.768,619.014 918.789,618.592 917.685,618.592 C915.737,618.592 911.799,620.545 905.872,624.451 C899.747,628.42 896.002,631.253 894.638,632.951 C893.919,633.857 893.56,634.8 893.56,635.779 C893.56,636.883 893.987,637.826 894.841,638.607 C895.622,639.451 896.596,639.873 897.763,639.873 C899.648,639.873 903.622,637.92 909.685,634.014 C915.674,630.107 919.382,627.274 920.81,625.514 C921.528,624.67 921.888,623.727 921.888,622.685 M916.716,615.467 C922.31,615.467 925.106,617.873 925.106,622.685 C925.106,625.029 924.424,627.764 923.06,630.889 C921.695,633.951 919.872,636.295 917.591,637.92 C912.58,641.305 906.299,642.998 898.747,642.998 C893.143,642.998 890.341,640.592 890.341,635.779 C890.341,633.633 891.023,630.93 892.388,627.67 C893.69,624.545 895.513,622.17 897.856,620.545 C902.877,617.159 909.164,615.467 916.716,615.467"/>
<path class="Note" d="M1109.99,615.467 C1113.11,615.467 1115.75,616.279 1117.91,617.904 C1119.92,619.665 1120.92,621.878 1120.92,624.545 C1120.92,629.034 1118.62,633.232 1114,637.139 C1109.32,641.045 1104.3,642.998 1098.96,642.998 C1095.83,642.998 1093.2,642.185 1091.05,640.56 C1089.03,638.8 1088.02,636.586 1088.02,633.92 C1088.02,629.43 1090.36,625.232 1095.05,621.326 C1099.61,617.42 1104.59,615.467 1109.99,615.467"/>
<path class="Note" d="M1277.25,602.967 C1280.37,602.967 1283.01,603.779 1285.17,605.404 C1287.18,607.165 1288.18,609.378 1288.18,612.045 C1288.18,616.534 1285.88,620.732 1281.26,624.639 C1276.57,628.545 1271.56,630.498 1266.22,630.498 C1263.09,630.498 1260.45,629.685 1258.31,628.06 C1256.29,626.3 1255.28,624.086 1255.28,621.42 C1255.28,616.93 1257.62,612.732 1262.31,608.826 C1266.87,604.92 1271.85,602.967 1277.25,602.967"/>
<path class="Note" d="M1414.99,615.467 C1418.11,615.467 1420.75,616.279 1422.91,617.904 C1424.92,619.665 1425.93,621.878 1425.93,624.545 C1425.93,629.034 1423.62,633.232 1419,637.139 C1414.32,641.045 1409.3,642.998 1403.96,642.998 C1400.83,642.998 1398.2,642.185 1396.05,640.56 C1394.03,638.8 1393.02,636.586 1393.02,633.92 C1393.02,629.43 1395.36,625.232 1400.05,621.326 C1404.61,617.42 1409.59,615.467 1414.99,615.467"/>
<path class="Note" d="M1523.22,627.967 C1526.34,627.967 1528.98,628.779 1531.14,630.404 C1533.15,632.165 1534.15,634.378 1534.15,637.045 C1534.15,641.534 1531.85,645.732 1527.23,649.639 C1522.54,653.545 1517.53,655.498 1512.18,655.498 C1509.06,655.498 1506.42,654.685 1504.28,653.06 C1502.26,651.3 1501.25,649.086 1501.25,646.42 C1501.25,641.93 1503.59,637.732 1508.28,633.826 C1512.84,629.92 1517.82,627.967 1523.22,627.967"/>
<path class="Note" d="M1601.93,640.467 C1605.05,640.467 1607.69,641.279 1609.85,642.904 C1611.86,644.665 1612.86,646.878 1612.86,649.545 C1612.86,654.034 1610.56,658.232 1605.94,662.139 C1601.25,666.045 1596.24,667.998 1590.89,667.998 C1587.77,667.998 1585.13,667.185 1582.99,665.56 C1580.97,663.8 1579.96,661.586 1579.96,658.92 C1579.96,654.43 1582.3,650.232 1586.99,646.326 C1591.55,642.42 1596.53,640.467 1601.93,640.467"/>
<path class="Clef" d="M198.451,616.139 C198.451,616.139 198.649,616.139 199.045,616.139 C199.305,616.076 199.529,616.045 199.717,616.045 C207.008,616.045 212.998,618.618 217.685,623.764 C222.373,628.836 224.717,634.758 224.717,641.529 C224.717,649.935 221.237,656.774 214.279,662.045 C212.456,663.482 210.076,664.654 207.139,665.56 C207.472,669.79 207.639,673.206 207.639,675.81 C207.639,676.331 207.571,678.222 207.435,681.482 C207.175,687.534 205.092,692.774 201.185,697.201 C197.415,701.566 192.727,703.748 187.123,703.748 C181.852,703.748 177.362,701.894 173.654,698.185 C169.935,694.404 168.076,689.847 168.076,684.514 C168.076,681.711 169.154,679.331 171.31,677.373 C173.519,675.425 176.086,674.451 179.014,674.451 C181.618,674.451 183.8,675.461 185.56,677.482 C187.383,679.368 188.295,681.711 188.295,684.514 C188.295,687.045 187.383,689.222 185.56,691.045 C183.737,692.868 181.555,693.779 179.014,693.779 C177.972,693.779 176.967,693.586 175.998,693.201 C178.862,697.43 182.67,699.545 187.42,699.545 C191.909,699.545 195.586,697.722 198.451,694.076 C201.451,690.305 203.081,685.909 203.342,680.889 C203.467,677.764 203.529,675.977 203.529,675.529 C203.529,671.883 203.399,668.889 203.139,666.545 C199.889,667.066 196.993,667.326 194.451,667.326 C185.399,667.326 177.685,663.743 171.31,656.576 C165.06,649.347 161.935,640.753 161.935,630.795 C161.935,628.711 162.128,626.597 162.514,624.451 C162.909,622.691 163.399,620.769 163.982,618.685 C164.305,617.508 165.185,615.618 166.623,613.014 C167.144,612.232 167.73,611.256 168.381,610.084 C169.032,608.912 169.487,608.133 169.748,607.748 C170.394,606.446 171.659,604.685 173.545,602.467 C174.066,601.883 174.605,601.235 175.162,600.521 C175.719,599.808 176.193,599.222 176.584,598.764 C176.974,598.305 177.266,597.946 177.459,597.685 C177.652,597.425 179.118,595.701 181.857,592.514 C182.503,591.857 183.136,591.157 183.756,590.412 C184.376,589.667 184.881,589.081 185.271,588.654 C185.662,588.227 185.956,587.92 186.154,587.732 C183.81,579.982 182.342,573.795 181.748,569.17 C181.3,565.461 181.076,560.383 181.076,553.935 C181.076,548.269 182.378,542.961 184.982,538.014 C187.514,532.878 191.06,528.68 195.623,525.42 C195.883,525.222 196.206,525.123 196.592,525.123 C197.05,525.123 197.378,525.222 197.576,525.42 C201.086,529.649 204.112,535.149 206.654,541.92 C209.258,548.691 210.56,554.847 210.56,560.389 C210.56,566.639 209.066,572.498 206.076,577.967 C202.691,583.758 198.326,589.748 192.982,595.935 C194.347,600.227 196.17,606.961 198.451,616.139 M206.748,661.56 C210.133,660.321 212.774,658.206 214.67,655.217 C216.753,652.352 217.795,649.128 217.795,645.545 C217.795,640.92 216.232,636.816 213.107,633.232 C209.909,629.524 205.836,627.441 200.889,626.982 C203.691,640.722 205.644,652.248 206.748,661.56 M168.967,638.998 C168.967,645.446 171.571,651.112 176.779,655.998 C182.112,660.748 188.102,663.123 194.748,663.123 C197.477,663.123 200.144,662.925 202.748,662.529 C201.706,652.633 199.654,640.784 196.592,626.982 C192.883,627.378 189.925,628.68 187.717,630.889 C185.56,633.17 184.482,635.743 184.482,638.607 C184.482,643.555 187.123,647.56 192.404,650.623 C192.852,651.081 193.076,651.571 193.076,652.092 C193.076,652.612 192.852,653.097 192.404,653.545 C192.008,654.003 191.519,654.232 190.935,654.232 C190.873,654.232 190.581,654.17 190.06,654.045 C186.342,652.024 183.477,649.42 181.467,646.232 C179.571,642.836 178.623,639.415 178.623,635.967 C178.623,631.477 180.024,627.409 182.826,623.764 C185.753,620.118 189.56,617.774 194.248,616.732 C192.425,609.441 190.93,603.743 189.764,599.639 C188.722,600.816 187.469,602.232 186.006,603.889 C184.542,605.545 183.68,606.54 183.42,606.873 C181.076,609.925 179.284,612.3 178.045,613.998 C175.826,617.06 174.196,619.696 173.154,621.904 C172.05,624.383 171.076,627.086 170.232,630.014 C169.389,632.816 168.967,635.81 168.967,638.998 M201.576,539.685 C196.691,542.092 192.852,545.54 190.06,550.029 C187.196,554.654 185.764,559.633 185.764,564.967 C185.764,569.654 186.935,575.972 189.279,583.92 C193.967,578.253 197.482,573.014 199.826,568.201 C202.295,563.118 203.529,557.81 203.529,552.279 C203.529,548.112 202.878,543.915 201.576,539.685"/>
<path class="Clef" d="M198.451,1056.6 C198.451,1056.6 198.649,1056.6 199.045,1056.6 C199.305,1056.53 199.529,1056.5 199.717,1056.5 C207.008,1056.5 212.998,1059.08 217.685,1064.22 C222.373,1069.29 224.717,1075.22 224.717,1081.99 C224.717,1090.39 221.237,1097.23 214.279,1102.5 C212.456,1103.94 210.076,1105.11 207.139,1106.02 C207.472,1110.25 207.639,1113.66 207.639,1116.27 C207.639,1116.79 207.571,1118.68 207.435,1121.94 C207.175,1127.99 205.092,1133.23 201.185,1137.66 C197.415,1142.02 192.727,1144.21 187.123,1144.21 C181.852,1144.21 177.362,1142.35 173.654,1138.64 C169.935,1134.86 168.076,1130.3 168.076,1124.97 C168.076,1122.17 169.154,1119.79 171.31,1117.83 C173.519,1115.88 176.086,1114.91 179.014,1114.91 C181.618,1114.91 183.8,1115.92 185.56,1117.94 C187.383,1119.83 188.295,1122.17 188.295,1124.97 C188.295,1127.5 187.383,1129.68 185.56,1131.5 C183.737,1133.33 181.555,1134.24 179.014,1134.24 C177.972,1134.24 176.967,1134.04 175.998,1133.66 C178.862,1137.89 182.67,1140 187.42,1140 C191.909,1140 195.586,1138.18 198.451,1134.53 C201.451,1130.76 203.081,1126.37 203.342,1121.35 C203.467,1118.22 203.529,1116.43 203.529,1115.99 C203.529,1112.34 203.399,1109.35 203.139,1107 C199.889,1107.52 196.993,1107.78 194.451,1107.78 C185.399,1107.78 177.685,1104.2 171.31,1097.03 C165.06,1089.8 161.935,1081.21 161.935,1071.25 C161.935,1069.17 162.128,1067.05 162.514,1064.91 C162.909,1063.15 163.399,1061.23 163.982,1059.14 C164.305,1057.97 165.185,1056.08 166.623,1053.47 C167.144,1052.69 167.73,1051.71 168.381,1050.54 C169.032,1049.37 169.487,1048.59 169.748,1048.21 C170.394,1046.9 171.659,1045.14 173.545,1042.92 C174.066,1042.34 174.605,1041.69 175.162,1040.98 C175.719,1040.27 176.193,1039.68 176.584,1039.22 C176.974,1038.76 177.266,1038.4 177.459,1038.14 C177.652,1037.88 179.118,1036.16 181.857,1032.97 C182.503,1032.31 183.136,1031.61 183.756,1030.87 C184.376,1030.12 184.881,1029.54 185.271,1029.11 C185.662,1028.68 185.956,1028.38 186.154,1028.19 C183.81,1020.44 182.342,1014.25 181.748,1009.63 C181.3,1005.92 181.076,1000.84 181.076,994.393 C181.076,988.726 182.378,983.419 184.982,978.471 C187.514,973.336 191.06,969.138 195.623,965.877 C195.883,965.679 196.206,965.581 196.592,965.581 C197.05,965.581 197.378,965.679 197.576,965.877 C201.086,970.107 204.112,975.607 206.654,982.377 C209.258,989.148 210.56,995.304 210.56,1000.85 C210.56,1007.1 209.066,1012.96 206.076,1018.42 C202.691,1024.22 198.326,1030.21 192.982,1036.39 C194.347,1040.68 196.17,1047.42 198.451,1056.6 M206.748,1102.02 C210.133,1100.78 212.774,1098.66 214.67,1095.67 C216.753,1092.81 217.795,1089.59 217.795,1086 C217.795,1081.38 216.232,1077.27 213.107,1073.69 C209.909,1069.98 205.836,1067.9 200.889,1067.44 C203.691,1081.18 205.644,1092.71 206.748,1102.02 M168.967,1079.46 C168.967,1085.9 171.571,1091.57 176.779,1096.46 C182.112,1101.21 188.102,1103.58 194.748,1103.58 C197.477,1103.58 200.144,1103.38 202.748,1102.99 C201.706,1093.09 199.654,1081.24 196.592,1067.44 C192.883,1067.84 189.925,1069.14 187.717,1071.35 C185.56,1073.63 184.482,1076.2 184.482,1079.06 C184.482,1084.01 187.123,1088.02 192.404,1091.08 C192.852,1091.54 193.076,1092.03 193.076,1092.55 C193.076,1093.07 192.852,1093.55 192.404,1094 C192.008,1094.46 191.519,1094.69 190.935,1094.69 C190.873,1094.69 190.581,1094.63 190.06,1094.5 C186.342,1092.48 183.477,1089.88 181.467,1086.69 C179.571,1083.29 178.623,1079.87 178.623,1076.42 C178.623,1071.93 180.024,1067.87 182.826,1064.22 C185.753,1060.58 189.56,1058.23 194.248,1057.19 C192.425,1049.9 190.93,1044.2 189.764,1040.1 C188.722,1041.27 187.469,1042.69 186.006,1044.35 C184.542,1046 183.68,1047 183.42,1047.33 C181.076,1050.38 179.284,1052.76 178.045,1054.46 C175.826,1057.52 174.196,1060.15 173.154,1062.36 C172.05,1064.84 171.076,1067.54 170.232,1070.47 C169.389,1073.27 168.967,1076.27 168.967,1079.46 M201.576,980.143 C196.691,982.549 192.852,985.997 190.06,990.487 C187.196,995.112 185.764,1000.09 185.764,1005.42 C185.764,1010.11 186.935,1016.43 189.279,1024.38 C193.967,1018.71 197.482,1013.47 199.826,1008.66 C202.295,1003.58 203.529,998.268 203.529,992.737 C203.529,988.57 202.878,984.372 201.576,980.143"/>
<path class="Clef" d="M198.451,1497.05 C198.451,1497.05 198.649,1497.05 199.045,1497.05 C199.305,1496.99 199.529,1496.96 199.717,1496.96 C207.008,1496.96 212.998,1499.53 217.685,1504.68 C222.373,1509.75 224.717,1515.67 224.717,1522.44 C224.717,1530.85 221.237,1537.69 214.279,1542.96 C212.456,1544.4 210.076,1545.57 207.139,1546.48 C207.472,1550.7 207.639,1554.12 207.639,1556.73 C207.639,1557.25 207.571,1559.14 207.435,1562.4 C207.175,1568.45 205.092,1573.69 201.185,1578.12 C197.415,1582.48 192.727,1584.66 187.123,1584.66 C181.852,1584.66 177.362,1582.81 173.654,1579.1 C169.935,1575.32 168.076,1570.76 168.076,1565.43 C168.076,1562.63 169.154,1560.25 171.31,1558.29 C173.519,1556.34 176.086,1555.37 179.014,1555.37 C181.618,1555.37 183.8,1556.38 185.56,1558.4 C187.383,1560.28 188.295,1562.63 188.295,1565.43 C188.295,1567.96 187.383,1570.14 185.56,1571.96 C183.737,1573.78 181.555,1574.69 179.014,1574.69 C177.972,1574.69 176.967,1574.5 175.998,1574.12 C178.862,1578.35 182.67,1580.46 187.42,1580.46 C191.909,1580.46 195.586,1578.64 198.451,1574.99 C201.451,1571.22 203.081,1566.82 203.342,1561.8 C203.467,1558.68 203.529,1556.89 203.529,1556.44 C203.529,1552.8 203.399,1549.8 203.139,1547.46 C199.889,1547.98 196.993,1548.24 194.451,1548.24 C185.399,1548.24 177.685,1544.66 171.31,1537.49 C165.06,1530.26 161.935,1521.67 161.935,1511.71 C161.935,1509.63 162.128,1507.51 162.514,1505.37 C162.909,1503.61 163.399,1501.68 163.982,1499.6 C164.305,1498.42 165.185,1496.53 166.623,1493.93 C167.144,1493.15 167.73,1492.17 168.381,1491 C169.032,1489.83 169.487,1489.05 169.748,1488.66 C170.394,1487.36 171.659,1485.6 173.545,1483.38 C174.066,1482.8 174.605,1482.15 175.162,1481.44 C175.719,1480.72 176.193,1480.14 176.584,1479.68 C176.974,1479.22 177.266,1478.86 177.459,1478.6 C177.652,1478.34 179.118,1476.62 181.857,1473.43 C182.503,1472.77 183.136,1472.07 183.756,1471.33 C184.376,1470.58 184.881,1470 185.271,1469.57 C185.662,1469.14 185.956,1468.83 186.154,1468.65 C183.81,1460.9 182.342,1454.71 181.748,1450.08 C181.3,1446.38 181.076,1441.3 181.076,1434.85 C181.076,1429.18 182.378,1423.88 184.982,1418.93 C187.514,1413.79 191.06,1409.6 195.623,1406.33 C195.883,1406.14 196.206,1406.04 196.592,1406.04 C197.05,1406.04 197.378,1406.14 197.576,1406.33 C201.086,1410.56 204.112,1416.06 206.654,1422.83 C209.258,1429.61 210.56,1435.76 210.56,1441.3 C210.56,1447.55 209.066,1453.41 206.076,1458.88 C202.691,1464.67 198.326,1470.66 192.982,1476.85 C194.347,1481.14 196.17,1487.88 198.451,1497.05 M206.748,1542.48 C210.133,1541.24 212.774,1539.12 214.67,1536.13 C216.753,1533.27 217.795,1530.04 217.795,1526.46 C217.795,1521.83 216.232,1517.73 213.107,1514.15 C209.909,1510.44 205.836,1508.36 200.889,1507.9 C203.691,1521.64 205.644,1533.16 206.748,1542.48 M168.967,1519.91 C168.967,1526.36 171.571,1532.03 176.779,1536.91 C182.112,1541.66 188.102,1544.04 194.748,1544.04 C197.477,1544.04 200.144,1543.84 202.748,1543.44 C201.706,1533.55 199.654,1521.7 196.592,1507.9 C192.883,1508.29 189.925,1509.6 187.717,1511.8 C185.56,1514.08 184.482,1516.66 184.482,1519.52 C184.482,1524.47 187.123,1528.48 192.404,1531.54 C192.852,1532 193.076,1532.49 193.076,1533.01 C193.076,1533.53 192.852,1534.01 192.404,1534.46 C192.008,1534.92 191.519,1535.15 190.935,1535.15 C190.873,1535.15 190.581,1535.08 190.06,1534.96 C186.342,1532.94 183.477,1530.33 181.467,1527.15 C179.571,1523.75 178.623,1520.33 178.623,1516.88 C178.623,1512.39 180.024,1508.32 182.826,1504.68 C185.753,1501.03 189.56,1498.69 194.248,1497.65 C192.425,1490.36 190.93,1484.66 189.764,1480.55 C188.722,1481.73 187.469,1483.15 186.006,1484.8 C184.542,1486.46 183.68,1487.45 183.42,1487.79 C181.076,1490.84 179.284,1493.22 178.045,1494.91 C175.826,1497.98 174.196,1500.61 173.154,1502.82 C172.05,1505.3 171.076,1508 170.232,1510.93 C169.389,1513.73 168.967,1516.73 168.967,1519.91 M201.576,1420.6 C196.691,1423.01 192.852,1426.45 190.06,1430.94 C187.196,1435.57 185.764,1440.55 185.764,1445.88 C185.764,1450.57 186.935,1456.89 189.279,1464.83 C193.967,1459.17 197.482,1453.93 199.826,1449.12 C202.295,1444.03 203.529,1438.73 203.529,1433.19 C203.529,1429.03 202.878,1424.83 201.576,1420.6"/>
<path class="Clef" d="M198.451,1937.51 C198.451,1937.51 198.649,1937.51 199.045,1937.51 C199.305,1937.45 199.529,1937.42 199.717,1937.42 C207.008,1937.42 212.998,1939.99 217.685,1945.14 C222.373,1950.21 224.717,1956.13 224.717,1962.9 C224.717,1971.31 221.237,1978.15 214.279,1983.42 C212.456,1984.86 210.076,1986.03 207.139,1986.93 C207.472,1991.16 207.639,1994.58 207.639,1997.18 C207.639,1997.7 207.571,1999.59 207.435,2002.86 C207.175,2008.91 205.092,2014.15 201.185,2018.57 C197.415,2022.94 192.727,2025.12 187.123,2025.12 C181.852,2025.12 177.362,2023.27 173.654,2019.56 C169.935,2015.78 168.076,2011.22 168.076,2005.89 C168.076,2003.08 169.154,2000.7 171.31,1998.75 C173.519,1996.8 176.086,1995.82 179.014,1995.82 C181.618,1995.82 183.8,1996.83 185.56,1998.86 C187.383,2000.74 188.295,2003.08 188.295,2005.89 C188.295,2008.42 187.383,2010.59 185.56,2012.42 C183.737,2014.24 181.555,2015.15 179.014,2015.15 C177.972,2015.15 176.967,2014.96 175.998,2014.57 C178.862,2018.8 182.67,2020.92 187.42,2020.92 C191.909,2020.92 195.586,2019.09 198.451,2015.45 C201.451,2011.68 203.081,2007.28 203.342,2002.26 C203.467,1999.14 203.529,1997.35 203.529,1996.9 C203.529,1993.26 203.399,1990.26 203.139,1987.92 C199.889,1988.44 196.993,1988.7 194.451,1988.7 C185.399,1988.7 177.685,1985.12 171.31,1977.95 C165.06,1970.72 161.935,1962.13 161.935,1952.17 C161.935,1950.08 162.128,1947.97 162.514,1945.82 C162.909,1944.06 163.399,1942.14 163.982,1940.06 C164.305,1938.88 165.185,1936.99 166.623,1934.39 C167.144,1933.61 167.73,1932.63 168.381,1931.46 C169.032,1930.28 169.487,1929.51 169.748,1929.12 C170.394,1927.82 171.659,1926.06 173.545,1923.84 C174.066,1923.26 174.605,1922.61 175.162,1921.89 C175.719,1921.18 176.193,1920.59 176.584,1920.14 C176.974,1919.68 177.266,1919.32 177.459,1919.06 C177.652,1918.8 179.118,1917.07 181.857,1913.89 C182.503,1913.23 183.136,1912.53 183.756,1911.78 C184.376,1911.04 184.881,1910.45 185.271,1910.03 C185.662,1909.6 185.956,1909.29 186.154,1909.11 C183.81,1901.36 182.342,1895.17 181.748,1890.54 C181.3,1886.83 181.076,1881.76 181.076,1875.31 C181.076,1869.64 182.378,1864.33 184.982,1859.39 C187.514,1854.25 191.06,1850.05 195.623,1846.79 C195.883,1846.59 196.206,1846.5 196.592,1846.5 C197.05,1846.5 197.378,1846.59 197.576,1846.79 C201.086,1851.02 204.112,1856.52 206.654,1863.29 C209.258,1870.06 210.56,1876.22 210.56,1881.76 C210.56,1888.01 209.066,1893.87 206.076,1899.34 C202.691,1905.13 198.326,1911.12 192.982,1917.31 C194.347,1921.6 196.17,1928.33 198.451,1937.51 M206.748,1982.93 C210.133,1981.69 212.774,1979.58 214.67,1976.59 C216.753,1973.72 217.795,1970.5 217.795,1966.92 C217.795,1962.29 216.232,1958.19 213.107,1954.61 C209.909,1950.9 205.836,1948.81 200.889,1948.36 C203.691,1962.09 205.644,1973.62 206.748,1982.93 M168.967,1960.37 C168.967,1966.82 171.571,1972.49 176.779,1977.37 C182.112,1982.12 188.102,1984.5 194.748,1984.5 C197.477,1984.5 200.144,1984.3 202.748,1983.9 C201.706,1974.01 199.654,1962.16 196.592,1948.36 C192.883,1948.75 189.925,1950.05 187.717,1952.26 C185.56,1954.54 184.482,1957.12 184.482,1959.98 C184.482,1964.93 187.123,1968.93 192.404,1972 C192.852,1972.45 193.076,1972.94 193.076,1973.46 C193.076,1973.99 192.852,1974.47 192.404,1974.92 C192.008,1975.38 191.519,1975.61 190.935,1975.61 C190.873,1975.61 190.581,1975.54 190.06,1975.42 C186.342,1973.4 183.477,1970.79 181.467,1967.61 C179.571,1964.21 178.623,1960.79 178.623,1957.34 C178.623,1952.85 180.024,1948.78 182.826,1945.14 C185.753,1941.49 189.56,1939.15 194.248,1938.11 C192.425,1930.81 190.93,1925.12 189.764,1921.01 C188.722,1922.19 187.469,1923.61 186.006,1925.26 C184.542,1926.92 183.68,1927.91 183.42,1928.25 C181.076,1931.3 179.284,1933.67 178.045,1935.37 C175.826,1938.43 174.196,1941.07 173.154,1943.28 C172.05,1945.76 171.076,1948.46 170.232,1951.39 C169.389,1954.19 168.967,1957.18 168.967,1960.37 M201.576,1861.06 C196.691,1863.46 192.852,1866.91 190.06,1871.4 C187.196,1876.03 185.764,1881.01 185.764,1886.34 C185.764,1891.03 186.935,1897.34 189.279,1905.29 C193.967,1899.63 197.482,1894.39 199.826,1889.57 C202.295,1884.49 203.529,1879.18 203.529,1873.65 C203.529,1869.49 202.878,1865.29 201.576,1861.06"/>
<path class="Clef" d="M198.451,2377.97 C198.451,2377.97 198.649,2377.97 199.045,2377.97 C199.305,2377.91 199.529,2377.88 199.717,2377.88 C207.008,2377.88 212.998,2380.45 217.685,2385.59 C222.373,2390.67 224.717,2396.59 224.717,2403.36 C224.717,2411.77 221.237,2418.6 214.279,2423.88 C212.456,2425.31 210.076,2426.48 207.139,2427.39 C207.472,2431.62 207.639,2435.04 207.639,2437.64 C207.639,2438.16 207.571,2440.05 207.435,2443.31 C207.175,2449.36 205.092,2454.6 201.185,2459.03 C197.415,2463.4 192.727,2465.58 187.123,2465.58 C181.852,2465.58 177.362,2463.72 173.654,2460.02 C169.935,2456.23 168.076,2451.68 168.076,2446.34 C168.076,2443.54 169.154,2441.16 171.31,2439.2 C173.519,2437.26 176.086,2436.28 179.014,2436.28 C181.618,2436.28 183.8,2437.29 185.56,2439.31 C187.383,2441.2 188.295,2443.54 188.295,2446.34 C188.295,2448.88 187.383,2451.05 185.56,2452.88 C183.737,2454.7 181.555,2455.61 179.014,2455.61 C177.972,2455.61 176.967,2455.42 175.998,2455.03 C178.862,2459.26 182.67,2461.38 187.42,2461.38 C191.909,2461.38 195.586,2459.55 198.451,2455.91 C201.451,2452.14 203.081,2447.74 203.342,2442.72 C203.467,2439.59 203.529,2437.81 203.529,2437.36 C203.529,2433.71 203.399,2430.72 203.139,2428.38 C199.889,2428.9 196.993,2429.16 194.451,2429.16 C185.399,2429.16 177.685,2425.57 171.31,2418.41 C165.06,2411.18 161.935,2402.58 161.935,2392.63 C161.935,2390.54 162.128,2388.43 162.514,2386.28 C162.909,2384.52 163.399,2382.6 163.982,2380.52 C164.305,2379.34 165.185,2377.45 166.623,2374.84 C167.144,2374.06 167.73,2373.09 168.381,2371.91 C169.032,2370.74 169.487,2369.96 169.748,2369.58 C170.394,2368.28 171.659,2366.52 173.545,2364.3 C174.066,2363.71 174.605,2363.07 175.162,2362.35 C175.719,2361.64 176.193,2361.05 176.584,2360.59 C176.974,2360.14 177.266,2359.78 177.459,2359.52 C177.652,2359.26 179.118,2357.53 181.857,2354.34 C182.503,2353.69 183.136,2352.99 183.756,2352.24 C184.376,2351.5 184.881,2350.91 185.271,2350.48 C185.662,2350.06 185.956,2349.75 186.154,2349.56 C183.81,2341.81 182.342,2335.63 181.748,2331 C181.3,2327.29 181.076,2322.21 181.076,2315.77 C181.076,2310.1 182.378,2304.79 184.982,2299.84 C187.514,2294.71 191.06,2290.51 195.623,2287.25 C195.883,2287.05 196.206,2286.95 196.592,2286.95 C197.05,2286.95 197.378,2287.05 197.576,2287.25 C201.086,2291.48 204.112,2296.98 206.654,2303.75 C209.258,2310.52 210.56,2316.68 210.56,2322.22 C210.56,2328.47 209.066,2334.33 206.076,2339.8 C202.691,2345.59 198.326,2351.58 192.982,2357.77 C194.347,2362.06 196.17,2368.79 198.451,2377.97 M206.748,2423.39 C210.133,2422.15 212.774,2420.04 214.67,2417.05 C216.753,2414.18 217.795,2410.96 217.795,2407.38 C217.795,2402.75 216.232,2398.65 213.107,2395.06 C209.909,2391.35 205.836,2389.27 200.889,2388.81 C203.691,2402.55 205.644,2414.08 206.748,2423.39 M168.967,2400.83 C168.967,2407.28 171.571,2412.94 176.779,2417.83 C182.112,2422.58 188.102,2424.95 194.748,2424.95 C197.477,2424.95 200.144,2424.76 202.748,2424.36 C201.706,2414.46 199.654,2402.61 196.592,2388.81 C192.883,2389.21 189.925,2390.51 187.717,2392.72 C185.56,2395 184.482,2397.57 184.482,2400.44 C184.482,2405.39 187.123,2409.39 192.404,2412.45 C192.852,2412.91 193.076,2413.4 193.076,2413.92 C193.076,2414.44 192.852,2414.93 192.404,2415.38 C192.008,2415.83 191.519,2416.06 190.935,2416.06 C190.873,2416.06 190.581,2416 190.06,2415.88 C186.342,2413.85 183.477,2411.25 181.467,2408.06 C179.571,2404.67 178.623,2401.24 178.623,2397.8 C178.623,2393.31 180.024,2389.24 182.826,2385.59 C185.753,2381.95 189.56,2379.6 194.248,2378.56 C192.425,2371.27 190.93,2365.57 189.764,2361.47 C188.722,2362.65 187.469,2364.06 186.006,2365.72 C184.542,2367.38 183.68,2368.37 183.42,2368.7 C181.076,2371.76 179.284,2374.13 178.045,2375.83 C175.826,2378.89 174.196,2381.53 173.154,2383.73 C172.05,2386.21 171.076,2388.92 170.232,2391.84 C169.389,2394.65 168.967,2397.64 168.967,2400.83 M201.576,2301.52 C196.691,2303.92 192.852,2307.37 190.06,2311.86 C187.196,2316.48 185.764,2321.46 185.764,2326.8 C185.764,2331.48 186.935,2337.8 189.279,2345.75 C193.967,2340.08 197.482,2334.84 199.826,2330.03 C202.295,2324.95 203.529,2319.64 203.529,2314.11 C203.529,2309.94 202.878,2305.74 201.576,2301.52"/>
<path class="Clef" d="M198.451,2818.43 C198.451,2818.43 198.649,2818.43 199.045,2818.43 C199.305,2818.36 199.529,2818.33 199.717,2818.33 C207.008,2818.33 212.998,2820.91 217.685,2826.05 C222.373,2831.12 224.717,2837.05 224.717,2843.82 C224.717,2852.22 221.237,2859.06 214.279,2864.33 C212.456,2865.77 210.076,2866.94 207.139,2867.85 C207.472,2872.08 207.639,2875.49 207.639,2878.1 C207.639,2878.62 207.571,2880.51 207.435,2883.77 C207.175,2889.82 205.092,2895.06 201.185,2899.49 C197.415,2903.85 192.727,2906.04 187.123,2906.04 C181.852,2906.04 177.362,2904.18 173.654,2900.47 C169.935,2896.69 168.076,2892.13 168.076,2886.8 C168.076,2884 169.154,2881.62 171.31,2879.66 C173.519,2877.71 176.086,2876.74 179.014,2876.74 C181.618,2876.74 183.8,2877.75 185.56,2879.77 C187.383,2881.66 188.295,2884 188.295,2886.8 C188.295,2889.33 187.383,2891.51 185.56,2893.33 C183.737,2895.16 181.555,2896.07 179.014,2896.07 C177.972,2896.07 176.967,2895.87 175.998,2895.49 C178.862,2899.72 182.67,2901.83 187.42,2901.83 C191.909,2901.83 195.586,2900.01 198.451,2896.36 C201.451,2892.59 203.081,2888.2 203.342,2883.18 C203.467,2880.05 203.529,2878.27 203.529,2877.82 C203.529,2874.17 203.399,2871.18 203.139,2868.83 C199.889,2869.35 196.993,2869.61 194.451,2869.61 C185.399,2869.61 177.685,2866.03 171.31,2858.86 C165.06,2851.63 161.935,2843.04 161.935,2833.08 C161.935,2831 162.128,2828.88 162.514,2826.74 C162.909,2824.98 163.399,2823.06 163.982,2820.97 C164.305,2819.8 165.185,2817.91 166.623,2815.3 C167.144,2814.52 167.73,2813.54 168.381,2812.37 C169.032,2811.2 169.487,2810.42 169.748,2810.04 C170.394,2808.73 171.659,2806.97 173.545,2804.75 C174.066,2804.17 174.605,2803.52 175.162,2802.81 C175.719,2802.1 176.193,2801.51 176.584,2801.05 C176.974,2800.59 177.266,2800.23 177.459,2799.97 C177.652,2799.71 179.118,2797.99 181.857,2794.8 C182.503,2794.15 183.136,2793.44 183.756,2792.7 C184.376,2791.96 184.881,2791.37 185.271,2790.94 C185.662,2790.52 185.956,2790.21 186.154,2790.02 C183.81,2782.27 182.342,2776.08 181.748,2771.46 C181.3,2767.75 181.076,2762.67 181.076,2756.22 C181.076,2750.56 182.378,2745.25 184.982,2740.3 C187.514,2735.17 191.06,2730.97 195.623,2727.71 C195.883,2727.51 196.206,2727.41 196.592,2727.41 C197.05,2727.41 197.378,2727.51 197.576,2727.71 C201.086,2731.94 204.112,2737.44 206.654,2744.21 C209.258,2750.98 210.56,2757.13 210.56,2762.68 C210.56,2768.93 209.066,2774.79 206.076,2780.25 C202.691,2786.05 198.326,2792.04 192.982,2798.22 C194.347,2802.52 196.17,2809.25 198.451,2818.43 M206.748,2863.85 C210.133,2862.61 212.774,2860.49 214.67,2857.5 C216.753,2854.64 217.795,2851.42 217.795,2847.83 C217.795,2843.21 216.232,2839.1 213.107,2835.52 C209.909,2831.81 205.836,2829.73 200.889,2829.27 C203.691,2843.01 205.644,2854.54 206.748,2863.85 M168.967,2841.29 C168.967,2847.73 171.571,2853.4 176.779,2858.29 C182.112,2863.04 188.102,2865.41 194.748,2865.41 C197.477,2865.41 200.144,2865.21 202.748,2864.82 C201.706,2854.92 199.654,2843.07 196.592,2829.27 C192.883,2829.67 189.925,2830.97 187.717,2833.18 C185.56,2835.46 184.482,2838.03 184.482,2840.9 C184.482,2845.84 187.123,2849.85 192.404,2852.91 C192.852,2853.37 193.076,2853.86 193.076,2854.38 C193.076,2854.9 192.852,2855.38 192.404,2855.83 C192.008,2856.29 191.519,2856.52 190.935,2856.52 C190.873,2856.52 190.581,2856.46 190.06,2856.33 C186.342,2854.31 183.477,2851.71 181.467,2848.52 C179.571,2845.12 178.623,2841.7 178.623,2838.25 C178.623,2833.77 180.024,2829.7 182.826,2826.05 C185.753,2822.41 189.56,2820.06 194.248,2819.02 C192.425,2811.73 190.93,2806.03 189.764,2801.93 C188.722,2803.1 187.469,2804.52 186.006,2806.18 C184.542,2807.83 183.68,2808.83 183.42,2809.16 C181.076,2812.21 179.284,2814.59 178.045,2816.29 C175.826,2819.35 174.196,2821.98 173.154,2824.19 C172.05,2826.67 171.076,2829.37 170.232,2832.3 C169.389,2835.1 168.967,2838.1 168.967,2841.29 M201.576,2741.97 C196.691,2744.38 192.852,2747.83 190.06,2752.32 C187.196,2756.94 185.764,2761.92 185.764,2767.25 C185.764,2771.94 186.935,2778.26 189.279,2786.21 C193.967,2780.54 197.482,2775.3 199.826,2770.49 C202.295,2765.41 203.529,2760.1 203.529,2754.57 C203.529,2750.4 202.878,2746.2 201.576,2741.97"/>
<path class="Clef" d="M198.451,3258.88 C198.451,3258.88 198.649,3258.88 199.045,3258.88 C199.305,3258.82 199.529,3258.79 199.717,3258.79 C207.008,3258.79 212.998,3261.36 217.685,3266.51 C222.373,3271.58 224.717,3277.5 224.717,3284.27 C224.717,3292.68 221.237,3299.52 214.279,3304.79 C212.456,3306.23 210.076,3307.4 207.139,3308.31 C207.472,3312.54 207.639,3315.95 207.639,3318.56 C207.639,3319.08 207.571,3320.97 207.435,3324.23 C207.175,3330.28 205.092,3335.52 201.185,3339.95 C197.415,3344.31 192.727,3346.49 187.123,3346.49 C181.852,3346.49 177.362,3344.64 173.654,3340.93 C169.935,3337.15 168.076,3332.59 168.076,3327.26 C168.076,3324.46 169.154,3322.08 171.31,3320.12 C173.519,3318.17 176.086,3317.2 179.014,3317.2 C181.618,3317.2 183.8,3318.21 185.56,3320.23 C187.383,3322.11 188.295,3324.46 188.295,3327.26 C188.295,3329.79 187.383,3331.97 185.56,3333.79 C183.737,3335.61 181.555,3336.52 179.014,3336.52 C177.972,3336.52 176.967,3336.33 175.998,3335.95 C178.862,3340.18 182.67,3342.29 187.42,3342.29 C191.909,3342.29 195.586,3340.47 198.451,3336.82 C201.451,3333.05 203.081,3328.65 203.342,3323.63 C203.467,3320.51 203.529,3318.72 203.529,3318.27 C203.529,3314.63 203.399,3311.63 203.139,3309.29 C199.889,3309.81 196.993,3310.07 194.451,3310.07 C185.399,3310.07 177.685,3306.49 171.31,3299.32 C165.06,3292.09 161.935,3283.5 161.935,3273.54 C161.935,3271.46 162.128,3269.34 162.514,3267.2 C162.909,3265.44 163.399,3263.51 163.982,3261.43 C164.305,3260.25 165.185,3258.36 166.623,3255.76 C167.144,3254.98 167.73,3254 168.381,3252.83 C169.032,3251.66 169.487,3250.88 169.748,3250.49 C170.394,3249.19 171.659,3247.43 173.545,3245.21 C174.066,3244.63 174.605,3243.98 175.162,3243.27 C175.719,3242.55 176.193,3241.97 176.584,3241.51 C176.974,3241.05 177.266,3240.69 177.459,3240.43 C177.652,3240.17 179.118,3238.45 181.857,3235.26 C182.503,3234.6 183.136,3233.9 183.756,3233.16 C184.376,3232.41 184.881,3231.83 185.271,3231.4 C185.662,3230.97 185.956,3230.67 186.154,3230.48 C183.81,3222.73 182.342,3216.54 181.748,3211.92 C181.3,3208.21 181.076,3203.13 181.076,3196.68 C181.076,3191.01 182.378,3185.71 184.982,3180.76 C187.514,3175.62 191.06,3171.43 195.623,3168.17 C195.883,3167.97 196.206,3167.87 196.592,3167.87 C197.05,3167.87 197.378,3167.97 197.576,3168.17 C201.086,3172.39 204.112,3177.89 206.654,3184.67 C209.258,3191.44 210.56,3197.59 210.56,3203.13 C210.56,3209.38 209.066,3215.24 206.076,3220.71 C202.691,3226.5 198.326,3232.49 192.982,3238.68 C194.347,3242.97 196.17,3249.71 198.451,3258.88 M206.748,3304.31 C210.133,3303.07 212.774,3300.95 214.67,3297.96 C216.753,3295.1 217.795,3291.87 217.795,3288.29 C217.795,3283.67 216.232,3279.56 213.107,3275.98 C209.909,3272.27 205.836,3270.19 200.889,3269.73 C203.691,3283.47 205.644,3294.99 206.748,3304.31 M168.967,3281.74 C168.967,3288.19 171.571,3293.86 176.779,3298.74 C182.112,3303.49 188.102,3305.87 194.748,3305.87 C197.477,3305.87 200.144,3305.67 202.748,3305.27 C201.706,3295.38 199.654,3283.53 196.592,3269.73 C192.883,3270.12 189.925,3271.43 187.717,3273.63 C185.56,3275.92 184.482,3278.49 184.482,3281.35 C184.482,3286.3 187.123,3290.31 192.404,3293.37 C192.852,3293.83 193.076,3294.32 193.076,3294.84 C193.076,3295.36 192.852,3295.84 192.404,3296.29 C192.008,3296.75 191.519,3296.98 190.935,3296.98 C190.873,3296.98 190.581,3296.92 190.06,3296.79 C186.342,3294.77 183.477,3292.17 181.467,3288.98 C179.571,3285.58 178.623,3282.16 178.623,3278.71 C178.623,3274.22 180.024,3270.15 182.826,3266.51 C185.753,3262.86 189.56,3260.52 194.248,3259.48 C192.425,3252.19 190.93,3246.49 189.764,3242.38 C188.722,3243.56 187.469,3244.98 186.006,3246.63 C184.542,3248.29 183.68,3249.29 183.42,3249.62 C181.076,3252.67 179.284,3255.05 178.045,3256.74 C175.826,3259.81 174.196,3262.44 173.154,3264.65 C172.05,3267.13 171.076,3269.83 170.232,3272.76 C169.389,3275.56 168.967,3278.56 168.967,3281.74 M201.576,3182.43 C196.691,3184.84 192.852,3188.29 190.06,3192.77 C187.196,3197.4 185.764,3202.38 185.764,3207.71 C185.764,3212.4 186.935,3218.72 189.279,3226.67 C193.967,3221 197.482,3215.76 199.826,3210.95 C202.295,3205.86 203.529,3200.56 203.529,3195.02 C203.529,3190.86 202.878,3186.66 201.576,3182.43"/>
<path class="Clef" d="M198.451,3699.34 C198.451,3699.34 198.649,3699.34 199.045,3699.34 C199.305,3699.28 199.529,3699.25 199.717,3699.25 C207.008,3699.25 212.998,3701.82 217.685,3706.97 C222.373,3712.04 224.717,3717.96 224.717,3724.73 C224.717,3733.14 221.237,3739.98 214.279,3745.25 C212.456,3746.69 210.076,3747.86 207.139,3748.76 C207.472,3752.99 207.639,3756.41 207.639,3759.01 C207.639,3759.53 207.571,3761.43 207.435,3764.69 C207.175,3770.74 205.092,3775.98 201.185,3780.4 C197.415,3784.77 192.727,3786.95 187.123,3786.95 C181.852,3786.95 177.362,3785.1 173.654,3781.39 C169.935,3777.61 168.076,3773.05 168.076,3767.72 C168.076,3764.91 169.154,3762.53 171.31,3760.58 C173.519,3758.63 176.086,3757.65 179.014,3757.65 C181.618,3757.65 183.8,3758.66 185.56,3760.69 C187.383,3762.57 188.295,3764.91 188.295,3767.72 C188.295,3770.25 187.383,3772.43 185.56,3774.25 C183.737,3776.07 181.555,3776.98 179.014,3776.98 C177.972,3776.98 176.967,3776.79 175.998,3776.4 C178.862,3780.63 182.67,3782.75 187.42,3782.75 C191.909,3782.75 195.586,3780.93 198.451,3777.28 C201.451,3773.51 203.081,3769.11 203.342,3764.09 C203.467,3760.97 203.529,3759.18 203.529,3758.73 C203.529,3755.09 203.399,3752.09 203.139,3749.75 C199.889,3750.27 196.993,3750.53 194.451,3750.53 C185.399,3750.53 177.685,3746.95 171.31,3739.78 C165.06,3732.55 161.935,3723.96 161.935,3714 C161.935,3711.91 162.128,3709.8 162.514,3707.65 C162.909,3705.89 163.399,3703.97 163.982,3701.89 C164.305,3700.71 165.185,3698.82 166.623,3696.22 C167.144,3695.44 167.73,3694.46 168.381,3693.29 C169.032,3692.12 169.487,3691.34 169.748,3690.95 C170.394,3689.65 171.659,3687.89 173.545,3685.67 C174.066,3685.09 174.605,3684.44 175.162,3683.72 C175.719,3683.01 176.193,3682.43 176.584,3681.97 C176.974,3681.51 177.266,3681.15 177.459,3680.89 C177.652,3680.63 179.118,3678.9 181.857,3675.72 C182.503,3675.06 183.136,3674.36 183.756,3673.62 C184.376,3672.87 184.881,3672.28 185.271,3671.86 C185.662,3671.43 185.956,3671.12 186.154,3670.94 C183.81,3663.19 182.342,3657 181.748,3652.37 C181.3,3648.66 181.076,3643.59 181.076,3637.14 C181.076,3631.47 182.378,3626.16 184.982,3621.22 C187.514,3616.08 191.06,3611.88 195.623,3608.62 C195.883,3608.43 196.206,3608.33 196.592,3608.33 C197.05,3608.33 197.378,3608.43 197.576,3608.62 C201.086,3612.85 204.112,3618.35 206.654,3625.12 C209.258,3631.89 210.56,3638.05 210.56,3643.59 C210.56,3649.84 209.066,3655.7 206.076,3661.17 C202.691,3666.96 198.326,3672.95 192.982,3679.14 C194.347,3683.43 196.17,3690.16 198.451,3699.34 M206.748,3744.76 C210.133,3743.52 212.774,3741.41 214.67,3738.42 C216.753,3735.56 217.795,3732.33 217.795,3728.75 C217.795,3724.12 216.232,3720.02 213.107,3716.44 C209.909,3712.73 205.836,3710.64 200.889,3710.19 C203.691,3723.93 205.644,3735.45 206.748,3744.76 M168.967,3722.2 C168.967,3728.65 171.571,3734.32 176.779,3739.2 C182.112,3743.95 188.102,3746.33 194.748,3746.33 C197.477,3746.33 200.144,3746.13 202.748,3745.73 C201.706,3735.84 199.654,3723.99 196.592,3710.19 C192.883,3710.58 189.925,3711.88 187.717,3714.09 C185.56,3716.37 184.482,3718.95 184.482,3721.81 C184.482,3726.76 187.123,3730.76 192.404,3733.83 C192.852,3734.28 193.076,3734.77 193.076,3735.29 C193.076,3735.82 192.852,3736.3 192.404,3736.75 C192.008,3737.21 191.519,3737.44 190.935,3737.44 C190.873,3737.44 190.581,3737.37 190.06,3737.25 C186.342,3735.23 183.477,3732.62 181.467,3729.44 C179.571,3726.04 178.623,3722.62 178.623,3719.17 C178.623,3714.68 180.024,3710.61 182.826,3706.97 C185.753,3703.32 189.56,3700.98 194.248,3699.94 C192.425,3692.64 190.93,3686.95 189.764,3682.84 C188.722,3684.02 187.469,3685.44 186.006,3687.09 C184.542,3688.75 183.68,3689.74 183.42,3690.08 C181.076,3693.13 179.284,3695.5 178.045,3697.2 C175.826,3700.26 174.196,3702.9 173.154,3705.11 C172.05,3707.59 171.076,3710.29 170.232,3713.22 C169.389,3716.02 168.967,3719.01 168.967,3722.2 M201.576,3622.89 C196.691,3625.29 192.852,3628.74 190.06,3633.23 C187.196,3637.86 185.764,3642.84 185.764,3648.17 C185.764,3652.86 186.935,3659.18 189.279,3667.12 C193.967,3661.46 197.482,3656.22 199.826,3651.4 C202.295,3646.32 203.529,3641.01 203.529,3635.48 C203.529,3631.32 202.878,3627.12 201.576,3622.89"/>
<path class="TimeSig" d="M272.467,567.912 C274.415,567.912 276.073,567.685 277.443,567.232 C278.813,566.779 279.691,566.553 280.076,566.553 C280.534,566.553 280.894,566.683 281.154,566.943 C281.352,567.131 281.482,567.355 281.545,567.615 C281.545,567.751 281.477,567.948 281.342,568.209 L252.935,601.224 L269.623,601.224 L269.623,588.131 C269.623,587.287 269.852,586.568 270.31,585.974 C271.092,585.329 271.743,584.938 272.264,584.803 C273.107,584.417 274.149,583.506 275.389,582.068 C276.43,580.902 277.67,578.855 279.107,575.928 C279.295,575.532 279.586,575.334 279.982,575.334 C280.764,575.334 281.217,575.792 281.342,576.709 L281.342,601.224 L288.482,601.224 C289.389,601.224 289.909,601.709 290.045,602.678 C290.045,603.657 289.524,604.146 288.482,604.146 L281.342,604.146 L281.342,604.928 C281.342,607.532 281.993,609.745 283.295,611.568 C284.795,613.391 286.555,614.303 288.576,614.303 C289.357,614.303 289.748,614.693 289.748,615.474 C289.748,616.256 289.357,616.646 288.576,616.646 C287.211,616.646 284.998,616.454 281.935,616.068 C279.133,615.61 276.951,615.381 275.389,615.381 C273.764,615.381 271.581,615.61 268.842,616.068 C265.915,616.454 263.737,616.646 262.31,616.646 C261.529,616.646 261.139,616.256 261.139,615.474 C261.139,614.693 261.529,614.303 262.31,614.303 C264.321,614.303 266.076,613.391 267.576,611.568 C268.941,609.683 269.623,607.469 269.623,604.928 L269.623,604.146 L252.935,604.146 C251.821,604.146 251.04,603.886 250.592,603.365 C250.06,602.98 249.795,602.459 249.795,601.803 C249.795,601.605 250.284,600.922 251.264,599.756 C252.378,598.454 253.55,596.86 254.779,594.974 C256.217,592.756 257.586,590.474 258.889,588.131 C260.316,585.464 261.456,582.402 262.31,578.943 C263.279,575.433 263.764,571.855 263.764,568.209 C263.764,567.167 264.222,566.646 265.139,566.646 C265.336,566.646 265.758,566.745 266.404,566.943 C266.602,567.006 267.011,567.102 267.631,567.232 C268.251,567.362 268.753,567.49 269.139,567.615 C270.316,567.813 271.425,567.912 272.467,567.912"/>
<path class="TimeSig" d="M272.467,618.084 C274.415,618.084 276.073,617.857 277.443,617.404 C278.813,616.951 279.691,616.724 280.076,616.724 C280.534,616.724 280.894,616.855 281.154,617.115 C281.352,617.303 281.482,617.527 281.545,617.787 C281.545,617.922 281.477,618.12 281.342,618.381 L252.935,651.396 L269.623,651.396 L269.623,638.303 C269.623,637.459 269.852,636.74 270.31,636.146 C271.092,635.501 271.743,635.11 272.264,634.974 C273.107,634.589 274.149,633.678 275.389,632.24 C276.43,631.073 277.67,629.027 279.107,626.099 C279.295,625.704 279.586,625.506 279.982,625.506 C280.764,625.506 281.217,625.964 281.342,626.881 L281.342,651.396 L288.482,651.396 C289.389,651.396 289.909,651.881 290.045,652.849 C290.045,653.829 289.524,654.318 288.482,654.318 L281.342,654.318 L281.342,655.099 C281.342,657.704 281.993,659.917 283.295,661.74 C284.795,663.563 286.555,664.474 288.576,664.474 C289.357,664.474 289.748,664.865 289.748,665.646 C289.748,666.428 289.357,666.818 288.576,666.818 C287.211,666.818 284.998,666.626 281.935,666.24 C279.133,665.782 276.951,665.553 275.389,665.553 C273.764,665.553 271.581,665.782 268.842,666.24 C265.915,666.626 263.737,666.818 262.31,666.818 C261.529,666.818 261.139,666.428 261.139,665.646 C261.139,664.865 261.529,664.474 262.31,664.474 C264.321,664.474 266.076,663.563 267.576,661.74 C268.941,659.855 269.623,657.641 269.623,655.099 L269.623,654.318 L252.935,654.318 C251.821,654.318 251.04,654.058 250.592,653.537 C250.06,653.152 249.795,652.631 249.795,651.974 C249.795,651.777 250.284,651.094 251.264,649.928 C252.378,648.626 253.55,647.032 254.779,645.146 C256.217,642.928 257.586,640.646 258.889,638.303 C260.316,635.636 261.456,632.573 262.31,629.115 C263.279,625.605 263.764,622.027 263.764,618.381 C263.764,617.339 264.222,616.818 265.139,616.818 C265.336,616.818 265.758,616.917 266.404,617.115 C266.602,617.178 267.011,617.274 267.631,617.404 C268.251,617.534 268.753,617.662 269.139,617.787 C270.316,617.985 271.425,618.084 272.467,618.084"/>
<path class="Rest" d="M1647.51,571.217 C1649.4,571.217 1650.83,571.737 1651.81,572.779 C1652.79,573.894 1653.37,575.003 1653.57,576.107 C1653.64,577.347 1653.93,578.451 1654.45,579.42 C1654.91,580.461 1655.66,580.982 1656.7,580.982 C1657.22,580.982 1658.03,580.201 1659.14,578.639 C1660.04,577.274 1660.79,575.972 1661.39,574.732 C1661.71,574.086 1662.16,573.764 1662.74,573.764 C1663.33,573.764 1663.79,574.086 1664.12,574.732 L1640.68,691.732 C1640.03,692.389 1639.08,692.717 1637.84,692.717 C1636.73,692.717 1635.82,692.389 1635.1,691.732 L1642.43,658.92 C1638.14,660.545 1634.36,661.357 1631.1,661.357 C1628.76,661.357 1626.74,660.612 1625.04,659.123 C1623.29,657.685 1622.42,655.795 1622.42,653.451 C1622.42,651.43 1623.13,649.737 1624.56,648.373 C1625.99,646.946 1627.72,646.232 1629.74,646.232 C1631.69,646.232 1633.09,646.753 1633.93,647.795 C1634.85,648.899 1635.41,650.003 1635.6,651.107 C1635.79,652.409 1636.11,653.519 1636.57,654.435 C1637.03,655.477 1637.75,655.998 1638.73,655.998 C1639.51,655.998 1640.68,655.019 1642.24,653.06 C1643.73,651.175 1644.58,649.743 1644.78,648.764 L1648.1,634.014 C1644,635.576 1640.35,636.357 1637.17,636.357 C1634.82,636.357 1632.8,635.612 1631.1,634.123 C1629.34,632.685 1628.46,630.795 1628.46,628.451 C1628.46,626.43 1629.15,624.737 1630.53,623.373 C1631.95,621.946 1633.68,621.232 1635.7,621.232 C1637.65,621.232 1639.05,621.753 1639.9,622.795 C1640.87,623.899 1641.45,625.003 1641.65,626.107 C1641.71,627.347 1642,628.456 1642.53,629.435 C1642.98,630.477 1643.73,630.998 1644.78,630.998 C1645.43,630.998 1646.47,630.086 1647.9,628.264 C1649.27,626.305 1650.05,624.873 1650.24,623.967 L1653.67,609.014 C1649.3,610.576 1645.75,611.357 1643.03,611.357 C1640.68,611.357 1638.66,610.607 1636.96,609.107 C1635.2,607.68 1634.32,605.795 1634.32,603.451 C1634.32,601.43 1635.04,599.737 1636.48,598.373 C1637.91,596.935 1639.63,596.217 1641.65,596.217 C1643.61,596.217 1645.01,596.737 1645.85,597.779 C1646.76,598.894 1647.31,600.003 1647.51,601.107 C1647.57,602.211 1647.9,603.316 1648.49,604.42 C1648.88,605.461 1649.59,605.982 1650.64,605.982 C1651.35,605.982 1652.33,605.071 1653.56,603.248 C1654.8,601.425 1655.55,600.092 1655.81,599.248 L1659.23,584.107 C1655.12,585.607 1651.74,586.357 1649.07,586.357 C1646.73,586.357 1644.71,585.607 1643.03,584.107 C1641.27,582.68 1640.39,580.795 1640.39,578.451 C1640.39,576.43 1641.07,574.737 1642.43,573.373 C1643.8,571.935 1645.49,571.217 1647.51,571.217"/>
<path class="Rest" d="M1994.48,607.357 L1958.94,607.357 C1958.28,607.357 1957.95,607.034 1957.95,606.389 L1957.95,592.717 C1957.95,592.06 1958.28,591.732 1958.94,591.732 L1994.48,591.732 C1995.13,591.732 1995.45,592.06 1995.45,592.717 L1995.45,606.389 C1995.45,607.034 1995.13,607.357 1994.48,607.357"/>
<path class="Rest" d="M2565.66,607.357 L2530.11,607.357 C2529.46,607.357 2529.13,607.034 2529.13,606.389 L2529.13,592.717 C2529.13,592.06 2529.46,591.732 2530.11,591.732 L2565.66,591.732 C2566.31,591.732 2566.63,592.06 2566.63,592.717 L2566.63,606.389 C2566.63,607.034 2566.31,607.357 2565.66,607.357"/>
<path class="Rest" d="M541.622,1047.81 L506.075,1047.81 C505.419,1047.81 505.091,1047.49 505.091,1046.85 L505.091,1033.17 C505.091,1032.52 505.419,1032.19 506.075,1032.19 L541.622,1032.19 C542.268,1032.19 542.591,1032.52 542.591,1033.17 L542.591,1046.85 C542.591,1047.49 542.268,1047.81 541.622,1047.81"/>
<path class="Rest" d="M888.543,1057.19 L852.997,1057.19 C852.34,1057.19 852.012,1056.86 852.012,1056.21 L852.012,1042.53 C852.012,1041.89 852.34,1041.56 852.997,1041.56 L888.543,1041.56 C889.189,1041.56 889.512,1041.89 889.512,1042.53 L889.512,1056.21 C889.512,1056.86 889.189,1057.19 888.543,1057.19"/>
<path class="Rest" d="M1073.2,1049.38 C1073.2,1048.2 1073.86,1046.9 1075.17,1045.47 C1076.14,1044.43 1077.57,1043.19 1079.47,1041.75 C1080.9,1040.78 1082.29,1039.32 1083.66,1037.36 C1084.96,1035.48 1085.61,1033.42 1085.61,1031.21 C1085.61,1028.6 1084.77,1026.29 1083.08,1024.28 L1079.56,1020.08 C1079.3,1019.82 1079.17,1019.49 1079.17,1019.1 C1079.17,1018.71 1079.36,1018.36 1079.75,1018.03 C1080.21,1017.7 1080.6,1017.53 1080.92,1017.53 C1081.38,1017.53 1081.74,1017.73 1082,1018.13 L1097.14,1036.1 C1097.79,1036.94 1098.11,1037.78 1098.11,1038.63 C1098.11,1039.8 1097.46,1041.11 1096.16,1042.53 C1095.31,1043.45 1093.92,1044.69 1091.97,1046.25 C1090.47,1047.16 1089.04,1048.62 1087.67,1050.64 C1086.37,1052.53 1085.72,1054.58 1085.72,1056.8 C1085.72,1059.54 1086.5,1061.85 1088.06,1063.74 L1096.45,1073.6 C1096.65,1073.79 1096.81,1074.12 1096.94,1074.58 C1096.94,1075.03 1096.78,1075.42 1096.45,1075.75 C1096,1076.08 1095.6,1076.24 1095.28,1076.24 C1095.16,1076.24 1094.64,1075.88 1093.72,1075.16 C1092.74,1074.38 1091.44,1073.63 1089.81,1072.91 C1087.99,1072.2 1086.2,1071.85 1084.44,1071.85 C1082.81,1071.85 1081.48,1072.3 1080.44,1073.21 C1079.53,1074.12 1079.08,1075.88 1079.08,1078.49 C1079.08,1082.46 1080.02,1085.58 1081.91,1087.86 C1082.1,1088.12 1082.14,1088.45 1082,1088.83 C1081.88,1089.09 1081.65,1089.22 1081.31,1089.22 C1080.86,1089.22 1079.86,1088.05 1078.3,1085.71 C1076.66,1083.24 1075.13,1080.4 1073.7,1077.21 C1072.2,1073.82 1071.45,1071.02 1071.45,1068.81 C1071.45,1066.01 1072.79,1064.61 1075.45,1064.61 C1078.52,1064.61 1082.49,1065.65 1087.38,1067.74 L1074.19,1051.91 C1073.53,1051.06 1073.2,1050.22 1073.2,1049.38"/>
<path class="Rest" d="M1263.47,1036.67 C1265.36,1036.67 1266.79,1037.2 1267.77,1038.24 C1268.75,1039.41 1269.27,1040.52 1269.33,1041.56 C1269.47,1042.54 1269.8,1043.65 1270.32,1044.88 C1270.9,1045.92 1271.65,1046.44 1272.55,1046.44 C1273.27,1046.44 1274.35,1045.63 1275.79,1044 C1277.09,1042.58 1278.03,1041.3 1278.62,1040.19 C1278.94,1039.54 1279.39,1039.22 1279.97,1039.22 L1280.08,1039.22 C1280.73,1039.28 1281.18,1039.61 1281.44,1040.19 L1269.15,1082.19 C1268.49,1082.85 1267.58,1083.17 1266.4,1083.17 C1265.23,1083.17 1264.32,1082.85 1263.68,1082.19 L1275.4,1049.56 C1271.23,1051.06 1267.71,1051.81 1264.85,1051.81 C1262.51,1051.81 1260.49,1051.06 1258.79,1049.56 C1257.03,1048.14 1256.15,1046.25 1256.15,1043.91 C1256.15,1041.89 1256.87,1040.2 1258.3,1038.83 C1259.73,1037.39 1261.45,1036.67 1263.47,1036.67"/>
<path class="Rest" d="M1412.45,1036.67 C1414.41,1036.67 1415.81,1037.2 1416.65,1038.24 C1417.56,1039.35 1418.11,1040.46 1418.31,1041.56 C1418.37,1042.67 1418.7,1043.77 1419.3,1044.88 C1419.68,1045.92 1420.39,1046.44 1421.44,1046.44 C1422.09,1046.44 1423.07,1045.66 1424.37,1044.1 C1425.86,1042.27 1426.81,1040.97 1427.2,1040.19 C1427.52,1039.54 1427.98,1039.22 1428.56,1039.22 C1428.56,1039.22 1428.6,1039.22 1428.67,1039.22 C1429.25,1039.28 1429.68,1039.61 1429.94,1040.19 L1412.06,1107.19 C1411.42,1107.85 1410.51,1108.17 1409.33,1108.17 C1408.16,1108.17 1407.25,1107.85 1406.59,1107.19 L1416.65,1074.47 C1412.29,1076.03 1408.74,1076.81 1406.01,1076.81 C1403.67,1076.81 1401.65,1076.07 1399.95,1074.58 C1398.19,1073.14 1397.31,1071.25 1397.31,1068.91 C1397.31,1066.89 1397.99,1065.2 1399.36,1063.83 C1400.8,1062.4 1402.52,1061.69 1404.55,1061.69 C1406.49,1061.69 1407.89,1062.21 1408.75,1063.25 C1409.72,1064.36 1410.3,1065.46 1410.5,1066.56 C1410.7,1067.87 1411.02,1068.98 1411.48,1069.89 C1411.93,1070.93 1412.64,1071.46 1413.62,1071.46 C1414.4,1071.46 1415.51,1070.54 1416.95,1068.72 C1418.44,1067.02 1419.35,1065.68 1419.69,1064.71 L1424.26,1049.56 C1420.1,1051.06 1416.62,1051.81 1413.83,1051.81 C1411.48,1051.81 1409.46,1051.06 1407.76,1049.56 C1406,1048.14 1405.12,1046.25 1405.12,1043.91 C1405.12,1041.89 1405.84,1040.2 1407.28,1038.83 C1408.71,1037.39 1410.43,1036.67 1412.45,1036.67"/>
<!--<path class="Rest" d=/>-->
<!--<path class="Rest" d=/>-->
<path class="Rest" d="M1953.74,1047.81 L1918.19,1047.81 C1917.53,1047.81 1917.2,1047.49 1917.2,1046.85 L1917.2,1033.17 C1917.2,1032.52 1917.53,1032.19 1918.19,1032.19 L1953.74,1032.19 C1954.38,1032.19 1954.7,1032.52 1954.7,1033.17 L1954.7,1046.85 C1954.7,1047.49 1954.38,1047.81 1953.74,1047.81"/>
<path class="Rest" d="M2552.08,1047.81 L2516.53,1047.81 C2515.87,1047.81 2515.55,1047.49 2515.55,1046.85 L2515.55,1033.17 C2515.55,1032.52 2515.87,1032.19 2516.53,1032.19 L2552.08,1032.19 C2552.72,1032.19 2553.05,1032.52 2553.05,1033.17 L2553.05,1046.85 C2553.05,1047.49 2552.72,1047.81 2552.08,1047.81"/>
<path class="Rest" d="M568.301,1488.27 L532.754,1488.27 C532.098,1488.27 531.77,1487.95 531.77,1487.3 L531.77,1473.63 C531.77,1472.98 532.098,1472.65 532.754,1472.65 L568.301,1472.65 C568.947,1472.65 569.27,1472.98 569.27,1473.63 L569.27,1487.3 C569.27,1487.95 568.947,1488.27 568.301,1488.27"/>
<path class="Rest" d="M1222,1488.27 L1186.45,1488.27 C1185.8,1488.27 1185.47,1487.95 1185.47,1487.3 L1185.47,1473.63 C1185.47,1472.98 1185.8,1472.65 1186.45,1472.65 L1222,1472.65 C1222.65,1472.65 1222.97,1472.98 1222.97,1473.63 L1222.97,1487.3 C1222.97,1487.95 1222.65,1488.27 1222,1488.27"/>
<path class="Rest" d="M1873.7,1488.27 L1838.15,1488.27 C1837.5,1488.27 1837.17,1487.95 1837.17,1487.3 L1837.17,1473.63 C1837.17,1472.98 1837.5,1472.65 1838.15,1472.65 L1873.7,1472.65 C1874.35,1472.65 1874.67,1472.98 1874.67,1473.63 L1874.67,1487.3 C1874.67,1487.95 1874.35,1488.27 1873.7,1488.27"/>
<path class="Rest" d="M2525.4,1488.27 L2489.85,1488.27 C2489.2,1488.27 2488.87,1487.95 2488.87,1487.3 L2488.87,1473.63 C2488.87,1472.98 2489.2,1472.65 2489.85,1472.65 L2525.4,1472.65 C2526.05,1472.65 2526.37,1472.98 2526.37,1473.63 L2526.37,1487.3 C2526.37,1487.95 2526.05,1488.27 2525.4,1488.27"/>
<path class="Rest" d="M568.301,1928.73 L532.754,1928.73 C532.098,1928.73 531.77,1928.41 531.77,1927.76 L531.77,1914.09 C531.77,1913.43 532.098,1913.11 532.754,1913.11 L568.301,1913.11 C568.947,1913.11 569.27,1913.43 569.27,1914.09 L569.27,1927.76 C569.27,1928.41 568.947,1928.73 568.301,1928.73"/>
<path class="Rest" d="M1222,1928.73 L1186.45,1928.73 C1185.8,1928.73 1185.47,1928.41 1185.47,1927.76 L1185.47,1914.09 C1185.47,1913.43 1185.8,1913.11 1186.45,1913.11 L1222,1913.11 C1222.65,1913.11 1222.97,1913.43 1222.97,1914.09 L1222.97,1927.76 C1222.97,1928.41 1222.65,1928.73 1222,1928.73"/>
<path class="Rest" d="M1873.7,1928.73 L1838.15,1928.73 C1837.5,1928.73 1837.17,1928.41 1837.17,1927.76 L1837.17,1914.09 C1837.17,1913.43 1837.5,1913.11 1838.15,1913.11 L1873.7,1913.11 C1874.35,1913.11 1874.67,1913.43 1874.67,1914.09 L1874.67,1927.76 C1874.67,1928.41 1874.35,1928.73 1873.7,1928.73"/>
<path class="Rest" d="M2525.4,1928.73 L2489.85,1928.73 C2489.2,1928.73 2488.87,1928.41 2488.87,1927.76 L2488.87,1914.09 C2488.87,1913.43 2489.2,1913.11 2489.85,1913.11 L2525.4,1913.11 C2526.05,1913.11 2526.37,1913.43 2526.37,1914.09 L2526.37,1927.76 C2526.37,1928.41 2526.05,1928.73 2525.4,1928.73"/>
<path class="Rest" d="M568.301,2369.19 L532.754,2369.19 C532.098,2369.19 531.77,2368.86 531.77,2368.22 L531.77,2354.55 C531.77,2353.89 532.098,2353.56 532.754,2353.56 L568.301,2353.56 C568.947,2353.56 569.27,2353.89 569.27,2354.55 L569.27,2368.22 C569.27,2368.86 568.947,2369.19 568.301,2369.19"/>
<path class="Rest" d="M1222,2369.19 L1186.45,2369.19 C1185.8,2369.19 1185.47,2368.86 1185.47,2368.22 L1185.47,2354.55 C1185.47,2353.89 1185.8,2353.56 1186.45,2353.56 L1222,2353.56 C1222.65,2353.56 1222.97,2353.89 1222.97,2354.55 L1222.97,2368.22 C1222.97,2368.86 1222.65,2369.19 1222,2369.19"/>
<path class="Rest" d="M1873.7,2369.19 L1838.15,2369.19 C1837.5,2369.19 1837.17,2368.86 1837.17,2368.22 L1837.17,2354.55 C1837.17,2353.89 1837.5,2353.56 1838.15,2353.56 L1873.7,2353.56 C1874.35,2353.56 1874.67,2353.89 1874.67,2354.55 L1874.67,2368.22 C1874.67,2368.86 1874.35,2369.19 1873.7,2369.19"/>
<path class="Rest" d="M2525.4,2369.19 L2489.85,2369.19 C2489.2,2369.19 2488.87,2368.86 2488.87,2368.22 L2488.87,2354.55 C2488.87,2353.89 2489.2,2353.56 2489.85,2353.56 L2525.4,2353.56 C2526.05,2353.56 2526.37,2353.89 2526.37,2354.55 L2526.37,2368.22 C2526.37,2368.86 2526.05,2369.19 2525.4,2369.19"/>
<path class="Rest" d="M568.301,2809.65 L532.754,2809.65 C532.098,2809.65 531.77,2809.32 531.77,2808.68 L531.77,2795 C531.77,2794.35 532.098,2794.02 532.754,2794.02 L568.301,2794.02 C568.947,2794.02 569.27,2794.35 569.27,2795 L569.27,2808.68 C569.27,2809.32 568.947,2809.65 568.301,2809.65"/>
<path class="Rest" d="M1222,2809.65 L1186.45,2809.65 C1185.8,2809.65 1185.47,2809.32 1185.47,2808.68 L1185.47,2795 C1185.47,2794.35 1185.8,2794.02 1186.45,2794.02 L1222,2794.02 C1222.65,2794.02 1222.97,2794.35 1222.97,2795 L1222.97,2808.68 C1222.97,2809.32 1222.65,2809.65 1222,2809.65"/>
<path class="Rest" d="M1873.7,2809.65 L1838.15,2809.65 C1837.5,2809.65 1837.17,2809.32 1837.17,2808.68 L1837.17,2795 C1837.17,2794.35 1837.5,2794.02 1838.15,2794.02 L1873.7,2794.02 C1874.35,2794.02 1874.67,2794.35 1874.67,2795 L1874.67,2808.68 C1874.67,2809.32 1874.35,2809.65 1873.7,2809.65"/>
<path class="Rest" d="M2525.4,2809.65 L2489.85,2809.65 C2489.2,2809.65 2488.87,2809.32 2488.87,2808.68 L2488.87,2795 C2488.87,2794.35 2489.2,2794.02 2489.85,2794.02 L2525.4,2794.02 C2526.05,2794.02 2526.37,2794.35 2526.37,2795 L2526.37,2808.68 C2526.37,2809.32 2526.05,2809.65 2525.4,2809.65"/>
<path class="Rest" d="M568.301,3250.1 L532.754,3250.1 C532.098,3250.1 531.77,3249.78 531.77,3249.13 L531.77,3235.46 C531.77,3234.81 532.098,3234.48 532.754,3234.48 L568.301,3234.48 C568.947,3234.48 569.27,3234.81 569.27,3235.46 L569.27,3249.13 C569.27,3249.78 568.947,3250.1 568.301,3250.1"/>
<path class="Rest" d="M1222,3250.1 L1186.45,3250.1 C1185.8,3250.1 1185.47,3249.78 1185.47,3249.13 L1185.47,3235.46 C1185.47,3234.81 1185.8,3234.48 1186.45,3234.48 L1222,3234.48 C1222.65,3234.48 1222.97,3234.81 1222.97,3235.46 L1222.97,3249.13 C1222.97,3249.78 1222.65,3250.1 1222,3250.1"/>
<path class="Rest" d="M1873.7,3250.1 L1838.15,3250.1 C1837.5,3250.1 1837.17,3249.78 1837.17,3249.13 L1837.17,3235.46 C1837.17,3234.81 1837.5,3234.48 1838.15,3234.48 L1873.7,3234.48 C1874.35,3234.48 1874.67,3234.81 1874.67,3235.46 L1874.67,3249.13 C1874.67,3249.78 1874.35,3250.1 1873.7,3250.1"/>
<path class="Rest" d="M2525.4,3250.1 L2489.85,3250.1 C2489.2,3250.1 2488.87,3249.78 2488.87,3249.13 L2488.87,3235.46 C2488.87,3234.81 2489.2,3234.48 2489.85,3234.48 L2525.4,3234.48 C2526.05,3234.48 2526.37,3234.81 2526.37,3235.46 L2526.37,3249.13 C2526.37,3249.78 2526.05,3250.1 2525.4,3250.1"/>
<path class="Rest" d="M390.818,3690.56 L355.271,3690.56 C354.615,3690.56 354.287,3690.24 354.287,3689.59 L354.287,3675.92 C354.287,3675.26 354.615,3674.94 355.271,3674.94 L390.818,3674.94 C391.464,3674.94 391.787,3675.26 391.787,3675.92 L391.787,3689.59 C391.787,3690.24 391.464,3690.56 390.818,3690.56"/>
<path class="Rest" d="M689.553,3690.56 L654.006,3690.56 C653.349,3690.56 653.021,3690.24 653.021,3689.59 L653.021,3675.92 C653.021,3675.26 653.349,3674.94 654.006,3674.94 L689.553,3674.94 C690.198,3674.94 690.521,3675.26 690.521,3675.92 L690.521,3689.59 C690.521,3690.24 690.198,3690.56 689.553,3690.56"/>
<path class="Rest" d="M986.287,3690.56 L950.74,3690.56 C950.084,3690.56 949.756,3690.24 949.756,3689.59 L949.756,3675.92 C949.756,3675.26 950.084,3674.94 950.74,3674.94 L986.287,3674.94 C986.933,3674.94 987.256,3675.26 987.256,3675.92 L987.256,3689.59 C987.256,3690.24 986.933,3690.56 986.287,3690.56"/>
<path class="Rest" d="M1271.77,3690.56 L1236.22,3690.56 C1235.57,3690.56 1235.24,3690.24 1235.24,3689.59 L1235.24,3675.92 C1235.24,3675.26 1235.57,3674.94 1236.22,3674.94 L1271.77,3674.94 C1272.42,3674.94 1272.74,3675.26 1272.74,3675.92 L1272.74,3689.59 C1272.74,3690.24 1272.42,3690.56 1271.77,3690.56"/>
<path class="Beam" fill-rule="evenodd" d="M1284.94,491.464 L1612.87,516.714 L1612.87,529.251 L1284.94,504.001 L1284.94,491.464 "/>
<path class="Beam" fill-rule="evenodd" d="M1422.68,522.903 L1612.87,537.547 L1612.87,550.084 L1422.68,535.44 L1422.68,522.903 "/>
<path class="Beam" fill-rule="evenodd" d="M1530.91,552.07 L1612.87,558.38 L1612.87,570.917 L1530.91,564.607 L1530.91,552.07 "/>
<path class="Beam" fill-rule="evenodd" d="M1612.87,579.214 L1579.87,576.673 L1579.87,589.21 L1612.87,591.751 L1612.87,579.214 "/>
</svg>
